<?xml version="1.0" standalone="no"?>
<!DOCTYPE svg PUBLIC "-//W3C//DTD SVG 1.1//EN" "http://www.w3.org/Graphics/SVG/1.1/DTD/svg11.dtd" >
<svg xmlns="http://www.w3.org/2000/svg" xmlns:xlink="http://www.w3.org/1999/xlink" version="1.1">
<metadata></metadata>
<defs>
<font id="cupcake_party_demoregular" horiz-adv-x="1263" >
<font-face units-per-em="2048" ascent="1536" descent="-512" />
<missing-glyph horiz-adv-x="626" />
<glyph horiz-adv-x="0" />
<glyph unicode="&#xd;" horiz-adv-x="626" />
<glyph horiz-adv-x="0" />
<glyph horiz-adv-x="0" />
<glyph unicode=" "  horiz-adv-x="626" />
<glyph unicode="&#x09;" horiz-adv-x="626" />
<glyph unicode="&#xa0;" horiz-adv-x="626" />
<glyph unicode="!" horiz-adv-x="235" d="M63 41q0 16 12.5 28.5t28.5 12.5t28.5 -12.5t12.5 -28.5t-12 -28.5t-29 -12.5q-16 0 -28.5 12.5t-12.5 28.5zM68 266v1129q0 20 12 31.5t27.5 11.5t29 -11.5t13.5 -31.5v-1129q0 -23 -13.5 -33t-29 -10t-27.5 10.5t-12 32.5z" />
<glyph unicode="&#x22;" horiz-adv-x="475" d="M92 813v416q0 20 12.5 31.5t27.5 11.5t28.5 -11.5t13.5 -31.5v-416q0 -23 -13.5 -33t-28.5 -10t-27.5 10.5t-12.5 32.5zM297 813v416q0 20 12.5 31.5t27.5 11.5t28.5 -11.5t13.5 -31.5v-416q0 -23 -13.5 -33t-28.5 -10t-27.5 10.5t-12.5 32.5z" />
<glyph unicode="#" horiz-adv-x="827" d="M63 683q0 15 10.5 28.5t32.5 13.5h64l39 184h-103q-23 0 -33 12.5t-10 28t10.5 28.5t32.5 13h121l45 217q4 20 19.5 28.5t31 5.5t25.5 -16.5t6 -33.5l-43 -201h244l45 217q4 20 19.5 28.5t31 5.5t25.5 -16.5t6 -33.5l-43 -201h98q20 0 31.5 -13t11.5 -28.5t-11 -28 t-32 -12.5h-114l-39 -184h153q20 0 31.5 -13.5t11.5 -28.5t-11 -27.5t-32 -12.5h-172l-53 -260q-4 -20 -19.5 -28.5t-31 -5.5t-25.5 16.5t-6 33.5l51 244h-243l-54 -260q-4 -20 -19 -28.5t-30.5 -5.5t-26 16.5t-6.5 33.5l52 244h-48q-23 0 -33 12.5t-10 27.5zM256 725h242 l39 184h-242z" />
<glyph unicode="$" horiz-adv-x="1095" d="M45 367q10 86 55 151.5t119 95.5q35 14 75 19.5t80 1.5t75.5 -17.5t64.5 -35.5q2 -4 4 -5.5t6 -5.5v207q-66 29 -127 61.5t-112 69.5q-152 113 -144 267q4 92 53.5 163.5t139.5 118.5q84 43 190 53v123q0 20 12.5 31.5t28 11.5t28.5 -11t13 -32v-121q123 -6 213 -61 q59 -39 89 -95.5t26 -123.5q-4 -78 -44 -137.5t-106 -85.5q-45 -18 -93 -16.5t-85 22.5v-182l15 -7q66 -29 130 -58.5t119 -63.5q127 -82 164 -181q39 -109 -33 -250q-55 -104 -162.5 -169.5t-232.5 -90.5v-123q0 -23 -13 -33t-28.5 -10t-28 10.5t-12.5 32.5v111 q-16 -2 -32.5 -2h-32.5q-45 0 -87 5t-81 18q-121 35 -185 116q-74 92 -61 228zM127 358q-6 -61 9.5 -105t43 -75t63.5 -49t70 -29q47 -14 100.5 -17t110.5 1v289q-4 96 -61 145q-39 31 -100.5 37t-110.5 -16q-53 -23 -86 -70t-39 -111zM223 1171q-6 -111 111 -196 q39 -29 88 -55.5t102 -51.5v562q-41 -4 -79.5 -16t-73.5 -30q-25 -12 -49.5 -30.5t-46 -44t-36 -60.5t-16.5 -78zM606 98q25 7 58 17q94 29 161.5 80t102.5 116q55 106 28 187q-14 39 -49 73.5t-82 64.5t-104 56.5t-115 50.5v-645zM606 1145q2 -29 23 -47q20 -16 57 -20.5 t68 7.5q43 18 68.5 58.5t29.5 95.5q6 90 -78 143q-68 43 -168 50v-287z" />
<glyph unicode="%" horiz-adv-x="745" d="M44 29.5q-7 15.5 3 33.5l578 1197q8 18 24.5 22t30.5 -3t20.5 -22.5t-2.5 -33.5l-577 -1196q-10 -18 -25.5 -22.5t-30 2.5t-21.5 22.5zM53 1239q0 16 12.5 28.5t28.5 12.5t28.5 -12.5t12.5 -28.5t-12 -28.5t-29 -12.5q-16 0 -28.5 12.5t-12.5 28.5zM606 41 q0 16 12.5 28.5t28.5 12.5t28.5 -12.5t12.5 -28.5t-12 -28.5t-29 -12.5q-16 0 -28.5 12.5t-12.5 28.5z" />
<glyph unicode="&#x26;" horiz-adv-x="1071" d="M117 424q35 84 84 172t102 180q-113 238 -94 391q16 100 65 164q45 59 117 82q51 16 99.5 3t80.5 -50q39 -47 43 -117q2 -70 -36 -155q-33 -70 -77 -147t-95 -161q-4 -4 -5.5 -7t-5.5 -7q63 -127 160 -276q35 -51 68.5 -99.5t64.5 -93.5q156 162 277 426q8 16 23.5 21.5 t31.5 -0.5q16 -8 21.5 -23.5t-1.5 -32.5q-133 -283 -301 -456q53 -72 87 -114t36 -42q10 -14 9 -30.5t-15 -28.5q-12 -10 -29.5 -9.5t-27.5 15.5q-16 18 -35 41q-35 39 -86 110q-102 -92 -186 -126t-142 -42q-12 -2 -24.5 -3t-24.5 -1q-115 0 -174 70q-98 115 -10 346z M156 231.5q-2 -61.5 32 -100.5q45 -51 152 -39q68 10 142.5 49t146.5 105q-33 47 -69 98t-73 107q-41 66 -76.5 124t-64.5 113q-49 -84 -93 -166t-69.5 -155.5t-27.5 -135zM291 1155q-14 -106 63 -295q43 72 82 140.5t68 127.5q57 123 6 185q-27 26 -64 26q-10 0 -17 -1 t-15 -3q-49 -16 -81 -62t-42 -118z" />
<glyph unicode="'" horiz-adv-x="274" d="M88 813v416q0 20 12.5 31.5t27.5 11.5t28.5 -11.5t13.5 -31.5v-416q0 -23 -13.5 -33t-28.5 -10t-27.5 10.5t-12.5 32.5z" />
<glyph unicode="(" horiz-adv-x="770" d="M61 535q10 176 58.5 335.5t124.5 276.5q78 121 180 184q113 70 238 58q16 -2 27 -15.5t9 -30.5q-2 -16 -15 -27t-30 -9q-61 6 -112.5 -11.5t-93 -47t-75.5 -68.5t-59 -76q-76 -117 -118.5 -270.5t-51 -314.5t18 -315.5t92.5 -271.5q27 -47 65.5 -97t94 -90t129 -65.5 t168.5 -25.5h4q16 0 28.5 -12.5t12.5 -28.5t-12.5 -28.5t-28.5 -12.5h-4q-174 0 -308.5 81t-220.5 241q-72 129 -102.5 292.5t-18.5 348.5z" />
<glyph unicode=")" horiz-adv-x="770" d="M14 -387q0 16 12.5 28.5t28.5 12.5h4q94 0 168 25.5t129.5 65.5t94 90t65.5 97q63 117 91 271.5t19.5 315.5t-51.5 314.5t-118 270.5q-25 37 -58.5 76t-75.5 68.5t-93.5 47t-112.5 11.5q-16 -2 -29.5 9t-15.5 27t9 29.5t28 16.5q125 12 237 -58q102 -63 180 -184 q76 -117 124 -276.5t59 -335.5q12 -184 -19 -348t-102 -293q-86 -160 -220.5 -241t-308.5 -81h-4q-16 0 -28.5 12.5t-12.5 28.5z" />
<glyph unicode="*" horiz-adv-x="1411" d="M59 958q0 90 52.5 162t138.5 101q18 72 76 127q57 55 133 69q37 68 103.5 108t144.5 40t145.5 -40t103.5 -108q76 -14 134 -69q57 -57 75 -127q78 -29 129 -93q62 -78 62 -170q0 -76 -39 -138t-103 -99l-100 -694q-4 -27 -31 -27h-790q-27 0 -31 27l-100 721 q-47 39 -75 93t-28 117zM141 958q0 -41 16.5 -76.5t45 -62t66.5 -42t81 -15.5q82 0 142 53q27 25 55 0q59 -53 141 -53q94 0 156 65q12 12 28 13q18 0 31 -13q29 -31 71 -48t87 -17q43 0 82 15.5t68.5 42t46 62.5t16.5 76q0 66 -43 119t-111 72q-25 8 -28 33 q-12 61 -58.5 105t-109.5 52q-20 4 -31 25q-25 53 -76 86t-110 33t-109.5 -33t-75.5 -86q-10 -20 -33 -25q-61 -8 -108 -52t-57 -105q-4 -25 -29 -33q-68 -16 -111 -70.5t-43 -120.5zM174 936l41 82q11 16 29 8q18 -10 8 -29l-43 -79q-6 -12 -19 -13q-2 0 -4 1t-4 1 q-18 10 -8 29zM229 705l90 -644h101l-78 619q-61 4 -113 25zM383 682l78 -621h219l-18 621q-78 6 -142 51q-59 -41 -137 -51zM383 862l23 33q10 16 28 6q16 -10 6 -29l-22 -32q-6 -10 -17 -11q-4 0 -12 5q-16 12 -6 28zM383 1018l45 74q11 16 29 8q16 -12 6 -29l-45 -74 q-6 -10 -17 -10q-8 0 -10 2q-18 10 -8 29zM492 1186q-8 18 8 26l67 37q19 10 29 -8q4 -6 2 -14t-10 -13l-68 -36q-4 -2 -10 -2q-12 0 -18 10zM523 963.5q-1 9.5 5 15.5l58 78q14 14 28 4q8 -4 9.5 -13.5t-5.5 -15.5l-57 -78q-8 -8 -16 -8q-4 0 -13 4q-8 4 -9 13.5zM588 866 q-14 14 0 29l78 86q14 14 28 2q6 -6 7 -15.5t-5 -15.5l-78 -86q-6 -6 -16 -6q-8 0 -14 6zM592 1337q-12 16 6 29l43 29q6 6 14.5 4t12.5 -8q12 -16 -4 -29l-43 -31q-5 -2 -13 -2q-10 0 -16 8zM662 1108l26 88q5 18 25 14q20 -6 14 -26l-27 -88q-4 -14 -18 -15q-4 0 -6 2 q-23 4 -14 25zM702 680l19 -619h199l77 625q-66 14 -125 57q-74 -57 -170 -63zM756 1309l24 49q10 18 29 10q18 -10 8 -29l-24 -49q-6 -12 -19 -12q-2 0 -4 1t-4 1q-18 10 -10 29zM768 860q-6 20 12 27l76 31q18 10 27 -11q8 -20 -13 -26l-75 -31q-2 -2 -9 -2q-10 0 -18 12z M816 1121q-1 9 5 16l56 65q10 16 28 4q14 -14 2 -28l-55 -68q-6 -6 -16 -6q-9 0 -13 4q-6 4 -7 13zM850 991q-14 14 0 29l72 76q14 14 30 0q14 -14 0 -29l-73 -76q-6 -6 -15 -6q-8 0 -14 6zM963 61h94l92 631q-43 -12 -88 -12q-16 0 -23 2zM983 930l41 92q11 16 27 10 q20 -10 10 -28l-41 -93q-6 -10 -19 -10q-6 0 -10 2q-20 8 -8 27zM1122 885l19 86q6 20 24 16q20 -4 17 -24l-19 -86q-4 -16 -20 -17h-4q-20 8 -17 25z" />
<glyph unicode="+" horiz-adv-x="512" d="M27 642q0 15 10 28.5t33 13.5h145v147q0 20 12.5 31.5t27.5 11.5t28.5 -11t13.5 -32v-147h147q20 0 31.5 -13.5t11.5 -28.5t-11 -27.5t-32 -12.5h-147v-145q0 -23 -13.5 -33t-28.5 -10t-27.5 10t-12.5 33v145h-145q-23 0 -33 12.5t-10 27.5z" />
<glyph unicode="," horiz-adv-x="299" d="M84 -92q2 16 15.5 27.5t29.5 11.5q18 -2 25.5 4t11.5 14q16 33 -2.5 93.5t-67.5 113.5q-12 12 -12 28.5t12 28.5t29.5 11.5t30.5 -13.5q31 -33 53 -71.5t35 -79.5q25 -84 -4 -146q-29 -67 -107 -67q-4 0 -5 1t-5 1q-16 0 -28.5 13t-10.5 30z" />
<glyph unicode="-" horiz-adv-x="653" d="M96 547.5q0 15.5 10.5 29t32.5 13.5h375q20 0 31.5 -13.5t11.5 -29t-11 -27.5t-32 -12h-375q-23 0 -33 12t-10 27.5z" />
<glyph unicode="." horiz-adv-x="219" d="M68 41q0 16 12 28.5t29 12.5q16 0 28.5 -12.5t12.5 -28.5t-12.5 -28.5t-28.5 -12.5t-28.5 12.5t-12.5 28.5z" />
<glyph unicode="/" horiz-adv-x="708" d="M25.5 29.5q-7.5 15.5 3.5 33.5l577 1197q8 18 24.5 22t31 -3t20.5 -22.5t-2 -33.5l-578 -1196q-10 -18 -25.5 -22.5t-29.5 2.5t-21.5 22.5z" />
<glyph unicode="0" horiz-adv-x="1148" d="M76 735q10 129 48 247t99 210q80 119 185.5 175t222.5 44q115 -10 205 -82q82 -63 139 -178q53 -102 78.5 -232.5t21.5 -265.5q-4 -129 -33.5 -242.5t-83.5 -199.5q-129 -207 -344 -211h-8q-154 0 -268 72q-111 63 -176 190q-53 96 -74.5 217t-11.5 256zM158 723 q-8 -115 10 -225.5t65 -196.5q119 -219 373 -219h8q170 4 275 172q47 78 73.5 181.5t30.5 219.5q4 127 -19.5 246t-70.5 213q-18 35 -43.5 71t-59.5 66.5t-78 52t-97 25.5q-10 2 -18.5 2h-16.5q-53 0 -98.5 -16.5t-82 -43t-66.5 -59t-50 -65.5q-59 -88 -93 -198.5 t-42 -225.5z" />
<glyph unicode="1" horiz-adv-x="585" d="M4 1029q0 18 12 30q12 10 29.5 10t28.5 -12q23 -23 41 -27t28 0q39 6 84 53t95 129q18 33 34.5 65t26.5 56q12 29 25 56q14 31 47 24q14 -2 23 -13t9 -26v-1331q0 -16 -12.5 -28.5t-28.5 -12.5t-28 12.5t-12 28.5v1153q-8 -16 -15 -25q-117 -199 -231 -223q-29 -4 -66 3 t-78 48q-12 12 -12 30z" />
<glyph unicode="2" horiz-adv-x="1218" d="M68 223q8 76 58 136.5t130 91.5q129 53 287 30q104 -12 217 -59q86 135 113.5 284.5t5.5 278.5q-27 141 -106 230.5t-202 109.5q-68 12 -126 5t-102 -25.5t-71.5 -47t-35.5 -61.5q-14 -59 38 -114.5t156 -90.5q16 -4 23.5 -19.5t3.5 -31.5q-6 -16 -20.5 -23.5t-30.5 -3.5 q-143 47 -207 129q-66 84 -43 172q27 106 147 162q121 55 283 31q152 -27 254 -141q90 -106 118 -267q23 -121 4.5 -248.5t-71.5 -250.5q-12 -29 -26.5 -56.5t-30.5 -54.5q129 -68 220 -158t117 -178q4 -16 -4 -30.5t-24 -18.5q-4 -2 -10 -2q-33 0 -39 29q-23 72 -105 149 q-41 41 -92 76t-109 63q-111 -145 -268 -237q-76 -43 -135 -60.5t-105.5 -17.5t-78 10.5t-49.5 22.5q-45 31 -68 79t-16 107zM150 215q-4 -35 8 -63.5t39 -45.5q45 -29 118.5 -17.5t165.5 65.5q70 41 127.5 91t102.5 109q-137 52 -256 52q-92 0 -168 -31q-70 -27 -101.5 -73 t-35.5 -87z" />
<glyph unicode="3" horiz-adv-x="1009" d="M45 291q-27 96 10 190q31 90 109 152q72 55 147 61q88 10 172 -37q16 -8 21.5 -23.5t-4.5 -31.5q-8 -16 -23.5 -20t-32.5 4q-41 23 -75.5 26.5t-64.5 -1.5t-52.5 -17t-36.5 -25q-59 -47 -85 -118.5t-7 -137.5q16 -59 55 -106t98 -78q72 -39 153 -46t155 17 q133 45 203.5 134.5t66.5 205.5q-4 57 -27.5 116.5t-70.5 113t-117 94.5t-164 63q-23 4 -29 27q-6 25 9 39q37 43 84 101.5t96 120t93 119.5t75 99h-576q-16 0 -28.5 12.5t-12.5 28.5t12.5 28.5t28.5 12.5h658q23 0 37 -22q10 -23 -4 -43q-2 -4 -20.5 -28t-46.5 -60.5 t-63.5 -84t-74.5 -97.5t-79 -99t-75 -92q152 -49 252 -160q57 -61 89 -134t36 -151q6 -137 -76 -247q-41 -59 -105.5 -102.5t-144.5 -69.5q-71 -25 -147 -25q-59 0 -115.5 13.5t-107.5 41.5q-74 41 -124 101.5t-71 134.5z" />
<glyph unicode="4" horiz-adv-x="1347" d="M16 559q2 4 24.5 46t63.5 107.5t102.5 147.5t141.5 166q94 98 193.5 173t203.5 122q262 125 543 82q16 -4 27.5 -17.5t7.5 -29.5t-17.5 -27.5t-29.5 -7.5q-463 74 -868 -352q-106 -111 -178 -217.5t-107 -169.5h643l-2 481q0 16 12 28.5t29 12.5q16 0 28.5 -12.5 t12.5 -28.5l4 -1022q0 -16 -12.5 -28.5t-28.5 -12.5t-28.5 12.5t-12.5 28.5l-2 459h-713q-20 0 -35 20q-10 20 -2 39z" />
<glyph unicode="5" horiz-adv-x="966" d="M87 179.5q1 17.5 13 27.5q12 12 29.5 12t28.5 -14q51 -53 108.5 -82t115.5 -37t113.5 0t102.5 27q47 18 93 51t82 79t58.5 106.5t22.5 133.5q0 61 -20.5 116.5t-57.5 100.5t-86 77t-108 44q-49 10 -106.5 5t-113 -31.5t-106.5 -78.5t-90 -136q-6 -12 -19.5 -19.5 t-27.5 -3.5t-23.5 15.5t-7.5 25.5v782q0 16 10 31q14 10 31 10h651q16 0 28.5 -11t12.5 -30q0 -16 -12 -28.5t-29 -12.5h-610v-598q66 80 149 123q131 68 279 37q143 -33 236 -143q98 -115 102 -275q0 -158 -90 -278q-80 -115 -217 -168q-93 -37 -187 -37q-49 0 -88 8 q-150 29 -256 142q-12 12 -11 29.5z" />
<glyph unicode="6" horiz-adv-x="1003" d="M61 541q-6 123 19 250q25 131 80 243q47 96 112.5 171t145.5 124q186 113 424 78q16 -4 27.5 -17.5t7.5 -29.5t-17.5 -26.5t-30.5 -8.5q-133 18 -232 -9.5t-171 -80.5t-119 -117.5t-74 -120.5q-49 -100 -72.5 -217.5t-17.5 -234.5q0 -10 1 -21.5t3 -21.5q113 127 259 178 q74 27 148.5 27t145.5 -23q113 -39 185 -121q76 -86 76 -186q4 -104 -70 -199q-33 -47 -78 -82t-98 -57q-86 -37 -178 -37q-37 0 -70 6q-141 20 -256 133q-66 61 -107 174q-37 100 -43 226zM166 395q31 -127 102 -194q63 -61 127 -87t119 -30t99 7t69 24q88 39 143.5 111.5 t53.5 150.5q0 72 -56.5 136.5t-146.5 92.5q-133 43 -267.5 -12t-240.5 -197q-2 0 -2 -2z" />
<glyph unicode="7" horiz-adv-x="972" d="M49 1200l60 182q10 27 38 27l760 4q29 0 39 -27t-12 -45l-20 -19q-21 -19 -53 -56t-74 -94.5t-85 -135.5q-31 -55 -64.5 -125.5t-64.5 -156.5l250 -4q16 0 27.5 -12.5t11.5 -28.5t-12 -28.5t-29 -12.5l-276 4q-41 -129 -73 -286t-42 -347q-4 -39 -41 -39h-2 q-16 2 -28.5 14.5t-10.5 28.5q10 166 37 319.5t70 296.5q2 4 2 7.5t2 7.5l-207 4q-16 0 -27.5 12t-11.5 29q0 16 12.5 28.5t28.5 12.5l231 -4q31 86 68 168t80 157q49 86 95 147.5t81 102.5l-631 -4l-51 -151q-4 -16 -19.5 -23.5t-31.5 -3.5q-16 6 -23.5 20.5t-3.5 30.5z " />
<glyph unicode="8" horiz-adv-x="1015" d="M53 371q0 152 140 266q49 41 108 74.5t123 64.5q-80 39 -137 84q-113 88 -113 219q0 96 49 174q41 68 121 113q45 25 98.5 37t107.5 11t104.5 -16.5t93.5 -41.5q72 -47 105.5 -118t27.5 -161q-10 -121 -133 -215q-61 -45 -136 -82q55 -27 108.5 -56.5t98.5 -68.5 q135 -121 135 -295q0 -92 -44 -167.5t-130 -124.5q-57 -33 -126.5 -50.5t-145.5 -17.5h-2q-154 0 -275 70q-86 51 -132 127.5t-46 173.5zM135 369q0 -47 12.5 -83t33 -63.5t44 -48t47.5 -33.5q51 -29 111.5 -44t123 -15t123 14.5t109.5 42.5q23 12 46.5 31.5t43 47.5 t31.5 62.5t12 79.5q0 80 -29.5 136.5t-78.5 98.5t-112.5 73.5t-131.5 62.5q-4 -2 -8 -3t-8 -3q-70 -35 -138.5 -72t-121.5 -80q-109 -90 -109 -204zM256 1079q0 -49 20.5 -86t56.5 -66.5t84 -54t101 -49.5q55 27 104.5 54.5t87.5 59.5t61.5 67.5t27.5 78.5q6 84 -27 132.5 t-70 70.5q-35 23 -76.5 34t-86.5 11q-41 0 -81 -9t-75 -30q-61 -33 -90 -82q-37 -55 -37 -131z" />
<glyph unicode="9" horiz-adv-x="1003" d="M43 1053q-4 104 70 198q33 47 78 82t98 58q86 36 178 36q35 0 70 -6q141 -20 256 -133q66 -61 106 -174q37 -100 43 -225q6 -123 -18 -250q-25 -131 -80 -244q-47 -96 -112.5 -170.5t-145.5 -124.5q-186 -113 -424 -77q-16 4 -27.5 17t-7.5 30q4 16 17.5 26t29.5 8 q133 -18 232.5 9.5t171 81t118.5 118t74 119.5q49 100 72.5 218t17.5 235q0 10 -1 21.5t-3 21.5q-113 -127 -258 -178q-74 -27 -148.5 -27t-146.5 22q-115 37 -184 121q-76 86 -76 187zM125 1053q0 -72 56.5 -136.5t146.5 -93.5q133 -43 267 12.5t241 196.5q2 0 2 2 q-33 127 -103 195q-66 61 -128 86.5t-117.5 30t-99.5 -7t-68 -23.5q-45 -18 -81 -47t-62.5 -64t-40 -73.5t-13.5 -77.5z" />
<glyph unicode=":" horiz-adv-x="135" d="M25 41q0 16 12 28.5t29 12.5q16 0 28 -12.5t12 -28.5t-12 -28.5t-28 -12.5t-28.5 12.5t-12.5 28.5zM25 655q0 16 12 28.5t29 12.5q16 0 28 -12.5t12 -28.5t-12 -28.5t-28 -12.5t-28.5 12.5t-12.5 28.5z" />
<glyph unicode=";" horiz-adv-x="219" d="M33 -92q2 16 15 27.5t30 11.5q18 -2 25.5 4t11.5 14q16 33 -2.5 93.5t-67.5 113.5q-12 12 -12 28.5t12 28.5t29.5 11.5t29.5 -13.5q31 -33 53.5 -71.5t35.5 -79.5q25 -84 -5 -146q-28 -67 -106 -67q-4 0 -5 1t-5 1q-16 0 -28.5 13t-10.5 30zM33 655q0 16 12 28.5t29 12.5 q16 0 28.5 -12.5t12.5 -28.5t-12.5 -28.5t-28.5 -12.5t-28.5 12.5t-12.5 28.5z" />
<glyph unicode="&#x3c;" horiz-adv-x="688" d="M6 664q0 23 17 32l514 363q14 10 30.5 7t26.5 -17t7 -31t-17 -27l-467 -329l469 -359q12 -10 14 -26.5t-8 -30.5q-13 -17 -33 -17q-14 0 -24 9l-512 393q-16 12 -17 33z" />
<glyph unicode="=" horiz-adv-x="657" d="M98 547.5q0 15.5 10.5 29t32.5 13.5h375q20 0 31.5 -13.5t11.5 -29t-11 -27.5t-32 -12h-375q-23 0 -33 12t-10 27.5zM98 814q0 15 10.5 28.5t32.5 13.5h375q20 0 31.5 -13.5t11.5 -28.5t-11 -27.5t-32 -12.5h-375q-23 0 -33 12.5t-10 27.5z" />
<glyph unicode="&#x3e;" horiz-adv-x="688" d="M87 1017.5q-3 16.5 7 31.5q10 14 26.5 17t31.5 -7l514 -363q16 -10 16 -32q0 -20 -16 -33l-512 -393q-11 -9 -25 -9q-20 0 -33 17q-10 14 -8 30.5t14 26.5l469 359l-467 329q-14 10 -17 26.5z" />
<glyph unicode="?" horiz-adv-x="933" d="M11 1192.5q1 17.5 14 28.5q104 86 223 133q57 25 114.5 39t116.5 20q121 12 217.5 -17.5t151.5 -95.5q61 -74 63 -165q4 -98 -49 -220q-121 -264 -500 -593q-10 -11 -26 -11q-18 0 -31 15q-12 12 -11 29.5t15 27.5q365 315 477 565q88 195 0 299q-43 49 -121.5 71.5 t-179.5 12.5q-106 -10 -212.5 -56t-194.5 -118q-14 -10 -30.5 -9t-27.5 15q-10 12 -9 29.5zM266 41q0 16 12.5 28.5t28.5 12.5t28.5 -12.5t12.5 -28.5t-12 -28.5t-29 -12.5q-16 0 -28.5 12.5t-12.5 28.5z" />
<glyph unicode="@" horiz-adv-x="1335" d="M66 674q0 125 36.5 245.5t102.5 219.5q80 119 195.5 189.5t256.5 86.5q123 14 234 -16q100 -31 178 -103q102 -92 155.5 -237.5t49.5 -323.5q-2 -78 -22.5 -149.5t-55.5 -130.5q-39 -59 -85 -94t-99 -42q-16 -2 -38 0.5t-47.5 12.5t-53 31.5t-54.5 58.5q-31 -37 -61 -60 q-72 -53 -156 -53h-2q-139 0 -211 121q-33 57 -45 130t-6 148.5t26.5 147.5t51.5 125q68 121 166 121q61 0 100 -51q31 -37 40 -92.5t-7 -120.5q-10 -37 -49 -31q-16 4 -25.5 18.5t-5.5 30.5q10 45 6 83t-23 60q-14 20 -36 21q-33 0 -57.5 -27.5t-37.5 -50.5 q-29 -47 -46 -110.5t-21 -129.5q-10 -143 41 -231q45 -80 139 -80h2q61 0 104.5 35t69.5 76q-8 20 -15 41.5t-13 48.5q-12 43 -18.5 92t-4.5 96t11 87t30 67q16 23 34.5 30t35.5 7q16 0 41.5 -11.5t44.5 -52.5q23 -49 22 -116q0 -72 -19.5 -150t-54.5 -143q18 -39 43 -60 q41 -43 88 -37q33 4 67 31t60.5 71t44 103.5t19.5 130.5q4 160 -43 290t-135 208q-137 125 -346 100q-133 -16 -231.5 -80.5t-163 -157.5t-95.5 -204t-31 -219q0 -186 73 -324.5t202 -199.5q68 -33 154 -48.5t178 -11.5q84 4 140 19.5t73 31.5q10 12 27.5 13.5t29.5 -11.5 q12 -10 12 -27.5t-10 -29.5q-31 -33 -101.5 -53.5t-166.5 -24.5h-39q-63 0 -153.5 12.5t-178.5 55.5q-158 76 -242 239q-41 76 -60 167t-19 192zM809 805q-10 -92 16 -193q2 -2 2 -6q35 94 35 185q-2 51 -11 74.5t-15 23.5q-4 -2 -13.5 -19.5t-13.5 -64.5z" />
<glyph unicode="A" d="M39 772q10 145 50 281.5t99 242.5q61 104 136 166q84 66 176 66q106 0 178 -90q56 -70 70 -172q5 -34 4 -71q0 -72 -19 -151q-4 -16 -18.5 -24t-30.5 -4t-25.5 18.5t-5.5 30.5q17 67 17 128q0 28 -4 55q-12 85 -52 138q-47 59 -114 60q-63 0 -125 -49t-115 -142 q-57 -98 -93 -226t-46 -263q-3 -46 -3 -90q0 -94 14 -178q22 -123 75 -215q111 -188 334 -189h4q68 0 124 19.5t104 50.5t87 71.5t70 83.5q-37 115 -58.5 252.5t-21.5 272.5q0 170 35 278q29 86 68.5 113t72.5 27q92 0 143 -103q39 -88 39 -217q0 -74 -11 -151.5 t-31.5 -154.5t-51.5 -150.5t-67 -137.5l-25 -41q39 -102 86 -157.5t94 -55.5q18 0 29.5 -12t11.5 -29q0 -16 -11 -28.5t-30 -12.5q-70 0 -130 55.5t-107 161.5q-57 -70 -125 -118q-139 -98 -295 -99h-4q-133 0 -236.5 58.5t-169.5 171.5q-57 100 -81 236q-17 97 -18 204 q0 44 3 90zM932 844q0 -109 14.5 -221.5t40.5 -210.5q66 119 102.5 259t36.5 269q0 41 -5 84t-17 78t-31.5 56.5t-46.5 21.5q-23 0 -39 -30t-24 -52q-31 -92 -31 -254z" />
<glyph unicode="B" horiz-adv-x="1474" d="M41 322q-1 22 -1 45q0 106 23 231q27 145 84 291q29 78 65 146.5t77 127.5q2 0 2 2q27 37 55.5 71t56.5 64q-51 100 -116 132q-16 8 -21.5 23t2.5 32q6 16 21.5 21t32.5 -3q84 -39 145 -147q66 55 133 94q90 49 156.5 62.5t101.5 13.5q125 0 217 -82q84 -78 103 -197 q5 -31 5 -63q1 -42 -9 -86q-16 -76 -62 -144q-35 -49 -82 -94q55 0 109 -12q145 -31 233 -150q80 -110 80 -247v-13q0 -72 -21.5 -136t-62.5 -116q-55 -68 -130 -109.5t-165 -58.5q-25 -4 -49.5 -6t-48.5 -2q-113 0 -213 37q-100 35 -160 92q-70 66 -70 138q0 16 12.5 28 t28.5 12t28.5 -12t12.5 -28q0 -41 49.5 -83t127.5 -69q55 -19 123 -29q31 -4 62 -5l76 7q68 12 133.5 44t119.5 98q33 41 50 93t17 107.5t-17.5 109.5t-49.5 99q-72 98 -195 121q-36 7 -75 7q-95 0 -208 -40q-10 -2 -30 -10q-16 -4 -30.5 2t-21.5 23q-6 16 1.5 31.5 t23.5 21.5l31 10q94 37 156.5 89t96.5 108q32 58 42 116q5 32 6 60q0 24 -4 47q-6 39 -24.5 77t-49.5 66.5t-72 47t-94 18.5q-70 0 -163 -38t-193 -128q41 -104 59 -238q11 -78 15 -160q2 -41 2 -81.5t-2 -82.5q-4 -83 -14.5 -165t-26.5 -158q-43 -186 -115 -284.5 t-166 -98.5q-109 0 -166 109q-41 77 -47 201zM122 336q6 -113 40 -176q35 -66 92 -66q59 0 112.5 86.5t88.5 233.5q33 143 40 306q2 38 2 75q0 122 -18 235q-12 102 -41 187q-20 -23 -40.5 -46.5t-41.5 -52.5q-74 -111 -129 -250t-84 -284q-22 -112 -22 -209q0 -20 1 -39z " />
<glyph unicode="C" horiz-adv-x="1273" d="M48 570q-3 33 -3 67q0 122 37 258q68 250 217 416q131 145 301 188q62 16 120 15q50 0 97 -11q104 -23 176 -96q68 -68 86 -168q7 -37 8 -78q0 -69 -22 -147q-41 -133 -123 -213q-76 -74 -170 -86q-10 -2 -18.5 -2h-16.5q-63 0 -116.5 28.5t-85.5 79.5q-36 60 -36 134 q0 23 3 45q14 100 88 210q10 14 26.5 17.5t30.5 -6.5t17.5 -25.5t-7.5 -30.5q-59 -89 -73 -167q-4 -23 -5 -44q0 -51 25 -90t67 -56q31 -13 66 -13q12 0 25 2q76 10 134 72.5t89 166.5q20 67 20 126q-1 27 -5 53q-14 81 -66 135q-53 58 -136 76q-35 8 -73 7q-50 0 -104 -14 q-160 -41 -281 -185t-178 -362q-35 -127 -35 -238q0 -26 2 -52q10 -134 74 -238q113 -184 346 -238q112 -26 222 -26q55 0 109 6q164 20 314 98q16 8 31.5 3t23.5 -21t3 -31.5t-21 -23.5q-109 -55 -224.5 -83t-236.5 -28q-125 0 -238 27q-133 31 -233 98q-100 70 -166 176 q-72 119 -85 269z" />
<glyph unicode="D" horiz-adv-x="1458" d="M41 322q-1 22 -1 44q0 107 23 234q14 82 48 182.5t80.5 196.5t101.5 179t115 130v2q-53 106 -123 142q-16 8 -21.5 23t2.5 32q8 16 23.5 21t32.5 -3q90 -43 149 -162q221 180 438 185h8q95 0 179 -43q86 -45 151 -133q127 -162 162 -428q11 -87 11 -175q0 -38 -2 -77 q-7 -127 -40 -244q-66 -242 -225 -346q-63 -41 -124.5 -55.5t-115.5 -14.5q-18 0 -33.5 1t-31.5 3q-61 8 -119.5 32t-105.5 58q-102 76 -103 166q0 16 12.5 28.5t28.5 12.5t28.5 -12t12.5 -29q0 -49 70 -100q80 -61 186 -74q12 -2 24.5 -3t28.5 -1q43 0 98.5 12.5 t108.5 51.5t101.5 107.5t78.5 183.5q31 113 38 233q2 38 2 75q0 79 -10 157q-15 114 -52 214.5t-92 174.5q-111 143 -273 143q-31 0 -72.5 -7t-94 -26.5t-113 -54.5t-125.5 -92q18 -47 30.5 -103.5t22.5 -120.5q17 -116 18 -242q-1 -40 -3 -82q-8 -170 -42 -323 q-43 -186 -114.5 -284.5t-163.5 -98.5q-109 0 -166 107q-41 79 -47 203zM122 335q6 -112 40 -177q33 -63 92 -64q59 0 111.5 86t87.5 234q35 143 41 306q1 35 1 70q0 125 -16 240q-8 49 -17 93t-22 83q-119 -119 -189.5 -281.5t-105.5 -340.5q-24 -115 -24 -213q0 -18 1 -36 z" />
<glyph unicode="E" horiz-adv-x="1161" d="M49 403q0 139 121 244q53 45 123 78q-131 70 -197 170q-58 92 -58 200q0 47 11 97q20 90 84 166q55 63 141 108q78 40 167 54q49 8 96 7q40 0 79 -5q129 -14 211 -88q86 -77 86 -190v-15q-4 -45 -16 -86t-35 -76q-45 -66 -110 -92q-44 -20 -88 -20q-12 -1 -24 1 q-56 6 -97 41q-16 12 -33.5 35t-29 59.5t-14.5 88.5v16q0 46 13 104q9 32 39 32q5 0 10 -1q16 -4 25.5 -18.5t5.5 -30.5q-11 -52 -10 -95q0 -21 2 -41q8 -58 43 -87q26 -21 58 -23h9q28 0 58 13q49 23 78.5 70.5t33.5 113.5v8q-1 55 -25 92q-26 39 -63.5 62.5t-76.5 33 t-60 13.5q-33 4 -66 4q-42 0 -86 -6q-78 -12 -144 -46t-114.5 -89.5t-66.5 -130.5q-10 -41 -10 -79q0 -84 47 -155q68 -102 227 -174q25 10 47.5 16t42.5 11q78 18 153 25q31 3 57 3q37 0 65 -6q47 -8 78.5 -29.5t42.5 -52.5q6 -17 6 -32q0 -29 -21 -54q-41 -48 -133 -48 q-45 0 -102 11q-131 25 -238 68q-94 -33 -168 -94q-92 -78 -92 -181q0 -68 40 -128t118 -103q66 -38 156 -60q79 -19 168 -19h25q103 3 217 34t226 98q16 10 31.5 5t26.5 -19q8 -16 4 -31.5t-19 -25.5q-111 -66 -232.5 -102t-244.5 -40h-33q-104 0 -197 22.5t-169 65.5 q-94 53 -146 129q-53 82 -53 174zM526 719q29 -10 57.5 -16.5t61.5 -12.5q51 -9 84 -9q16 0 28 2q36 7 44 17q2 2 2 5q-4 6 -17.5 16t-40.5 14q-21 4 -50 4q-20 0 -43 -2q-58 -4 -126 -18z" />
<glyph unicode="F" horiz-adv-x="1394" d="M8 1196q20 164 139 236q81 51 209 51q78 0 172 -19q104 -18 205 -52t187 -62l32 -13q12 33 29 60q53 96 135 121q37 10 65.5 10t50 -6t35 -17.5t21.5 -19.5q27 -29 30 -71v-12q0 -36 -15 -73q-23 -49 -74 -82q-53 -35 -125 -35q-16 0 -42 5.5t-56 15.5q-4 -12 -7 -26.5 t-8 -30.5q-20 -104 -29.5 -228.5t-13.5 -253.5q49 -6 99.5 -11t94.5 -5t78.5 7t55.5 24q8 8 15 20t7 41q0 16 12.5 28.5t28.5 12.5t28.5 -12.5t12.5 -28.5q0 -78 -51 -123q-33 -29 -81 -40t-107 -11q-45 0 -94.5 5t-102.5 11q-4 -109 -11 -207t-22 -176q-18 -98 -47 -145 q-27 -43 -56.5 -57.5t-51.5 -14.5q-16 0 -28.5 12.5t-12.5 28.5q-2 16 10 28.5t29 12.5q16 0 28.5 15.5t21.5 39t15 49t10 48.5q14 76 21.5 172t11.5 205q-55 8 -109.5 13t-99.5 5q-92 -4 -112 -39q-10 -23 -37 -22q-12 0 -19 4q-16 8 -21 23.5t5 31.5q14 31 40 47 t53.5 24.5t52 10.5t36.5 2h24q37 0 79 -4l112 -12q6 129 14.5 252.5t30.5 232.5q4 18 8.5 34.5t8.5 33.5l-35 12q-84 29 -182.5 61.5t-196.5 50.5q-88 16 -157 16q-106 0 -167 -38q-86 -51 -100 -176q-4 -16 -17.5 -27.5t-29.5 -7.5q-16 2 -27.5 15.5t-7.5 29.5zM1030 1313 q49 -18 74 -19q33 0 55.5 8.5t36.5 20.5t21.5 23.5t11.5 17.5q8 18 8 37.5t-10 30.5q-13 15 -39 15q-20 0 -47 -9q-49 -12 -90 -80q-4 -10 -10.5 -21.5t-10.5 -23.5z" />
<glyph unicode="G" horiz-adv-x="1308" d="M23 702q10 127 44.5 248t90.5 219q68 117 152.5 179.5t176.5 62.5h2q55 -2 104.5 -25.5t84.5 -70.5q51 -66 64 -158q3 -28 3 -57q0 -67 -20 -142q-4 -16 -18.5 -24t-30.5 -4t-24.5 19.5t-4.5 31.5q16 61 16 115q0 23 -3 44q-9 74 -46 126q-51 61 -127 63q-70 0 -136 -51 t-122 -150q-49 -86 -81.5 -196.5t-43.5 -225.5q-3 -44 -3 -87q0 -71 11 -141q17 -113 68 -202q111 -190 350 -190h5q70 0 129 18.5t108 49t89 68.5t71 77q-4 20 -4 25q-4 12 -5 25t-5 30q-16 72 -33 174t-27 207q-4 54 -4 101q0 176 59 249q41 53 111 53q88 0 137 -84 q33 -53 42 -137q4 -36 4 -76q0 -53 -7 -112q-14 -104 -48 -206t-85 -192q-23 -43 -47 -75l6 -35l23 -113q41 23 87 42.5t93 37.5q9 2 16 2q26 0 37 -27q6 -16 -1 -31.5t-24 -21.5q-106 -39 -194 -88q14 -78 25.5 -160t17.5 -166q5 -68 5 -128q0 -241 -87 -349 q-69 -84 -186 -84q-100 0 -172 66.5t-93 179.5q-7 38 -7 77q0 66 20 135q30 110 102 214q102 145 285 258l-21 107q-47 -51 -100 -88q-145 -104 -317 -105h-5q-141 0 -248.5 58.5t-172.5 173.5q-55 96 -76 221q-15 76 -15 155q0 44 5 90zM653 -580q16 -84 64.5 -131 t120.5 -47q78 0 123 53q70 86 70 300q0 56 -5 120q-6 72 -16.5 144.5t-20.5 142.5q-100 -66 -169.5 -140.5t-110.5 -151.5t-55 -150q-7 -39 -7 -76q0 -33 6 -64zM940 766q8 -98 25.5 -197.5t31.5 -171.5q51 90 81 185.5t40 183.5q6 52 6 98q0 32 -3 62q-7 71 -31 112 q-16 29 -34 36t-32 7q-31 0 -47 -22q-20 -23 -33 -87q-8 -38 -8 -100q0 -46 4 -106z" />
<glyph unicode="H" horiz-adv-x="1460" d="M20 752q-2 16 8.5 29.5t26.5 17.5q117 14 207 49q-6 96 -6 185q0 53 2 103q6 134 55 226q29 55 61 88t62.5 50.5t57 22.5t45.5 5q55 -2 102 -36t74 -91q18 -43 18 -94q0 -25 -4 -52q-6 -41 -21.5 -86t-39.5 -86q-37 -68 -92.5 -125t-122.5 -104q-45 -31 -105 -57l19 -176 l14 -152q59 41 126.5 84t139.5 90q84 53 169 107.5t165 109.5q8 133 27.5 250t46.5 176q53 121 127 176q52 36 102 36q23 0 45 -7q68 -25 92 -105q12 -38 12 -80q0 -45 -14 -94q-23 -78 -89 -157.5t-185 -173.5q-20 -16 -40.5 -32t-43.5 -32q-2 -16 -2 -32.5v-32.5 q-1 -25 -1 -48q0 -164 24 -292q28 -146 81 -228q57 -90 148 -90q16 0 28.5 -12t12.5 -29q0 -16 -12.5 -28.5t-28.5 -12.5q-68 0 -125 35q-53 35 -90 92q-41 61 -64.5 143.5t-36 166t-15.5 163.5t-3 140v6q-70 -47 -141.5 -93.5t-143.5 -91.5q-86 -53 -162.5 -103t-142.5 -97 q4 -53 5 -101v-20q0 -38 -3 -70q-4 -55 -31.5 -97t-70.5 -60q-30 -12 -59 -12l-11 1q-35 2 -61 25q-47 39 -47 107q0 20 4 42q8 47 52 100.5t132 119.5l6 6q-4 47 -9 96t-9 102l-17 152q-96 -35 -202 -47q-16 -2 -29.5 8t-16.5 27zM193 174q-3 -15 -3 -27q0 -30 17 -45 q23 -14 47 -2q47 18 53 88q4 29 4 60t-2 65q-109 -90 -116 -139zM339 1134q-3 -48 -3 -99q0 -72 6 -150q55 29 98 61.5t74 65t50.5 61.5t31.5 49q45 78 52 144q2 20 2 37q0 39 -11 63q-16 35 -44 56.5t-60 23.5h-3q-81 0 -147 -123q-39 -73 -46 -189zM1067 924 q104 80 178 157.5t94 153.5q13 41 13 75q0 28 -9 52q-12 43 -43 51q-8 4 -16 4q-23 0 -53 -20q-20 -16 -47 -48t-56 -98q-16 -41 -33.5 -127t-27.5 -200z" />
<glyph unicode="I" horiz-adv-x="755" d="M42 1143q16 131 67 221q92 164 272 164q174 0 272 -164q39 -68 59.5 -160t20.5 -203q0 -166 -45 -337.5t-123 -311.5q-59 -100 -123 -170q96 -88 204 -88h9q16 2 28.5 -10t12.5 -29q2 -16 -10 -28.5t-29 -14.5h-12q-117 0 -221 80q-10 8 -21.5 15.5t-21.5 17.5l-19 -14 q-129 -98 -276 -99q-16 0 -28.5 12.5t-12.5 28.5t12.5 28.5t28.5 12.5q125 0 238 90q-23 27 -43.5 55.5t-40.5 61.5q-72 117 -121 260.5t-70 292.5q-14 94 -14 179q1 57 7 110zM123 1128q-5 -48 -5 -100q0 -78 11 -164q20 -141 67.5 -276t112.5 -244q18 -29 37 -54.5 t39 -47.5q57 61 109 149q74 131 115.5 293t41.5 317q0 201 -69 322q-72 123 -201 123q-135 0 -201 -121q-45 -77 -57 -197z" />
<glyph unicode="J" horiz-adv-x="1361" d="M20 -350v13q0 154 93 263q106 129 290 135q13 1 25 1q55 0 102 -15q56 -18 99 -52t69.5 -78t36.5 -89q4 -24 4 -47q0 -61 -30 -115q-47 -82 -150 -119q-16 -6 -31.5 1.5t-21.5 23.5t1 31.5t23 21.5q72 25 104 75q23 36 23 77q0 17 -4 35q-6 33 -25.5 64.5t-51 56 t-74.5 37.5q-37 12 -81 12h-13q-82 -4 -140.5 -35t-95.5 -77t-54 -104q-16 -51 -16 -104v-12q2 -76 32 -149.5t88.5 -131t143.5 -92.5t195 -35q240 0 363 148q142 170 142 541q0 27 -1 55q-4 176 -31.5 359t-62.5 364q-20 104 -25 201v43q0 74 12 141q-78 2 -168 13t-194 34 q-91 21 -166 21q-59 0 -108 -13q-86 -20 -132 -82q-31 -46 -31 -104q0 -4 1 -9q2 -63 37 -116q6 -10 19 -24.5t32.5 -27t46.5 -18.5t59 0q16 4 29.5 -6t17.5 -27q4 -16 -5 -29.5t-25 -17.5q-25 -6 -49 -6q-57 0 -108.5 28.5t-86.5 82.5q-45 72 -49 155v7q0 86 45 157 q18 27 53 56.5t93.5 50t142.5 24.5q11 1 23 1q77 0 179 -23q207 -45 363 -45q43 135 133 200q47 33 96 34h3q47 0 81 -30q31 -29 39 -68q2 -12 2 -23q0 -29 -14 -58q-23 -43 -76 -78q-29 -16 -63.5 -27.5t-75.5 -19.5q-14 -4 -28.5 -5t-31.5 -3q0 -2 -2 -4q-13 -68 -13 -143 q0 -106 26 -226v-2q35 -180 62.5 -367.5t31.5 -367.5v-46q0 -78 -5 -148q-7 -89 -24 -165q-41 -182 -131 -291q-147 -178 -426 -178q-78 0 -139.5 14.5t-110.5 37t-86 49t-63 53.5q-66 68 -102.5 155t-39.5 181zM1067 1182q12 4 20 4q86 16 118 42t38 40q10 16 6 29.5 t-12 21.5q-10 10 -29 10q-23 0 -51 -20q-59 -41 -90 -127z" />
<glyph unicode="K" horiz-adv-x="1746" d="M10 553q6 125 49 209q39 76 117 123q68 41 150 54t174 24q53 4 106 11t105 17q4 94 14 172t33 131q25 57 56.5 100.5t66.5 73.5q72 59 143 60q45 0 80 -22.5t53 -63.5q16 -34 16 -75q0 -38 -14 -83q-31 -98 -119 -199q-55 -61 -117.5 -97t-129.5 -58q0 -131 6 -262 q0 -25 1 -48.5t1 -46.5q45 53 93 102.5t95 96.5q92 90 184.5 165t178.5 128q195 125 334 125h4q16 0 28.5 -12.5t12.5 -28.5q-2 -16 -14.5 -28.5t-28.5 -12.5h-2q-53 0 -125 -27.5t-155 -78t-175 -123t-187 -164.5l-28 -31q129 -16 242.5 -75.5t199.5 -157.5 q78 -93 115 -197q26 -74 27 -146q0 -29 -5 -59q-6 -35 -41 -35h-6q-16 4 -27.5 17.5t-7.5 29.5q3 21 3 42q0 62 -22 128q-30 88 -99 166q-86 98 -204 152.5t-251 56.5q-37 -39 -71.5 -79t-65.5 -78q1 -29 1 -56v-27q-1 -40 -3 -79q-6 -102 -25.5 -161.5t-54.5 -88.5 q-29 -25 -68 -25q-10 0 -30 4q-29 6 -44.5 20.5t-23.5 26.5q-13 25 -13 57q0 11 1 23q8 66 57 153t121 181q0 45 -1 92t-3 95q-6 123 -6 243q-51 -10 -102.5 -16t-98.5 -10q-86 -10 -161 -21.5t-132 -46.5q-18 -10 -38.5 -28.5t-39 -48t-32 -76t-15.5 -111.5q-4 -39 -43 -39 q-16 2 -28.5 14.5t-10.5 28.5zM625 133q-4 -25 3 -30t13 -7q12 -4 18.5 -2t10.5 6q10 8 26.5 48.5t22.5 144.5q0 10 1 21.5t1 21.5q-86 -131 -96 -203zM795 1016q51 20 97 49t87 76q78 86 102 166q9 32 9 57.5t-9 44.5q-16 37 -57 37q-39 0 -92 -41t-98 -143 q-20 -41 -28.5 -104.5t-10.5 -141.5z" />
<glyph unicode="L" horiz-adv-x="1673" d="M10 586q12 236 201 317q80 35 178 41t205 10q35 2 71.5 2t71.5 5q0 115 11.5 212t46.5 166q27 51 61.5 87t72.5 58.5t75.5 33t72.5 10.5h9q61 0 108 -26q51 -28 80 -79q24 -44 23 -97q0 -25 -5 -52q-16 -90 -84 -193q-88 -131 -276 -176q-29 -8 -56.5 -12t-56.5 -8 q0 -35 1 -73t1 -75q4 -139 4 -267t-22 -228q4 -4 16 -9q88 -39 185 -75q98 -38 197 -52q41 -6 82 -5q59 -1 115 11q98 20 187 99q12 10 29.5 9t27.5 -15q12 -13 12 -27q0 -16 -16 -31q-100 -86 -219 -112q-53 -15 -109 -17q-12 -1 -24 0q-44 0 -92 7q-111 16 -215.5 56 t-192.5 77l-8 4q-16 -41 -39.5 -71t-56.5 -46q-58 -33 -111 -33h-10q-53 2 -96 39q-39 33 -53 81q-6 21 -5 42q0 26 9 51q35 90 147 90h2q35 0 74 -11t86 -32q4 14 5 28.5t3 31.5q10 88 10 192.5t-4 210.5q0 37 -1 73t-1 71q-35 -4 -70.5 -4.5t-70.5 -2.5q-115 -4 -205 -12 t-154.5 -36.5t-101.5 -86t-43 -155.5q-2 -16 -14 -28.5t-29 -10.5q-16 0 -28.5 13t-10.5 30zM493 153q7 -24 25 -40q23 -19 53 -19q31 0 70 21q37 18 61 80q-43 16 -77.5 27t-59.5 11h-2q-20 0 -40.5 -7t-28.5 -29q-8 -20 -1 -44zM819 969q100 10 184 46t138 113 q59 88 71 158q2 16 2 31q0 37 -14 67q-33 62 -119 62h-2q-51 -2 -110.5 -34t-100.5 -109q-29 -57 -39 -144.5t-10 -189.5z" />
<glyph unicode="M" horiz-adv-x="1990" d="M31 350q0 164 47 363q23 100 55.5 194t73.5 180q10 20 20.5 40t20.5 38q-33 109 -72 183q-31 57 -52.5 70.5t-29.5 15.5q-16 0 -28.5 13t-10.5 30q4 39 43 39q82 -6 150 -130q16 -27 29.5 -59.5t27.5 -69.5q25 37 51.5 69t55.5 60q133 127 278 127q98 0 180 -34 q76 -31 131 -97q37 -43 70 -110q29 37 58.5 68.5t60.5 60.5q134 112 274 112h2h2q195 -4 310 -145q108 -129 151 -371q17 -95 23 -205q4 -68 3 -142q0 -46 -1 -93q-4 -104 -12.5 -198.5t-17.5 -165t-16 -113.5t-7 -47q-2 -16 -13.5 -24.5t-25.5 -8.5h-9q-16 4 -26 17.5 t-6 29.5l7 42t16 112.5t17.5 164t10.5 195.5q1 46 1 90q0 213 -32 371q-39 190 -125 293q-96 115 -250 117q-59 0 -111 -23t-97.5 -59.5t-83 -81.5t-66.5 -88q8 -29 16.5 -59.5t14.5 -65.5q31 -131 47 -254t18 -230v-12q0 -231 -78 -330q-48 -65 -131 -65h-2h-2 q-33 0 -75 19.5t-70 80.5q-39 78 -39 213q0 147 47 324q49 180 131 334q8 14 15.5 27.5t17.5 27.5q-47 127 -126 184.5t-202 57.5q-59 0 -110.5 -25t-96.5 -64.5t-81.5 -89t-65.5 -98.5q4 -14 8 -35q42 -160 62 -342q17 -152 17 -288q0 -26 -1 -52q-6 -182 -47 -297 q-35 -86 -79 -112.5t-79 -26.5h-2q-35 0 -76 21.5t-71 91.5q-37 86 -37 235zM113 350q0 -131 30 -205q20 -47 42 -54t30 -7h2q49 0 80 86q18 47 28.5 115.5t14.5 154.5q1 27 1 55q1 115 -13 244q-16 160 -49 308q-37 -80 -68 -169.5t-52.5 -180.5t-33.5 -179t-12 -168z M889 477q0 -115 31 -176q16 -37 36.5 -46t36.5 -9q41 0 70 35q31 39 46 113q13 65 13 153v24q-2 102 -17 220t-46 247l-10 43q-37 -70 -66 -147.5t-50.5 -156.5t-32.5 -155.5t-11 -144.5z" />
<glyph unicode="N" horiz-adv-x="1372" d="M29 352q0 168 53 365q29 100 66.5 194.5t84.5 180.5q10 20 21.5 39.5t24.5 37.5q-18 55 -39 101.5t-43 81.5q-55 84 -101 84q-16 2 -28.5 14t-10.5 29q4 39 41 39h2q39 -2 74 -25t63.5 -59.5t53 -83.5t45.5 -99q59 82 131 140q152 127 315 127q238 0 381 -175 q109 -135 152 -374q24 -150 24 -326q0 -51 -2 -104q-4 -102 -14 -192.5t-20.5 -158t-18.5 -108.5t-8 -45q-4 -16 -17.5 -25.5t-29.5 -5.5t-26.5 18.5t-6.5 30.5l8 40t18.5 106.5t19.5 155.5t13 190q2 53 2 102q1 197 -31 347q-40 188 -128 298q-113 143 -316 144 q-68 0 -128 -25t-112.5 -64.5t-96.5 -90t-76 -99.5q4 -16 8 -24q47 -159 71 -339q20 -154 20 -292q0 -24 -1 -47q-6 -190 -53 -308q-18 -45 -41 -72.5t-46.5 -43t-47 -21.5t-43.5 -6q-106 0 -164 111q-43 86 -43 237zM111 352q0 -31 4 -76t16 -87t37 -72.5t68 -30.5 q66 0 105.5 98.5t43.5 272.5q1 24 1 49q0 120 -16 253q-20 161 -59 304l-6 -10q-45 -80 -81 -169t-61.5 -181.5t-38.5 -181.5t-13 -169z" />
<glyph unicode="O" horiz-adv-x="1357" d="M23 625q-1 18 -1 36q0 77 14 150q17 90 52 164q41 84 97.5 131t121.5 51q16 2 28.5 -9t14.5 -28q2 -16 -9 -29.5t-28 -15.5q-47 -4 -86 -42t-67 -99q-28 -62 -44 -140q-12 -62 -13 -131q0 -18 1 -36q4 -96 34 -191.5t89.5 -171.5t153.5 -123t227 -47q90 0 161 26.5 t125 67.5t93 92.5t66 100.5q2 8 10 20q-66 27 -126 59t-114 72q-98 72 -165.5 159t-96.5 177q-47 147 -47 282v21q6 156 68 248q63 96 172 107q20 2 41 2q89 0 170 -43q86 -45 151 -144q59 -92 92 -213.5t35 -263.5q0 -11 1 -22q0 -100 -18 -193q-18 -104 -52 -198 q31 -10 62.5 -17.5t61.5 -13.5q16 -4 27.5 -17.5t7.5 -29.5t-17 -26.5t-30 -6.5q-37 6 -73.5 14t-71.5 21l-17 -31q-80 -154 -204 -238q-68 -47 -147 -70.5t-165 -23.5q-143 0 -260 54q-102 47 -182 143q-66 80 -102.5 186.5t-40.5 229.5zM597 1166v-11q0 -57 9 -121 q10 -70 33 -139q25 -78 84 -154.5t147 -142.5q102 -76 226 -121q39 100 55 213q12 82 12 162q0 30 -2 60q-6 108 -34.5 208.5t-77.5 175.5q-102 150 -256 150h-15.5t-17.5 -2q-66 -6 -111 -70q-25 -37 -38 -91.5t-14 -116.5z" />
<glyph unicode="P" horiz-adv-x="1705" d="M29 -418v13q0 157 47 360q49 215 147 440q51 119 112.5 237t133.5 234l2 4q-59 154 -134 274t-163 195q-14 10 -15 27.5t11 30.5q10 14 26.5 15t30.5 -11q162 -137 281 -406l18 -41q154 217 351 338q99 59 199 91q89 28 173 28h21q47 0 89 -11t83 -32q37 -23 69.5 -50.5 t61.5 -64.5q43 -59 70.5 -134t37.5 -161q7 -55 7 -111q0 -134 -39 -276q-63 -240 -193 -393q-113 -133 -252 -172q-45 -12 -88 -12q-36 0 -72 9q-76 20 -131 75q-61 62 -77 154q-6 32 -6 66q0 64 20 134q4 16 19.5 24.5t31.5 2.5q16 -4 24.5 -18.5t4.5 -30.5 q-18 -61 -17 -114q1 -22 3 -43q10 -71 55 -118q39 -41 94 -53q24 -5 49 -5q34 0 70 9q127 35 228 168t157 338q37 138 37 263q0 42 -4 83q-16 162 -95 266q-94 121 -237 125h-11q-79 1 -163 -25q-90 -28 -176 -81q-201 -121 -359 -363q35 -92 60.5 -194.5t46.5 -210.5 q25 -145 34 -289q6 -96 6 -186q0 -46 -2 -90q-4 -134 -24 -251.5t-53 -209.5q-31 -84 -68 -136.5t-77 -82t-78.5 -40t-71.5 -10.5q-80 0 -142.5 36t-101.5 108q-29 53 -45 122.5t-16 155.5zM111 -418q0 -147 51 -239q55 -100 172 -101q43 0 77.5 19.5t61.5 51.5t46.5 69.5 t31.5 74.5q33 88 51.5 200t22.5 240q1 38 1 77q0 92 -6 189q-10 138 -34 277q-31 178 -80 330q-123 -211 -213 -423t-137 -410q-45 -178 -45 -330v-25z" />
<glyph unicode="Q" horiz-adv-x="1705" d="M25 958q10 86 37.5 161t70.5 134q29 37 61.5 65t69.5 50q41 20 83 31.5t89 11.5h21q84 0 173 -27q101 -32 199 -92q197 -121 351 -338l18 41q119 268 281 406q14 12 30.5 11t26.5 -15q12 -12 11 -29.5t-15 -28.5q-88 -76 -163 -195.5t-134 -273.5l2 -4 q72 -117 133.5 -234.5t112.5 -236.5q98 -225 147 -440q47 -203 47 -360v-13q0 -86 -16 -155.5t-45 -122.5q-39 -72 -101.5 -108t-142.5 -36q-35 0 -72.5 10.5t-77.5 40t-77 82t-68 136.5q-35 92 -54 209.5t-23 251.5q-2 42 -2 86q0 93 6 190q10 143 34 289q20 109 46 211 t61 194q-158 242 -359 363q-86 53 -176 81q-84 25 -163 25h-11q-143 -4 -237 -125q-78 -104 -95 -266q-4 -41 -4 -83q0 -125 37 -263q55 -205 156.5 -338t228.5 -168q36 -9 70 -9q25 0 48 5q56 12 95 53q45 47 55 118q4 21 4 43q0 53 -18 114q-4 16 4 30.5t25 18.5 q16 6 31.5 -2t19.5 -25q20 -71 20 -135q0 -34 -6 -66q-16 -92 -77 -153q-53 -55 -130 -74q-36 -10 -74 -10q-42 0 -87 12q-139 39 -252 172q-129 154 -193 393q-39 142 -39 276q0 56 7 111zM1080 -103q5 -128 23.5 -240t51.5 -200q12 -37 31.5 -74.5t46.5 -69.5t61.5 -51.5 t77.5 -19.5q117 0 172 101q51 92 51 239v25q0 152 -45 330q-47 199 -137 410.5t-213 422.5q-49 -152 -80 -330q-25 -139 -35 -277q-7 -92 -7 -180q0 -43 2 -86z" />
<glyph unicode="R" horiz-adv-x="1392" d="M40 324q-2 33 -2 68q0 92 17 198q27 150 82.5 291t132.5 260l2 2q37 49 75 89t73 73q-49 113 -123 145q-14 8 -20.5 23.5t2.5 31.5q8 16 23 21.5t32 -2.5q92 -47 151 -164q113 90 208 124t155 40q30 4 60 4q78 0 147 -27q96 -37 164 -117q74 -86 96 -204q10 -46 10 -94 q0 -77 -25 -162q-31 -104 -83 -182t-113 -132q47 -28 88 -73q172 -172 172 -484q0 -16 -12.5 -28.5t-28.5 -12.5t-28.5 12.5t-12.5 28.5q0 102 -19.5 182t-53 141.5t-79 105.5t-96.5 75q-72 -45 -143.5 -65.5t-126.5 -20.5q-12 0 -23.5 1t-21.5 3q-31 4 -55.5 17.5 t-40.5 29.5q-30 33 -30 75q0 7 1 15q12 57 74 90q42 21 99 21q24 0 50 -4q59 -10 111.5 -26.5t99.5 -39.5q53 41 106.5 112t86.5 181q22 73 22 140q-1 36 -7 71q-18 100 -79 174q-53 67 -132 95q-58 21 -122 21q-22 0 -45 -3q-55 -8 -143 -40t-197 -122q37 -98 55 -231 q17 -117 17 -243q0 -44 -2 -89q-8 -174 -43 -326q-43 -186 -115 -283.5t-164 -97.5q-115 0 -176 115q-41 77 -50 197zM122 338q8 -108 42 -172q35 -72 102 -72q55 0 109 80q53 84 90 238q35 144 43 310q2 41 1 81q0 122 -17 237q-6 51 -16.5 96.5t-22.5 86.5 q-29 -29 -57.5 -61t-57.5 -68q-74 -111 -126 -244t-75 -275q-17 -97 -17 -183q0 -27 2 -54zM676 598q-4 -14 12 -25.5t45 -17.5q13 -2 29 -2q26 0 62 6q56 10 120 41q-70 27 -139 37q-10 2 -20.5 3t-18.5 1q-43 0 -65.5 -13.5t-24.5 -29.5z" />
<glyph unicode="S" horiz-adv-x="1067" d="M31 367q10 86 55 151.5t119 95.5q56 23 114 22q15 0 31 -1q74 -8 129 -53q16 -14 37 -38t35 -58q14 -36 19 -84q1 -14 2 -29q0 -37 -9 -82q-4 -16 -17.5 -25.5t-29.5 -5.5t-26.5 17.5t-6.5 29.5q6 34 6 64q0 32 -7 60q-13 54 -54 87q-39 31 -90 37q-11 1 -22 1 q-40 0 -78 -17q-53 -23 -86 -70t-39 -111q-2 -17 -2 -33q0 -40 11 -72q15 -44 43 -75t63.5 -49t70.5 -29q65 -19 140 -19q15 1 30 1q92 4 180 33q94 29 162 80t102 116q37 72 37 132q0 29 -8 55q-14 41 -51 75.5t-87 65.5t-109.5 58.5t-121.5 54.5q-82 35 -160.5 72.5 t-142.5 84.5q-144 107 -144 250q0 8 1 17q4 92 53 163.5t139 118.5q115 57 252 58q66 -2 126.5 -18.5t107.5 -45.5q59 -40 89 -96q26 -50 26 -107v-16q-4 -78 -44 -137.5t-106 -85.5q-39 -17 -78 -17q-16 1 -30 3q-54 8 -91 42q-12 10 -24 28.5t-19.5 45.5t-6.5 62.5 t18 82.5q11 29 38 29q7 0 15 -2q16 -6 23.5 -21.5t0.5 -31.5q-13 -39 -13 -69q0 -40 24 -64q20 -16 51 -21t61 8q43 18 69 58.5t30 95.5v12q0 82 -78 131q-37 25 -87 38q-49 12 -105 13h-9q-51 1 -101 -11q-54 -12 -102 -38q-25 -12 -49 -30.5t-45.5 -44t-36 -60.5 t-16.5 -78q0 -5 -1 -11q0 -104 111 -185q57 -41 133 -77t154 -71q66 -29 130.5 -58.5t119.5 -63.5q127 -82 164 -181q14 -38 13 -81q0 -78 -46 -169q-35 -68 -94 -119t-132 -85.5t-155 -52t-162 -17.5q-45 0 -87 5t-81 18q-121 35 -184 116q-63 78 -63 188q0 20 2 40z" />
<glyph unicode="T" horiz-adv-x="1341" d="M8 1196q20 164 137 236q83 51 210 51q78 0 173 -19q104 -18 205 -52t187 -62l32 -13q6 16 12.5 31.5t14.5 28.5q55 96 137 121q41 11 71 10q27 0 45 -8q40 -18 56 -35q27 -29 30 -71v-12q0 -36 -15 -73q-27 -51 -74 -82q-53 -35 -125 -35q-18 0 -43 5.5t-57 15.5l-13 -57 q-23 -113 -32 -248t-15 -273q-4 -121 -10 -230.5t-23 -195.5q-18 -92 -49 -145q-25 -43 -54.5 -57.5t-51.5 -14.5h-2q-16 0 -27.5 12.5t-13.5 28.5q0 16 12 28.5t29 12.5q16 0 28.5 15.5t21.5 39t15 49t10 48.5q16 82 22.5 188.5t10.5 224.5q6 139 16.5 276.5t32.5 256.5 q4 18 7.5 34.5t7.5 33.5l-35 12q-84 29 -182.5 61.5t-196.5 50.5q-87 16 -156 16q-106 0 -168 -38q-82 -51 -100 -176q-2 -16 -15.5 -27.5t-29.5 -7.5q-16 2 -27.5 15.5t-7.5 29.5zM1030 1313q49 -18 74 -19q33 0 55.5 8.5t36.5 20.5t21.5 23.5t9.5 17.5q10 18 10 37.5 t-10 30.5q-13 15 -39 15q-20 0 -49 -9q-51 -12 -88 -80q-11 -18 -21 -45z" />
<glyph unicode="U" horiz-adv-x="1372" d="M35 979q4 102 14 192.5t20.5 158t18.5 108.5t8 45q4 16 17.5 25.5t29.5 4.5q16 -4 26.5 -18t6.5 -31l-8 -40t-18.5 -106.5t-19.5 -155.5t-13 -189q-2 -53 -2 -102q-1 -197 31 -347q40 -188 128 -299q113 -143 316 -143q68 0 128 24.5t112.5 64.5t95.5 90t78 99 q-4 16 -9 25q-47 158 -71 338q-20 154 -20 293q0 24 1 47q6 190 53 307q18 45 41 72.5t46.5 43t47 21.5t44.5 6q106 0 163 -110q43 -86 43 -238q0 -168 -53 -364q-29 -100 -66.5 -194.5t-84.5 -180.5q-10 -20 -21.5 -39.5t-23.5 -38.5q18 -55 38.5 -101t43.5 -81 q55 -84 100 -84q16 -2 28.5 -14.5t10.5 -28.5q-4 -39 -41 -39h-2q-39 2 -74 24.5t-63.5 59.5t-53 84t-45.5 98q-59 -82 -131 -139q-152 -127 -315 -127q-238 0 -381 174q-109 135 -152 375q-24 150 -24 326q0 51 2 104zM987 1061q-1 -24 -1 -49q0 -120 16 -253 q20 -161 59 -304l6 10q45 80 81 169t61.5 181t39 181t13.5 169q0 31 -4.5 76t-16.5 87t-36.5 73t-67.5 31q-66 0 -106 -98.5t-44 -272.5z" />
<glyph unicode="V" horiz-adv-x="1359" d="M35 946q2 106 10 203.5t17.5 170.5t16.5 117l7 44q4 16 17.5 26.5t29.5 5.5q16 -4 26.5 -17t6.5 -30l-7 -43t-15.5 -114.5t-16.5 -165.5t-10 -199q-1 -36 -1 -71q0 -229 34 -395q40 -192 124 -292q86 -104 228 -104q106 0 209 104q96 96 178 277q47 102 81 219t54 233 q-72 8 -119 36t-76 55q-72 76 -90 182q-6 31 -6 61q0 18 2 37q6 49 23 92q29 66 78 102t114 36h2q33 0 74 -21.5t70 -91.5q34 -89 34 -230v-8q0 -41 -3 -82t-7 -86q74 6 168 45q16 6 31.5 0t21.5 -22t0 -31.5t-22 -21.5q-59 -25 -112.5 -37t-98.5 -17q-4 -29 -10 -55.5 t-13 -54.5q-23 -100 -53.5 -194.5t-68.5 -180.5q-82 -188 -193 -299q-127 -129 -268 -129q-176 0 -291 133q-53 63 -90 155.5t-58 215.5q-29 161 -29 361q0 40 1 81zM818 1280q-2 -16 -2 -32q0 -21 3 -43q6 -38 22.5 -74.5t47.5 -67.5q55 -57 147 -68q12 88 13 170 q0 125 -26 197t-71 72h-2q-53 0 -79.5 -32t-36.5 -56q-12 -29 -16 -66z" />
<glyph unicode="W" horiz-adv-x="1982" d="M37 936q2 109 9 207t15.5 173t15.5 120l7 45q2 16 15.5 26.5t29.5 5.5q16 -2 27.5 -16t7.5 -31l-6 -44t-14.5 -116.5t-15.5 -169t-9 -202.5q-1 -36 -1 -71q0 -233 35 -399q40 -192 121 -290q78 -92 199 -92q98 0 193 90q61 61 120 158q-10 29 -16 61.5t-12 67.5v8 q-29 135 -43.5 257t-14.5 228v12q0 234 76 330q47 57 117 58q12 0 29.5 -4.5t36 -15.5t36 -30.5t31.5 -52.5q35 -82 35 -213q0 -145 -41 -321q-23 -90 -51.5 -174t-63.5 -160l-31 -59q16 -43 33 -78t39 -62q76 -100 213 -100q96 0 193 102q45 49 87 119t77 158 q45 104 77.5 222t51.5 235q-109 14 -185 90q-39 39 -60.5 87t-27.5 99q-3 26 -3 50.5t3 48.5q6 48 23 87q27 66 75 101t107 35h2q25 0 53.5 -12.5t55 -49.5t43 -106.5t16.5 -182.5q0 -41 -3 -82t-7 -84q80 6 168 43q16 6 31.5 0t21.5 -22t0 -31.5t-23 -21.5 q-111 -45 -209 -52q-20 -125 -54 -250.5t-81 -236.5q-41 -94 -85 -170t-95 -129q-117 -129 -252 -129q-178 0 -278 133q-31 39 -60 100q-45 -68 -98 -118q-115 -115 -250 -115q-158 0 -262 121q-51 61 -88 152.5t-57 213.5q-16 96 -24 208q-6 76 -6 160q0 40 1 81zM782 952 q0 -102 14.5 -225t43.5 -252v-8q4 -16 4 -23q31 70 55.5 146t43 152.5t27.5 151t9 142.5q0 43 -4 84t-15.5 74t-28 54.5t-40.5 21.5q-31 0 -51 -27q-28 -35 -44 -109q-14 -66 -14 -158v-24zM1452 1282q-2 -16 -2 -33q0 -21 3 -42q5 -38 21.5 -74.5t45.5 -67.5 q49 -53 135 -66q4 43 7 85t3 81q0 135 -27 207q-18 45 -35.5 53.5t-23.5 8.5h-2q-47 0 -72.5 -31t-36.5 -53q-12 -31 -16 -68z" />
<glyph unicode="X" horiz-adv-x="1814" d="M27 993q0 182 57 310q53 123 154 182q73 44 159 44h11q92 -3 182 -54q72 -41 132 -110t105 -161q29 -63 47 -121q35 131 95 228q57 90 131 144t160 65q22 3 44 3q99 0 185 -67q106 -84 153 -250q4 -16 -4 -31.5t-24 -19.5t-31.5 4t-19.5 25q-37 132 -116 200 q-67 57 -148 58q-14 0 -29 -2q-66 -10 -125.5 -54.5t-106.5 -117.5q-112 -176 -112 -454q0 -228 44 -389t128 -245q82 -78 190 -78h2q68 0 129.5 28t114.5 71t99 94t81 100q10 14 27 17.5t31 -6.5t17 -27t-7 -31q-41 -55 -92.5 -112.5t-112.5 -105.5t-133 -79t-152 -31h-4 q-145 0 -248 103q-102 102 -151 293l-4 16q-35 -104 -90 -192q-59 -86 -135 -142.5t-162 -77.5q-35 -8 -78 -8q-88 0 -161 46t-114 135q-8 16 -1.5 30.5t20.5 22.5q16 8 31.5 3t23.5 -22q39 -77 107 -111q44 -22 95 -22q28 0 58 6q70 16 134.5 64.5t111.5 122.5 q59 86 89 196.5t30 239.5q0 258 -90 444q-78 162 -205 236q-71 41 -141 43h-7q-66 0 -122 -33q-81 -47 -127 -157q-43 -103 -43 -244v-19q2 -90 33.5 -156.5t86.5 -97.5q35 -20 74 -20t74 22q29 16 51.5 46t38.5 69q34 87 34 200q0 17 -1 36q-2 16 10 29.5t29 13.5 q39 0 43 -39q1 -18 1 -36q0 -133 -40 -235q-45 -106 -123 -153q-52 -33 -114 -34h-4q-59 0 -112 30q-74 39 -116 123q-43 82 -47 202z" />
<glyph unicode="Y" horiz-adv-x="1382" d="M23 915q4 94 12 178.5t17 147t17.5 100t8.5 41.5q4 16 18.5 25.5t30.5 5.5t25.5 -18.5t5.5 -30.5l-8 -37q-7 -37 -16 -98.5t-18.5 -143t-11.5 -174.5q-2 -51 -2 -100q0 -179 29 -315q37 -174 119 -275q106 -133 291 -133q66 0 124 25.5t108 65.5t91 89t72 97 q-18 98 -36.5 220t-29.5 244q-8 92 -8 168t4 138q14 156 70 225q45 55 111 55q100 0 155 -102q41 -86 41 -223q0 -76 -13 -161t-38 -177t-59.5 -181.5t-77.5 -167.5l-33 -55l12 -55l4 -17l31 -143q111 49 240 80q16 4 31.5 -4t19.5 -25q4 -16 -5 -31.5t-26 -19.5 q-66 -16 -127 -35.5t-117 -46.5q12 -68 23.5 -142.5t19.5 -150.5q8 -84 10 -156v-21q0 -60 -8 -111q-16 -150 -77 -228q-68 -82 -179 -82q-115 0 -192.5 80t-93.5 211q-3 27 -3 54q0 83 27 167q37 113 117 211q90 113 229 193l35 20q-10 47 -18 86t-17 74 q-29 -39 -59.5 -71.5t-62.5 -59.5q-141 -119 -295 -119q-223 0 -357 164q-100 125 -141 348q-23 124 -23 281q0 56 3 116zM670 -539q12 -100 67.5 -159.5t136.5 -59.5q72 0 115 51q14 20 29.5 54.5t25 88.5t11.5 131v26q0 69 -8 157q-6 68 -16.5 133.5t-20.5 128.5 q-66 -39 -121 -83t-96 -97q-70 -86 -102 -182q-24 -71 -24 -141q0 -24 3 -48zM944 1042v-29q0 -75 8 -177q8 -92 19.5 -185.5t27.5 -177.5q74 145 118 310t44 307q0 27 -3 68.5t-15.5 79.5t-34.5 66.5t-61 28.5q-27 0 -48 -24q-10 -14 -22 -44t-21.5 -84.5t-11.5 -138.5z " />
<glyph unicode="Z" horiz-adv-x="1366" d="M25 131q-4 31 5 61.5t28.5 57t48 46t67.5 26.5q25 4 61.5 -5.5t94.5 -31.5q57 88 116.5 199.5t124.5 234.5q70 133 139.5 263t141.5 241l45 65q-72 27 -155 54q-82 28 -164 44q-73 15 -139 15h-16q-73 -2 -126 -33q-84 -53 -98 -180q-4 -16 -17.5 -27.5t-29.5 -9.5 q-16 4 -26.5 17.5t-8.5 29.5q20 168 137 240q77 46 190 46q74 0 164 -20q90 -18 177 -49t163 -59q106 135 197 162q33 10 59.5 10t46 -6t32.5 -15.5t22 -17.5q27 -31 31 -74q1 -6 0 -13q0 -37 -17 -75q-23 -47 -68 -80q-51 -33 -116 -33q-25 0 -62 10.5t-96 32.5 q-29 -35 -55 -79q-70 -106 -139.5 -235.5t-139.5 -260.5q-61 -121 -120.5 -230.5t-114.5 -199.5q2 -2 4 -2t6 -2q63 -27 135 -55.5t147 -52.5q74 -22 147 -36q53 -10 103 -10q18 0 36 1q66 5 121.5 32t92.5 84q10 16 26.5 19t30.5 -7t18.5 -25.5t-5.5 -31.5 q-70 -104 -189 -137q-61 -17 -127 -17q-25 0 -52.5 2t-55.5 6q-121 18 -240 63.5t-219 88.5q-8 4 -14 6t-13 4q-117 -162 -204 -164q-59 0 -93 33q-33 29 -38 80zM106 139q2 -39 48 -39q14 0 44.5 21.5t84.5 93.5q-8 4 -15.5 5t-13.5 5q-31 10 -44 13.5t-17 3.5h-5 q-47 -10 -66.5 -43t-15.5 -60zM1028 1327q35 -14 63.5 -22.5t43.5 -8.5q37 0 65.5 17.5t42.5 48.5q10 20 10 40.5t-10 31.5q-14 14 -36.5 12t-39.5 -6q-57 -19 -139 -113z" />
<glyph unicode="[" horiz-adv-x="765" d="M96 -350v1698q0 16 12.5 28.5t28.5 12.5h559q18 0 29.5 -12.5t11.5 -28.5t-11 -28.5t-30 -12.5h-518v-1616h547q16 0 28.5 -12.5t12.5 -28.5q0 -18 -12.5 -29.5t-28.5 -11.5h-588q-16 0 -28.5 11t-12.5 30z" />
<glyph unicode="\" horiz-adv-x="1411" d="M59 958q0 90 52.5 162t138.5 101q18 72 76 127q57 55 133 69q37 68 103.5 108t144.5 40t145.5 -40t103.5 -108q76 -14 134 -69q57 -57 75 -127q39 -14 72 -38t57 -53q62 -78 62 -172q0 -74 -39 -136t-103 -99l-100 -696q-4 -27 -31 -27h-790q-27 0 -31 27l-100 721 q-47 39 -75 93t-28 117zM141 958q0 -41 16.5 -76.5t45 -62t66.5 -42t81 -15.5q41 0 77 14.5t65 38.5q27 25 55 0q29 -25 64.5 -39t76.5 -14q94 0 156 65q12 12 28 13q18 0 31 -13q29 -31 71 -48t87 -17q43 0 82 15.5t68.5 42t46 62.5t16.5 76q0 66 -43 119t-111 72 q-25 8 -28 33q-12 61 -58.5 105t-109.5 54q-20 0 -31 23q-25 53 -76 86t-110 33t-109.5 -33t-75.5 -86q-12 -23 -33 -23q-61 -10 -107 -54t-58 -105q-4 -25 -29 -33q-68 -16 -111 -69.5t-43 -121.5zM229 707l90 -646h101l-78 619q-63 4 -113 27zM383 682l78 -621h219 l-18 621q-78 6 -142 51q-59 -41 -137 -51zM702 680l19 -619h199l77 627q-35 6 -65.5 20.5t-57.5 34.5q-76 -57 -172 -63zM963 61h94l92 633q-41 -14 -88 -14q-16 0 -23 2z" />
<glyph unicode="]" horiz-adv-x="768" d="M0 -350q0 16 12.5 28.5t28.5 12.5h547v1616h-518q-18 0 -29.5 12t-11.5 29q0 16 11 28.5t30 12.5h559q16 0 28.5 -12.5t12.5 -28.5v-1698q0 -18 -12.5 -29.5t-28.5 -11.5h-588q-16 0 -28.5 11t-12.5 30z" />
<glyph unicode="^" horiz-adv-x="917" d="M44 798.5q-3 16.5 7 30.5l363 514q10 16 32 17q20 0 33 -17l393 -512q9 -10 9 -24q0 -20 -17 -33q-14 -10 -30.5 -8t-26.5 14l-358 469l-330 -467q-10 -14 -26.5 -17t-31.5 7q-14 10 -17 26.5z" />
<glyph unicode="_" horiz-adv-x="780" d="M98 -386q0 15 10.5 28.5t32.5 13.5h498q20 0 31.5 -13.5t11.5 -28.5t-11.5 -27.5t-31.5 -12.5h-498q-23 0 -33 12.5t-10 27.5z" />
<glyph unicode="`" horiz-adv-x="313" d="M32 1329q3 17 14 27t27.5 10t30.5 -16l164 -164q14 -16 11 -32.5t-14 -27t-27.5 -10.5t-30.5 17l-164 163q-14 16 -11 33z" />
<glyph unicode="a" horiz-adv-x="747" d="M33 391q4 72 24.5 139.5t51.5 120.5q80 139 192 140q72 0 117 -58q31 -39 39 -94q3 -18 3 -37q0 -38 -11 -78q-4 -16 -19.5 -25.5t-32.5 -4.5q-16 4 -24 19t-4 32q8 32 8 60q0 9 -1 17q-3 36 -22 60q-20 27 -53 27q-23 0 -41 -10.5t-33.5 -26t-27 -31.5t-19.5 -31 q-25 -43 -42 -101q-17 -59 -23 -119q-2 -24 -3 -48q0 -36 6 -70q9 -58 36 -104q53 -94 172 -94q66 0 111.5 29.5t78.5 66.5q-20 59 -30.5 125.5t-10.5 132.5q0 94 21 147q18 53 46.5 67.5t47.5 14.5q61 0 94 -61q23 -49 23 -119q0 -76 -25 -158.5t-66 -148.5q-4 -4 -8 -12 q39 -84 78 -84q16 0 28.5 -12.5t12.5 -28.5t-12.5 -28.5t-28.5 -12.5q-29 0 -64.5 18.5t-70.5 77.5q-23 -23 -53 -43q-78 -53 -170 -53h-2q-166 0 -244 135q-29 51 -42 119q-9 46 -9 97q0 23 2 48zM557 428q0 -84 18 -164q23 51 36.5 106.5t13.5 106.5q0 43 -9.5 70.5 t-25.5 27.5q-8 0 -19 -26q-8 -23 -11 -53.5t-3 -67.5z" />
<glyph unicode="b" horiz-adv-x="917" d="M31 37q0 16 13 27.5t30 11.5q20 -2 38.5 7t35 24.5t31 34t26.5 36.5q18 31 43 78q-39 63 -68 137q-35 80 -62.5 169t-46 182.5t-28.5 186.5t-10 179q0 90 11 165t34 130q35 84 82 110.5t88 26.5q35 0 80 -21.5t84 -88.5q51 -98 67 -279q4 -53 4 -112q0 -29 -1 -59 q-3 -91 -13 -189q-10 -96 -28.5 -188.5t-43.5 -178.5q-12 -45 -26.5 -86t-30.5 -78q49 -74 114.5 -130t149.5 -56q119 0 174 94q27 44 35 104q5 37 5 74q0 22 -2 46q-5 60 -22.5 117.5t-41.5 100.5q-8 14 -20.5 30.5t-28 32t-35 26t-39.5 10.5q-31 0 -51 -27 q-24 -30 -24 -76q0 -28 9 -63q4 -16 -5 -30.5t-26 -18.5q-16 -4 -30.5 4t-18.5 24q-11 41 -11 78q0 20 3 38q8 54 37 93q23 29 52.5 44.5t64.5 15.5q113 0 192 -140q33 -53 52.5 -120.5t25.5 -139.5q2 -25 2 -48q0 -51 -9 -97q-13 -66 -42 -119q-78 -135 -246 -135 q-133 0 -250 119q-29 29 -53 65l-27 -45q-90 -139 -194 -139h-12q-16 2 -27.5 14t-9.5 29zM115 1110q0 -84 9 -172t27.5 -177t44 -174t58.5 -161q8 -16 16.5 -34.5t18.5 -37.5q35 94 59.5 209t38.5 238q10 94 13 181q1 29 1 57q0 56 -4 108q-12 158 -57 246q-29 51 -56.5 59 t-35.5 8q-6 0 -16.5 -1t-23.5 -9t-27.5 -26.5t-26.5 -51.5q-18 -47 -28.5 -113.5t-10.5 -148.5z" />
<glyph unicode="c" horiz-adv-x="741" d="M29 279q-2 21 -2 43q0 70 20 145q37 133 113 219q68 76 153 98q27 7 54 7q25 0 49 -6q50 -13 84 -48q48 -52 48 -125q0 -38 -13 -82q-4 -16 -19.5 -23t-32.5 -3q-16 4 -23 19.5t-3 31.5q9 31 9 57q0 43 -26 68q-28 29 -72 29q-17 0 -36 -4q-66 -16 -121 -85t-86 -176 q-17 -59 -17 -114q0 -18 2 -36q8 -72 42 -124q55 -82 161 -94q16 -2 34 -2q23 0 48 3q45 5 91 23.5t88 49t73 79.5q10 14 25.5 18.5t32.5 -5.5q14 -10 18 -26.5t-6 -31.5q-74 -113 -203 -161q-47 -18 -90 -24.5t-76 -6.5q-14 0 -24.5 1t-18.5 1q-143 16 -221 129 q-23 35 -37 74t-18 82z" />
<glyph unicode="d" horiz-adv-x="917" d="M18 393q6 72 25.5 139.5t52.5 120.5q80 139 193 140q35 0 64.5 -15.5t52.5 -44.5q29 -39 37 -93q3 -17 3 -35q0 -38 -12 -81q-4 -16 -18.5 -24t-30.5 -4t-25.5 18t-5.5 31q10 35 10 64q0 45 -24 75q-20 27 -51 27q-23 0 -41.5 -10.5t-33.5 -26t-27.5 -31.5t-20.5 -31 q-25 -43 -42 -100q-18 -58 -23 -118q-2 -22 -2 -44q-1 -38 5 -76q8 -60 35 -104q55 -94 174 -94q84 0 149.5 56t115.5 130q-16 37 -31 78t-27 86q-25 86 -43 178t-28 189q-9 98 -13 189q-1 34 -2 66q0 55 4 105q16 180 68 279q39 68 84 89t80 21q39 0 87 -26.5t83 -110.5 q23 -55 34 -130t11 -165q0 -86 -10.5 -179t-29 -186.5t-46 -182.5t-62.5 -169q-29 -74 -67 -137q25 -47 43 -78q12 -18 26.5 -36.5t30.5 -34t34.5 -24.5t39.5 -7q16 0 29.5 -11.5t13.5 -27.5q2 -16 -9.5 -28.5t-27.5 -14.5h-12q-104 0 -195 139l-27 45q-25 -37 -53 -65 q-117 -119 -250 -119q-168 0 -245 135q-28 53 -42 119q-9 46 -10 98q0 23 2 47zM517 982q3 -87 13 -181q14 -123 39 -237.5t60 -209.5q10 18 18 37t17 35q33 76 58.5 161t43.5 174t27.5 177t9.5 172q0 82 -10.5 148.5t-28.5 113.5q-12 33 -26.5 51.5t-28 26.5t-23.5 9t-16 1 q-4 0 -14.5 -1t-22.5 -7t-26.5 -20.5t-28.5 -38.5q-45 -88 -58 -246q-4 -52 -4 -108q0 -28 1 -57z" />
<glyph unicode="e" horiz-adv-x="792" d="M25 203q4 16 18 24.5t31 3.5q4 0 8 -1t8 -1q-4 12 -6 24.5t-4 25.5q-2 21 -2 43q0 70 20 145q37 133 115 217q68 74 156 92q22 4 43 4q29 0 56 -8q46 -14 77 -49q59 -74 59 -167t-59 -187q-37 -57 -91.5 -104.5t-119.5 -78.5q-29 -14 -56.5 -23t-56.5 -16q53 -61 144 -71 q17 -2 36 -2q23 0 48 3q45 5 90 23.5t87 49t72 79.5q10 14 26.5 18.5t31.5 -5.5q14 -10 18 -26.5t-6 -31.5q-74 -113 -203 -161q-47 -18 -90 -24.5t-76 -6.5q-12 0 -23 1t-20 1q-143 16 -219 129l-12 18q-39 4 -72 13q-16 4 -24.5 18t-3.5 31zM176 225q92 10 173 63.5 t126 125.5q10 16 23.5 44.5t19.5 63.5q3 18 3 36t-3 37q-6 38 -37 75q-24 28 -69 28h-13.5t-13.5 -2q-23 -4 -51.5 -19t-61.5 -50q-63 -70 -96 -183q-18 -62 -18 -116.5t18 -102.5z" />
<glyph unicode="f" horiz-adv-x="735" d="M40 -352q21 139 81 278q33 72 71.5 138.5t83.5 119.5q23 29 46.5 52.5t50.5 46.5l-23 137q-14 96 -28.5 188t-24.5 180q-47 -18 -98.5 -31.5t-106.5 -21.5q-16 -4 -29.5 7.5t-15.5 27.5q-4 16 7.5 29.5t27.5 15.5q115 18 205 59q-15 144 -15 265v22q2 129 39 213 q25 55 52.5 89t55 51.5t52.5 23.5t43 6q53 -2 100.5 -36.5t71.5 -94.5q17 -40 17 -92q0 -29 -5 -63q-16 -91 -67 -183q-72 -123 -199 -213q-14 -10 -27.5 -18t-29.5 -17q10 -96 25.5 -195.5t31.5 -199.5l14 -94l56 31q16 8 31.5 2t23.5 -23q6 -16 1 -30.5t-21 -22.5 q-20 -10 -39 -21.5t-37 -25.5q18 -125 32.5 -244t18.5 -227q3 -53 3 -100q0 -110 -17 -190q-23 -114 -76 -177q-69 -82 -186 -82q-80 0 -130 53q-45 45 -63 127q-12 54 -12 118q0 57 9 122zM123 -362q-11 -62 -11 -115t11 -96q12 -61 43 -89q28 -28 67 -28h3q80 0 122 53 q74 84 74 327q0 39 -2 83q-4 94 -15.5 197t-27.5 214l-24.5 -24.5t-22.5 -26.5q-84 -102 -143 -237q-27 -63 -45.5 -129t-28.5 -129zM355 1163q-1 -21 -1 -42q0 -94 11 -206q78 49 125 104.5t69 96.5q47 86 57 158q5 27 5 50q0 36 -11 58q-33 76 -96 80h-2 q-35 0 -67.5 -31.5t-57.5 -89.5q-29 -68 -32 -178z" />
<glyph unicode="g" horiz-adv-x="823" d="M20 399q6 72 26 139.5t52 123.5q39 66 88.5 102.5t104.5 36.5q70 0 117 -60q31 -39 38 -93q2 -16 2 -32q0 -40 -12 -84q-4 -16 -18.5 -24t-30.5 -4q-31 8 -31 34q0 7 2 15q9 33 9 60q0 47 -25 79q-20 27 -51 27q-23 0 -41.5 -10.5t-33.5 -25.5t-27.5 -31.5t-20.5 -30.5 q-25 -45 -42 -102.5t-22 -118.5q-3 -23 -3 -47q0 -36 5 -73q9 -59 35 -104q55 -92 172 -92h2q66 0 114 30.5t81 69.5q-18 55 -28.5 119t-12.5 125q-1 12 -1 24q0 38 5 82q6 58 35 93q25 39 72 39q61 0 92 -62q24 -41 24 -113v-6q0 -76 -24.5 -158.5t-67.5 -148.5l-4 -8 l21 -68q61 33 133 50q16 4 30.5 -5.5t18.5 -25.5t-5.5 -30.5t-25.5 -18.5q-35 -8 -67.5 -21.5t-61.5 -30.5q27 -104 42 -198t22 -180q3 -41 3 -78q0 -19 -1 -36q-2 -54 -11 -99q-18 -98 -65 -152q-47 -53 -119 -53q-23 0 -43 6q-94 20 -147.5 98t-55.5 197q0 94 32 191.5 t91 183.5q61 88 152 155l4 2q-2 10 -4 18.5t-6 18.5q-10 -10 -23.5 -20.5t-26.5 -20.5q-78 -51 -172 -51h-2q-164 0 -241 133q-31 51 -44 119q-9 52 -9 108q0 18 1 37zM350 -475q0 -20 5 -53t19.5 -66t41 -59.5t71.5 -36.5q14 -3 27 -3q36 0 57 25q33 35 47 114 q10 51 10 116q0 36 -3 76q-11 151 -56 335q-53 -43 -94 -96t-68.5 -112.5t-42 -121t-14.5 -118.5zM550 452q1 -83 17 -169q23 49 35 102t12 100q0 43 -9 71t-25 28h-2l-3 -2q-4 -4 -6 -9q-19 -37 -19 -114v-7z" />
<glyph unicode="h" horiz-adv-x="864" d="M16 770q-4 16 7.5 29.5t27.5 17.5q53 6 98.5 18.5t83.5 28.5q-2 43 -4 85t-2 83q0 227 56 344q27 55 55.5 88t56 50.5t52 22.5t42.5 5q53 -2 97.5 -35.5t68.5 -93.5q18 -41 18 -94q1 -29 -5 -61q-14 -92 -68 -183q-72 -123 -199 -213q-18 -14 -38.5 -26.5t-43.5 -22.5 l11 -117l24 23q86 74 183 74q129 0 204 -95q94 -117 94 -362q0 -26 -1 -53q-4 -104 -16.5 -178t-13.5 -78q-4 -16 -15 -24.5t-25 -8.5h-8q-16 4 -25.5 18.5t-5.5 30.5l6 34t13 87q6 52 9 118q1 23 1 47q0 43 -4 87q-6 68 -21.5 128t-50.5 103q-51 63 -141 64 q-57 0 -106.5 -36t-90.5 -93q10 -86 15 -165t5 -147q0 -182 -55 -239q-35 -37 -84 -37q-12 0 -29.5 5t-35 21.5t-28.5 50t-11 89.5q0 86 29.5 192.5t78.5 198.5l31 53v10l-16 166q-80 -33 -179 -45q-16 -4 -29.5 7.5t-15.5 27.5zM199 160q0 -33 3 -49.5t7 -24.5t7 -9t5 -1 q14 0 25 10q10 12 21.5 52t11.5 132q0 41 -2.5 87.5t-6.5 97.5q-35 -78 -53 -157t-18 -138zM313 903q88 51 139.5 109.5t75.5 103.5q48 86 58 158q4 27 4 49q0 37 -10 59q-14 35 -39 56.5t-54 21.5h-2q-72 0 -129 -121q-35 -75 -42 -189q-4 -62 -4 -128q0 -58 3 -119z" />
<glyph unicode="i" horiz-adv-x="219" d="M4 33q0 16 12.5 28.5t28.5 12.5q2 0 4 2q4 4 12.5 26.5t12.5 85.5q3 31 3 66q0 18 -1 36q-2 56 -4 113q-2 72 -2 130q0 57 2 103q4 90 41 130q25 25 57 25q16 0 28.5 -12.5t12.5 -28.5t-11.5 -27.5t-27.5 -13.5q-4 -4 -10 -22.5t-10 -72.5q-1 -30 -1 -64v-35 q1 -54 3 -109q3 -84 4 -151q0 -55 -3 -99q-5 -96 -46 -138q-31 -26 -64 -26q-16 0 -28.5 12t-12.5 29zM109 983q0 16 12 28.5t29 12.5q16 0 28 -12.5t12 -28.5t-12 -28.5t-28 -12.5t-28.5 12.5t-12.5 28.5z" />
<glyph unicode="j" horiz-adv-x="684" d="M8 -575v15q0 86 43 191q23 53 55.5 108.5t73.5 106.5q100 129 230 213v62q-2 74 -6.5 143.5t-8.5 134.5q-20 -68 -50 -131t-77 -110q-86 -86 -205 -86q-16 0 -28 12t-12 29q0 16 12 28.5t28 12.5q86 0 146 61q57 57 88 147.5t45 176.5t16 147.5t2 63.5q0 37 39 41 q16 2 28.5 -8.5t14.5 -26.5q0 -2 6.5 -55.5t15.5 -140.5t16 -200.5t12 -236.5v-19q35 16 67.5 27.5t67.5 20.5q16 4 30.5 -5.5t18.5 -25.5q1 -5 1 -10q0 -30 -32 -39q-76 -18 -151 -60q0 -111 -6.5 -205t-16.5 -174q-37 -256 -135 -352q-55 -55 -133 -55h-16.5t-18.5 2 q-74 12 -115 63.5t-45 133.5zM90 -573q2 -102 92 -117q11 -2 22 -2q43 0 77 33q78 74 108 303q10 68 15.5 145.5t5.5 169.5q-92 -70 -166 -164t-116 -193q-38 -89 -38 -161v-14zM342 983q0 16 12.5 28.5t28.5 12.5t28.5 -12.5t12.5 -28.5t-12.5 -28.5t-28.5 -12.5 t-28.5 12.5t-12.5 28.5z" />
<glyph unicode="k" horiz-adv-x="942" d="M16 768q-4 16 7.5 30.5t27.5 16.5q47 6 89 17.5t79 25.5q-1 40 -1 78q0 111 8 211q12 135 57 227q27 55 56.5 89t57 51.5t52 22.5t43.5 5q53 -2 97 -35.5t66 -93.5q18 -43 18 -96q1 -29 -5 -60q-14 -90 -68 -182q-72 -127 -199 -213q-45 -33 -100 -57l6 -143v-35 q39 45 88 79.5t100.5 55t101.5 26.5q21 3 41 3q28 0 54 -5q74 -16 117 -67q47 -57 47 -146q0 -141 -82 -247l-20 -25q37 -25 61 -45q109 -92 109 -223q0 -16 -12.5 -28.5t-28.5 -12.5t-28.5 12t-12.5 29q0 72 -44 125t-110 84q-25 -16 -47.5 -27.5t-40.5 -21.5 q-61 -25 -129 -30q-8 -1 -16 -1q-57 0 -88 33q-23 23 -23 51q0 17 8 35q8 20 31 43.5t72 33.5q32 8 68 8t77 -8q20 -4 38.5 -9t35.5 -11q41 35 70.5 92t29.5 143q0 111 -98 134q-17 3 -35 3q-29 0 -61 -8q-54 -12 -107 -43q-53 -33 -95 -76.5t-65 -97.5v-39q0 -134 -12 -238 q-14 -120 -65 -175q-42 -41 -97 -41q-16 0 -28.5 12t-12.5 29q0 16 12.5 28.5t28.5 12.5q20 0 37 16q41 41 51 205q2 41 3 86v30q0 30 -1 62q-4 12 0 25q0 39 -1 78.5t-3 82.5q-2 29 -3 56.5t-1 56.5q-74 -27 -160 -39q-16 -2 -29.5 8.5t-15.5 26.5zM301 895 q92 51 146.5 112.5t80.5 108.5q48 86 58 158q4 27 4 49q0 37 -10 59q-29 74 -93 78h-2q-35 0 -67.5 -31.5t-61.5 -89.5q-37 -75 -47 -193q-8 -98 -8 -207v-44zM428 250q10 -6 50 -4t95 26q4 0 13 4q-38 7 -68 7q-22 0 -40 -4q-42 -9 -50 -29z" />
<glyph unicode="l" horiz-adv-x="225" d="M8 35q0 14 9.5 25.5t23.5 13.5q4 4 9 19.5t11 49.5q4 31 7.5 73t7.5 97q3 82 3 178v49q-1 126 -3 253q-4 172 -4 300t5 215t16 139t34 75q12 12 24.5 16t22.5 4q16 0 28.5 -12t12.5 -29q0 -16 -9 -26.5t-22 -14.5q-2 -4 -6 -15t-8 -36t-8 -65.5t-6 -102.5q-3 -75 -3 -165 v-46q1 -117 5 -235q2 -129 3 -254v-49q0 -97 -3 -181q-4 -131 -18.5 -199.5t-41.5 -97.5q-14 -14 -26.5 -17t-22.5 -3q-16 0 -28.5 12t-12.5 29z" />
<glyph unicode="m" horiz-adv-x="1212" d="M33 182q0 88 27.5 189.5t74.5 189.5l19 33q-23 59 -41.5 83.5t-28.5 27.5q-16 0 -27.5 13t-11.5 30q4 38 41 38h2q70 -2 123 -114q101 114 217 114h2q121 0 188 -71q16 -18 33 -39q103 110 224 110h2q129 0 204 -94q96 -117 96 -373q0 -22 -1 -45q-2 -51 -7.5 -97 t-10.5 -80t-9 -55.5t-5 -23.5q-4 -14 -15 -22t-25 -8h-8q-16 4 -25.5 18t-5.5 31l6 33q6 34 13 88q6 52 9 118q1 23 1 47q0 43 -4 87q-6 68 -21.5 128t-50.5 103q-51 63 -141 64q-59 0 -107.5 -35t-81.5 -76q4 -12 7 -24.5t7 -26.5h3q16 -66 26 -127.5t12 -114.5v-19 q0 -110 -43 -165q-37 -47 -96 -47q-66 0 -100 59q-25 43 -25 117q0 80 29 171t76 171l12 18q-47 98 -166 99q-59 0 -106.5 -39t-79.5 -84q2 -2 2 -4q23 -80 36 -172q11 -80 11 -151v-22q-2 -80 -17.5 -129t-36 -74.5t-43 -33.5t-40.5 -8q-68 0 -99 65q-24 47 -24 123v6z M115 182q0 -41 9 -76.5t32 -35.5q18 0 32 32q20 49 23 134v24q1 44 -5 94q-8 64 -20 125q-35 -72 -53 -151.5t-18 -145.5zM561 246q0 -10 1 -26.5t6 -32t13.5 -25.5t22.5 -10q18 0 31 14q9 10 19 40q9 25 8 74v19q-4 95 -31 201q-33 -61 -51.5 -129t-18.5 -125z" />
<glyph unicode="n" horiz-adv-x="761" d="M31 190q0 88 27.5 189.5t74.5 189.5l19 33q-23 61 -41.5 86t-28.5 25q-16 0 -27.5 13t-11.5 30q2 16 13.5 27.5t27.5 11.5h2q70 -2 123 -115q102 115 217 115q129 0 207 -95q93 -116 93 -358q0 -28 -1 -57q-2 -53 -7 -98.5t-10.5 -80t-9.5 -55t-4 -22.5q-4 -16 -17 -26.5 t-30 -6.5q-34 9 -34 39q0 5 1 10l6 34q7 34 13 87q6 52 10 118q2 29 2 59q0 37 -3 75q-5 68 -22.5 128t-50.5 103q-51 63 -143 64q-59 0 -105.5 -39t-78.5 -84q0 -2 1 -2t1 -2q23 -78 36 -171q10 -71 10 -135q0 -20 -1 -38q-2 -80 -16.5 -129.5t-35 -75t-43 -33.5t-40.5 -8 q-66 0 -101 65q-22 49 -22 123v6zM113 190q0 -41 9 -76.5t32 -35.5q4 0 13 4t19 29q20 51 21 133q1 14 1 28q0 42 -5 90q-6 64 -19 125q-35 -72 -53 -151.5t-18 -145.5z" />
<glyph unicode="o" horiz-adv-x="739" d="M20 322v19q0 94 35 167q45 96 125 102q16 2 29.5 -9t15.5 -28q2 -16 -9 -29.5t-28 -15.5q-33 -2 -59 -55q-27 -58 -27 -129v-18q0 -23 8.5 -64t32 -82t68.5 -71.5t123 -30.5t125 40t73 83q-55 25 -104 61q-106 76 -137 178q-25 70 -25 139v19q4 84 37 133q39 57 100 64 q11 1 22 1q49 0 91 -22q52 -26 88 -80q33 -47 49.5 -112.5t18.5 -139.5q0 -100 -29 -192q10 -4 19.5 -5t19.5 -3q16 -4 26.5 -17.5t8.5 -29.5q-4 -16 -18.5 -26.5t-30.5 -8.5q-14 4 -28.5 7t-29.5 7q-47 -86 -117.5 -132t-158.5 -46q-154 0 -238 106q-70 88 -76 220z M347 590v-5q0 -58 22 -120q10 -37 38.5 -72t69.5 -65q39 -29 88 -52q15 46 21 98q4 35 4 70q0 16 -1 31q-3 49 -16.5 94t-35.5 78q-41 66 -111 66h-14q-23 -2 -41 -27q-23 -36 -24 -96z" />
<glyph unicode="p" horiz-adv-x="999" d="M43 -516q-2 30 -2 62q0 124 25 274q29 186 87 356t136 301q-33 84 -69 145.5t-77 96.5q-14 10 -15 27.5t9 29.5q12 14 28.5 15.5t31.5 -11.5q82 -70 147 -221q80 104 178 166q70 43 128 55q49 11 84 11h11q109 -4 177 -93q25 -35 41 -76.5t20 -91.5q3 -29 3 -59 q0 -75 -21 -156q-33 -131 -107 -217q-63 -80 -145 -98q-23 -8 -51 -8q-76 0 -123 51q-37 37 -47 91q-3 19 -3 40q0 36 11 76q4 16 19.5 24.5t31.5 4.5t24.5 -19.5t4.5 -32.5q-9 -32 -9 -58q0 -8 1 -15q3 -33 26 -54q24 -27 60 -27q16 0 34 5q63 16 114.5 84.5t80.5 173.5 q19 74 19 139q0 20 -2 39q-7 82 -48 135q-43 59 -113 60h-5q-73 0 -168 -51q-99 -54 -189 -191q57 -158 88 -352q18 -111 27 -217q6 -87 6 -167v-38q-4 -215 -53 -350q-20 -57 -47 -93t-55 -56.5t-54 -28t-51 -7.5q-33 0 -72 17.5t-72 76.5q-47 84 -55 232zM125 -500 q6 -141 45 -207q18 -35 37.5 -44t34.5 -9q82 0 131 131q20 59 32.5 139t14.5 176v42q0 76 -5 158q-7 106 -26 214q-12 74 -28.5 143t-34.5 130q-61 -119 -108.5 -264.5t-72.5 -301.5q-14 -86 -19 -163q-3 -44 -3 -83q0 -32 2 -61z" />
<glyph unicode="q" horiz-adv-x="999" d="M16 530q4 49 20.5 91.5t41.5 76.5q68 88 176 93h11q36 0 85 -11q58 -12 127 -55q98 -61 178 -166q66 152 148 221q14 12 30.5 11.5t28.5 -15.5q10 -12 9 -29.5t-15 -27.5q-41 -35 -77 -96.5t-68 -145.5q78 -131 136 -301t87 -356q24 -148 24 -270q0 -34 -2 -66 q-8 -148 -55 -232q-33 -59 -71.5 -76.5t-71.5 -17.5q-25 0 -52.5 7.5t-55 28t-53.5 56t-46 93.5q-49 135 -53 350v40q0 79 6 165q8 106 26 217q31 195 88 352q-90 137 -189 191q-95 51 -168 51h-5q-70 0 -113 -60q-41 -53 -48 -135q-2 -18 -2 -37q0 -66 20 -141 q29 -104 80 -173t114 -85q17 -5 33 -5q36 0 61 27q23 20 27 53q1 8 1 17q0 26 -9 57q-4 16 4 31.5t25 20.5q16 4 31.5 -4.5t19.5 -24.5q10 -39 10 -75q0 -21 -3 -41q-9 -54 -46 -91q-47 -51 -123 -51q-29 0 -51 8q-82 18 -146 98q-74 86 -106 217q-22 81 -22 157q0 30 3 58z M580 -314q2 -96 13 -175.5t34 -139.5q49 -131 131 -131q14 0 33.5 9.5t37.5 43.5q39 66 45 207q2 29 2 61q0 39 -3 83q-5 77 -19 163q-25 156 -72 301.5t-108 264.5q-18 -61 -34.5 -130t-29.5 -143q-18 -109 -25 -214q-5 -82 -5 -158v-42z" />
<glyph unicode="r" horiz-adv-x="675" d="M31 186q0 90 28.5 191.5t75.5 189.5l19 31q-23 61 -42.5 86t-27.5 25q-16 2 -28.5 14t-10.5 29q0 16 13.5 28.5t29.5 10.5q72 -4 121 -115q98 115 219 115q80 0 141 -37q55 -35 90 -97q10 -14 6.5 -30.5t-20.5 -24.5q-16 -10 -31.5 -5t-23.5 19q-55 92 -162 93 q-59 0 -106.5 -38t-77.5 -85v-2q25 -80 37 -174q10 -80 10 -149v-23q-2 -80 -17.5 -128.5t-35 -75t-42 -34.5t-40.5 -8q-68 0 -101 65q-24 47 -24 123v6zM113 186q0 -39 9 -75.5t34 -36.5q18 0 30 35q20 49 23 131v24q1 46 -5 96q-8 64 -20 123q-33 -72 -52 -150.5 t-19 -146.5z" />
<glyph unicode="s" horiz-adv-x="741" d="M20 199q0 90 82 135q47 26 103 26h13q63 -4 110 -36q76 -51 77 -139q0 -11 -2 -23q-2 -16 -15 -27.5t-30 -9.5q-16 2 -27.5 15.5t-8.5 29.5q1 7 1 13q0 47 -40 71q-29 20 -70 22q-5 0 -10 1q-35 0 -62 -15q-39 -23 -39 -63q0 -29 14.5 -48.5t36 -33t46 -21.5t45.5 -12 q50 -9 106 -9h12q62 1 119 17q55 14 94 37t50 49t11 47q0 14 -5 25q-10 25 -36 45t-59.5 38.5t-73.5 35t-79 32.5q-47 18 -92 36t-80 40q-92 57 -96 131v8q0 75 75 125q66 45 154 50q12 1 24 0q79 0 134 -35q80 -51 86 -152q2 -16 -9.5 -28.5t-27.5 -14.5t-29.5 9.5 t-15.5 27.5q-4 59 -47 88q-38 25 -93 25h-16q-70 -6 -114 -37q-14 -10 -27.5 -24.5t-11.5 -37.5q0 -18 19.5 -36.5t50 -36t69.5 -32.5t76 -30q47 -18 93 -37.5t86 -43t69.5 -51.5t46.5 -62q11 -29 11 -59q0 -38 -18 -77q-41 -94 -198 -135q-74 -18 -158 -18q-31 0 -59.5 3 t-57.5 7q-98 20 -152.5 71.5t-54.5 123.5z" />
<glyph unicode="t" horiz-adv-x="985" d="M10 1110q-2 16 9.5 29.5t27.5 15.5l227 16q14 162 66 261q39 68 84 89t80 21q20 0 45.5 -7t51.5 -26.5t50.5 -53.5t44.5 -87q12 -35 22.5 -75t16.5 -87l197 15q16 2 28.5 -10.5t14.5 -28.5t-9.5 -28.5t-27.5 -14.5l-193 -15q2 -29 3.5 -59.5t1.5 -63.5q0 -174 -32 -347 t-89 -312q-18 -47 -40 -87t-44 -75q0 -2 2 -2q12 -18 26.5 -36.5t31 -34t34.5 -24.5t39 -7q39 0 43 -39q2 -16 -10.5 -29.5t-28.5 -13.5q-2 0 -4 -1t-6 -1q-96 0 -180 121l-15 -17q-106 -102 -227 -102q-16 0 -28.5 12t-12.5 29q0 16 12 28.5t29 12.5q90 0 168 78l15 15 t13 17q-27 49 -49 109.5t-43 130.5q-25 86 -43 178t-28 189q-11 79 -15 153q-2 39 -2 77q0 34 2 67l-215 -17h-2q-16 0 -27.5 10.5t-13.5 26.5zM350 1096q-1 -25 -1 -50q1 -44 3 -92q4 -74 13 -153q16 -154 52 -294t83 -243q14 25 27.5 52.5t25.5 58.5q53 131 84 296t31 330 q0 31 -1 60t-3 57zM356 1178l297 22q-6 41 -14 76t-18 63q-16 41 -44 81t-73 40q-10 0 -37 -8t-55 -59q-39 -76 -56 -215z" />
<glyph unicode="u" horiz-adv-x="761" d="M37 502q2 51 7 97t10 81t9.5 55.5t4.5 22.5q4 16 17 26.5t30 6.5q33 -8 33 -39q0 -5 -1 -11q0 -2 -6 -34.5t-12 -86.5q-6 -52 -10 -118q-2 -29 -2 -59q0 -37 3 -75q5 -68 22.5 -128t50.5 -103q51 -63 143 -63q59 0 105 39t79 84q0 2 -1 2t-1 2q-23 78 -36 171 q-10 71 -10 135q0 20 1 38q2 80 16.5 129t35 74.5t43 34t40.5 8.5q66 0 101 -66q22 -49 22 -123v-6q0 -88 -27.5 -189.5t-74.5 -189.5l-19 -33q23 -61 41.5 -85.5t28.5 -24.5q16 0 27.5 -13.5t11.5 -29.5q-2 -16 -13.5 -27.5t-27.5 -11.5h-2q-70 2 -123 114 q-49 -55 -103.5 -84.5t-113.5 -29.5q-129 0 -207 94q-93 116 -93 358q0 28 1 58zM555 543q0 -14 -1 -28q0 -43 5 -91q6 -64 19 -125q35 72 53 151.5t18 145.5q0 41 -9 77t-32 36q-4 0 -13 -4.5t-20 -28.5q-20 -51 -20 -133z" />
<glyph unicode="v" horiz-adv-x="878" d="M37 498q4 104 16.5 178t14.5 78q4 16 18 25t31 5q16 -4 25.5 -18t4.5 -31q0 -2 -6 -34.5t-12 -86.5q-6 -52 -9 -118q-1 -28 -1 -57q0 -37 2 -75q4 -66 21.5 -128t50.5 -103q51 -63 143 -63q39 0 73.5 18t62.5 46t49.5 59.5t35.5 56.5q25 45 43 95t31 101q-76 12 -123 66 q-35 39 -45 90q-3 17 -3 34q0 33 13 64q18 41 53 63.5t82 22.5q66 0 101 -67q24 -45 24 -121v-6q0 -16 -1 -31.5t-3 -32.5q18 4 37.5 8.5t42.5 12.5q16 6 30.5 -2t20.5 -25q4 -16 -3 -30.5t-23 -20.5q-31 -10 -61 -16t-58 -11q-12 -59 -35 -119.5t-51 -113.5 q-59 -111 -135 -167t-158 -56q-131 0 -207 94q-93 116 -93 358q0 28 1 58zM542 619q3 -29 25 -52q31 -33 80 -39q2 16 3 31.5t1 32.5q0 39 -10 76t-33 37q-29 0 -42 -12.5t-17 -24.5q-10 -20 -7 -49z" />
<glyph unicode="w" horiz-adv-x="1343" d="M39 498q4 104 16.5 178t12.5 78q4 16 18 25t31 5q16 -4 26.5 -18t6.5 -31q0 -2 -6 -34.5t-14 -86.5q-7 -52 -10 -118q-1 -25 -1 -50q0 -40 3 -82q5 -66 21.5 -128t51.5 -103q51 -63 141 -63q59 0 107.5 32.5t78.5 73.5q-8 25 -14 55q0 2 -1 3.5t-1 3.5q-35 129 -35 233 v21q0 113 41 163q37 49 96 50h2q61 0 99 -60q24 -45 24 -113v-6q0 -78 -28.5 -170t-75.5 -170q-4 -6 -7.5 -11t-7.5 -9q47 -96 170 -96q39 0 74 18t62.5 46t49 59.5t36.5 56.5q51 94 75 199q-86 16 -133 69q-35 39 -42 88q-2 12 -2 24q0 36 16 70q18 41 54 63.5t83 22.5 q66 0 100 -67q25 -47 25 -127q0 -16 -1 -30.5t-3 -31.5q41 4 90 19q16 4 30.5 -3t20.5 -24q4 -16 -4 -31.5t-25 -19.5q-68 -20 -127 -25q-12 -61 -34.5 -121.5t-51.5 -113.5q-59 -111 -135 -167t-158 -56q-121 0 -190 69q-10 10 -18.5 19.5t-14.5 19.5q-101 -108 -223 -108 h-2q-129 0 -205 94q-93 114 -93 358q0 28 1 58zM553 473q0 -90 31 -201q31 61 49 129t18 125q0 10 -1 26.5t-6 32t-13.5 27t-22.5 11.5q-18 0 -30 -17q-8 -10 -18 -40q-8 -21 -8 -60q0 -15 1 -33zM993 666q-7 -18 -7 -35q0 -32 24 -60q33 -35 86 -41q2 16 3 30.5t1 31.5 q0 39 -10 76t-33 37q-29 0 -43.5 -14.5t-20.5 -24.5z" />
<glyph unicode="x" horiz-adv-x="954" d="M28 123.5q5 15.5 19 26.5q16 8 31.5 4t23.5 -21q33 -58 99 -58q23 0 49 7q35 10 69.5 33.5t61.5 60.5t43 86t16 113q0 49 -8 97t-22 91q-31 88 -80 125q-30 23 -66 23q-15 0 -31 -4t-31.5 5t-19.5 25t4.5 30.5t24.5 18.5q28 8 55 7q61 0 115 -39q70 -53 106 -166l7 -19 l6 19q37 113 106 166q54 40 115 39q27 0 55 -7q16 -4 24.5 -18t4.5 -31q-4 -16 -19.5 -25.5t-31.5 -4.5q-16 4 -31 4q-35 0 -66 -23q-49 -37 -79 -125q-14 -43 -22.5 -91t-8.5 -97q0 -119 57 -205q47 -68 117 -88q21 -5 39 -5q59 0 92 56q8 16 23.5 20.5t31.5 -3.5 q14 -10 19.5 -25.5t-4.5 -32.5q-27 -47 -70 -72.5t-94 -25.5q-14 0 -27.5 2t-30.5 6q-98 25 -163 123q-14 20 -25.5 41.5t-19.5 44.5q-20 -49 -48 -86q-70 -96 -174 -121q-36 -10 -65 -10q-37 0 -70 12q-68 23 -102 86q-10 16 -5 31.5z" />
<glyph unicode="y" horiz-adv-x="849" d="M25 502q2 51 7 97t10 81t9 55.5t4 22.5q4 16 17.5 26.5t29.5 6.5q34 -9 34 -40q0 -5 -1 -10q0 -2 -6 -34.5t-12 -86t-11 -118.5q-2 -30 -2 -60q0 -36 4 -74q5 -67 21 -127.5t51 -103.5q51 -63 144 -63q61 0 109 43t81 90q-14 59 -24.5 122.5t-16.5 123.5q-4 48 -4 90 q0 52 6 93q10 73 39 112q31 43 82 43q66 0 100 -66q23 -51 23 -129q0 -88 -27.5 -189.5t-75.5 -189.5q-6 -8 -14 -24q4 -14 7 -26.5t7 -25.5l17 -47q66 39 143 58q16 4 30.5 -5.5t18.5 -25.5t-5 -30.5t-25 -18.5q-72 -18 -140 -60q66 -244 78 -438q3 -41 3 -78q0 -19 -1 -38 q-2 -54 -12 -99q-18 -100 -66 -150q-48 -55 -120 -55q-23 0 -43 6q-94 20 -147.5 103.5t-53.5 212.5v12q0 96 29 196q32 105 92 197q31 47 67.5 89t79.5 75q-4 16 -9 31.5t-11 32.5q-98 -117 -217 -117q-129 0 -207 94q-93 116 -93 358q0 28 1 58zM375 -522q0 -25 4 -60.5 t18.5 -71.5t41 -66t71.5 -40q14 -3 27 -3q36 0 59 26q35 37 48 115q9 54 9 124q0 32 -2 68q-10 174 -65 389q-51 -47 -91 -105.5t-67 -121t-40 -128t-13 -126.5zM555 461q6 -72 18 -142q31 68 47.5 142t16.5 135q0 41 -9 77t-32 36q-4 0 -8 -1t-8 -10q-18 -25 -24 -88 q-4 -33 -4 -72q0 -36 3 -77z" />
<glyph unicode="z" horiz-adv-x="854" d="M23 78q-1 5 -1 10q0 34 25 64q31 35 78 41q16 4 35.5 -1.5t50.5 -15.5q31 43 64.5 95.5t68.5 111.5q41 66 83 132.5t83 121.5l6 8q-41 12 -86 23.5t-88 17.5q-32 4 -62 4h-19q-38 -2 -62 -18q-35 -18 -41 -70q-4 -16 -17.5 -27.5t-29.5 -7.5q-16 2 -26.5 16.5t-8.5 30.5 q12 88 80 127q49 31 129 31q41 0 90 -8q53 -8 103 -22.5t95 -28.5q57 61 115 78q25 7 44 7q20 0 34 -8q27 -14 35 -24q21 -25 21 -53q0 -21 -11 -43q-12 -27 -43 -49.5t-82 -22.5q-27 0 -86 20l-25 -30q-41 -53 -80.5 -117.5t-80.5 -130.5q-35 -57 -65 -104.5t-58 -88.5 q53 -18 115.5 -37.5t121.5 -27.5q25 -3 46 -3q98 0 139 52q10 14 26.5 16.5t30.5 -8.5q14 -10 16 -27.5t-8 -31.5q-63 -82 -196 -82h-33t-33 4q-72 10 -141.5 31.5t-128.5 44.5q-2 0 -3 1t-3 1q-33 -39 -63 -59.5t-60 -20.5q-43 0 -66 20q-25 23 -28 58zM104 84q0 -2 2 -2h9 q2 0 11 4t28 23q-6 2 -17 2q-16 -2 -22 -7.5t-9 -9.5q-2 -4 -2 -8v-2zM664 684q20 -4 22 -4q23 0 33 8t14 12q6 6 6 13q-4 0 -10 1t-18 -3q-24 -7 -47 -27z" />
<glyph unicode="{" horiz-adv-x="518" d="M55 389q2 37 23.5 65.5t48.5 57.5q23 25 41 47.5t27.5 49t6.5 58t-28 72.5q-74 129 -74 260q0 121 58 218q47 80 119.5 127t146.5 45q16 0 28.5 -12.5t12.5 -28.5t-12.5 -28.5t-28.5 -12.5h-2q-53 0 -106.5 -36t-88.5 -95q-51 -88 -46 -190.5t65 -205.5q35 -61 39 -110 t-10.5 -89t-40 -70t-48.5 -54q-16 -20 -31.5 -38t-17.5 -32q0 -2 4 -8t17 -19l55 -38q45 -31 61 -52q43 -66 17 -172q-12 -41 -30.5 -85t-41.5 -87q-29 -66 -52.5 -125t-12.5 -100q6 -23 28 -33q25 -14 64 -17t79 1t75.5 11t56.5 13q16 4 31.5 -3t19.5 -23t-3 -31.5 t-24 -19.5q-2 0 -37.5 -9.5t-85.5 -15.5q-47 -6 -82 -6q-86 0 -135 29q-51 27 -67 84q-16 61 10.5 131.5t60.5 148.5q18 37 36 75t28 72.5t10 64.5t-14 52q-4 4 -15.5 12.5t-21.5 16.5q-41 29 -78 60.5t-35 74.5z" />
<glyph unicode="|" horiz-adv-x="1409" d="M59 958q0 90 51.5 161t137.5 102q23 76 76 127q31 31 71 49q-6 68 19 133q2 12 18 12q12 2 19 -10q10 -16 21 -31.5t24 -30.5q41 45 95 70t116 25q78 0 144.5 -40t104.5 -108q78 -16 134 -71q53 -51 75 -127q76 -25 127 -91q62 -74 62 -170q0 -76 -38 -138t-102 -99 l-102 -694q-4 -27 -31 -27h-790q-25 0 -29 27l-100 721q-47 39 -75 93t-28 117zM141 958q0 -41 16.5 -76.5t44 -62t65.5 -42t81 -15.5q84 0 144 53q10 10 26.5 10t26.5 -10q59 -53 143 -53q43 0 84 17.5t70 47.5q12 12 30 13q16 0 29 -13q31 -31 72 -48t86 -17t84 15.5 t67.5 42t45 62.5t16.5 76q0 66 -42 119t-110 72q-27 6 -30 31q-10 63 -56.5 107t-109.5 52q-23 4 -33 25q-25 53 -75 86t-109 33q-90 0 -150 -66l25 -18q29 -23 55.5 -45.5t44.5 -50.5q14 18 53 16q35 -4 53.5 -33t18.5 -64.5t-19.5 -68.5t-58.5 -45q-37 -10 -67.5 -3 t-53.5 28q-8 -27 -27.5 -53.5t-48.5 -37.5q-45 -14 -79.5 -0.5t-56 40t-25.5 60.5t14 58q12 16 29.5 20.5t31.5 0.5q-20 43 -36 90q-33 -23 -56.5 -55.5t-29.5 -73.5q-6 -27 -31 -33q-68 -16 -110 -70.5t-42 -120.5zM229 705l88 -644h101l-76 619q-59 2 -113 25zM383 682 l76 -621h219l-16 621q-76 6 -144 51q-59 -41 -135 -51zM434 1411q6 2 11.5 3t11.5 3q4 6 6 11.5t6 11.5q-8 8 -14.5 15.5t-14.5 17.5q-6 -29 -6 -62zM449 1329q12 -43 36 -92q6 8 18.5 13t35.5 1q4 0 16 -3t16 -5q2 12 11 23q12 16 28.5 20t32.5 2q-16 23 -37.5 40.5 t-48.5 37.5l-25 18q-6 -10 -10 -20q-10 -20 -33 -25l-20 -4t-20 -6zM702 680l17 -619h201l75 625q-63 14 -123 57q-74 -57 -170 -63zM961 61h94l92 631q-41 -12 -88 -12q-14 0 -23 2z" />
<glyph unicode="}" horiz-adv-x="518" d="M10 -350q4 16 19.5 23.5t31.5 2.5q20 -6 56.5 -13t76 -11t78.5 -1t64 17q23 10 29 33q10 41 -13.5 100.5t-52.5 124.5q-23 43 -41 87t-31 85q-27 106 17 172q10 12 24.5 23.5t36.5 28.5l55 38q12 12 16.5 18.5t4.5 8.5q-2 14 -17.5 31.5t-31.5 38.5q-23 25 -48.5 54.5 t-40 69.5t-10 89t38.5 110q59 102 64.5 204.5t-45.5 191.5q-35 59 -88 95t-107 36h-2q-16 0 -28.5 12t-12.5 29q0 16 12.5 28.5t28.5 12.5q74 2 146.5 -45.5t119.5 -126.5q57 -96 58 -218q0 -131 -74 -260q-25 -41 -29 -72.5t5.5 -58t29 -49t41.5 -47.5q27 -29 48.5 -57.5 t23.5 -65.5q2 -43 -35 -74.5t-78 -60.5q-10 -8 -21.5 -16.5t-15.5 -12.5q-14 -23 -14 -52.5t10 -64t27.5 -72.5t36.5 -75q35 -78 61.5 -148.5t9.5 -131.5q-16 -57 -67 -84q-49 -29 -135 -29q-37 0 -82 6q-49 6 -85 15.5t-38 9.5q-16 4 -23.5 19t-3.5 32z" />
<glyph unicode="~" horiz-adv-x="1296" d="M76 389q23 168 135 229q158 84 457 -57l16 -8q37 -16 92 -42t115 -42q133 -37 194 2q57 37 58 154q0 16 12 28.5t29 12.5q16 0 28.5 -12.5t12.5 -28.5q0 -162 -97 -224q-53 -33 -124 -32q-47 0 -97.5 12t-97.5 28.5t-88 36t-72 33.5l-16 6q-82 39 -144.5 57.5 t-108.5 23.5t-78 -2t-52 -17q-78 -43 -92 -168q-2 -16 -13.5 -26.5t-27.5 -10.5q-2 0 -4 2q-16 2 -27.5 15.5t-9.5 29.5z" />
<glyph unicode="&#xa1;" horiz-adv-x="235" d="M63 981q0 16 12.5 28.5t28.5 12.5t28.5 -12.5t12.5 -28.5t-12 -28.5t-29 -12.5q-16 0 -28.5 12.5t-12.5 28.5zM68 -373v1129q0 20 12 31.5t27.5 11.5t29 -11.5t13.5 -31.5v-1129q0 -23 -13.5 -33t-29 -10t-27.5 10t-12 33z" />
<glyph unicode="&#xa3;" horiz-adv-x="1226" d="M74 687q0 15 10 28.5t33 13.5h538q20 0 31.5 -13.5t11.5 -28.5t-11 -27.5t-32 -12.5h-538q-23 0 -33 12.5t-10 27.5zM82 141q0 84 82 131q51 31 127 31q-10 47 -21.5 96.5t-25.5 102.5q-25 98 -48.5 202.5t-31.5 208.5q-18 248 78 398q78 123 210 172t312 22 q63 -10 120.5 -25.5t100.5 -30.5t69.5 -27.5t28.5 -14.5q16 -8 21.5 -23.5t-2.5 -29.5q-8 -16 -23.5 -21.5t-29.5 2.5q-2 0 -27 11.5t-64.5 25.5t-94 29.5t-113.5 23.5q-309 43 -439 -157q-41 -66 -58 -152t-7 -196q8 -98 31.5 -201t46.5 -197q16 -59 28.5 -116.5 t22.5 -108.5q74 -14 154.5 -44t160.5 -63q78 -33 150.5 -58.5t132.5 -35.5q70 -10 97.5 9.5t37.5 46.5q8 16 23.5 22t31.5 0t22.5 -21.5t-1.5 -31.5q-27 -68 -92 -96q-49 -20 -131 -9q-66 10 -143 37t-159 62q-66 29 -134 53.5t-130 40.5q-4 0 -6 1t-4 1q0 -29 -2 -53.5 t-8 -46.5q-18 -61 -68 -88q-37 -23 -82 -23q-39 0 -69 18q-35 18 -54.5 51t-19.5 72zM164 141q0 -33 31 -53q10 -6 28.5 -7t40.5 13q25 14 33 47t4 80h-6q-55 0 -90 -20q-41 -23 -41 -60z" />
<glyph unicode="&#xa8;" horiz-adv-x="440" d="M86 1192q0 16 12.5 28.5t28.5 12.5t28.5 -12.5t12.5 -28.5t-12.5 -28.5t-28.5 -12.5t-28.5 12.5t-12.5 28.5zM270 1192q0 16 12.5 28.5t28.5 12.5t28.5 -12.5t12.5 -28.5t-12 -28.5t-29 -12.5q-16 0 -28.5 12.5t-12.5 28.5z" />
<glyph unicode="&#xad;" horiz-adv-x="653" d="M96 547.5q0 15.5 10.5 29t32.5 13.5h375q20 0 31.5 -13.5t11.5 -29t-11 -27.5t-32 -12h-375q-23 0 -33 12t-10 27.5z" />
<glyph unicode="&#xaf;" horiz-adv-x="600" d="M94 1266.5q0 15.5 10.5 29t32.5 13.5h326q20 0 31.5 -13.5t11.5 -29t-11.5 -27.5t-31.5 -12h-326q-23 0 -33 12t-10 27.5z" />
<glyph unicode="&#xb4;" horiz-adv-x="313" d="M34 1153q-3 16 11 33l164 164q14 16 30.5 16t28 -10t14.5 -26.5t-12 -33.5l-164 -163q-14 -16 -30.5 -16.5t-27.5 10t-14 26.5z" />
<glyph unicode="&#xb8;" horiz-adv-x="468" d="M45 -442q4 16 17.5 26t29.5 8q86 -14 149.5 5.5t92.5 66.5q16 27 15 55.5t-17 51.5q-23 31 -67 40t-103 -6q-20 -6 -37 11q-16 16 -12 37l55 237q4 16 18.5 25.5t30.5 5.5t25.5 -18.5t5.5 -30.5l-41 -176q51 4 88 -9q66 -18 102 -67q33 -41 34 -95.5t-28 -103.5 q-41 -66 -120 -96q-29 -10 -59.5 -15.5t-65.5 -5.5q-39 0 -78 7q-16 4 -26.5 17t-8.5 30z" />
<glyph unicode="&#xbf;" horiz-adv-x="933" d="M20 -115q-4 98 50 219q121 264 499 594q11 11 27 11q18 0 31 -15q12 -12 11 -29.5t-15 -27.5q-365 -315 -478 -565q-88 -195 0 -299q43 -49 122 -72t179 -12q106 10 213 56t195 118q14 10 30.5 9t26.5 -15q10 -12 9.5 -29.5t-13.5 -28.5q-104 -86 -223 -133 q-57 -25 -114.5 -39t-116.5 -20q-121 -12 -217.5 17.5t-151.5 94.5q-61 74 -64 166zM584 979q0 16 12 28.5t29 12.5q16 0 28.5 -12.5t12.5 -28.5t-12.5 -28.5t-28.5 -12.5t-28.5 12.5t-12.5 28.5z" />
<glyph unicode="&#xc0;" d="M39 772q10 145 50 281.5t99 242.5q61 104 136 166q84 66 176 66q106 0 178 -90q55 -70 69.5 -172.5t-14.5 -221.5q-4 -16 -18.5 -24t-30.5 -4t-25.5 18.5t-5.5 30.5q25 98 13.5 183t-52.5 138q-47 59 -114 60q-63 0 -125 -49t-115 -142q-57 -98 -93 -226t-46 -263 q-10 -145 11.5 -268t74.5 -215q111 -188 334 -189h4q68 0 124 19.5t104 50.5t87 71.5t70 83.5q-37 115 -58.5 252.5t-21.5 272.5q0 170 35 278q29 86 68.5 113t72.5 27q92 0 143 -103q39 -88 39 -217q0 -74 -11 -151.5t-31.5 -154.5t-51.5 -150.5t-67 -137.5l-25 -41 q39 -102 86 -157.5t94 -55.5q18 0 29.5 -12t11.5 -29q0 -16 -11 -28.5t-30 -12.5q-70 0 -130 55.5t-107 161.5q-57 -70 -125 -118q-139 -98 -295 -99h-4q-133 0 -236.5 58.5t-169.5 171.5q-57 100 -81.5 236t-14.5 294zM405 1841q3 17 14 27t27.5 10t30.5 -16l164 -164 q14 -16 11 -32.5t-14 -27t-27.5 -10.5t-30.5 17l-164 163q-14 16 -11 33zM932 844q0 -109 14.5 -221.5t40.5 -210.5q66 119 102.5 259t36.5 269q0 41 -5 84t-17 78t-31.5 56.5t-46.5 21.5q-23 0 -39 -30t-24 -52q-31 -92 -31 -254z" />
<glyph unicode="&#xc1;" d="M39 772q10 145 50 281.5t99 242.5q61 104 136 166q84 66 176 66q106 0 178 -90q55 -70 69.5 -172.5t-14.5 -221.5q-4 -16 -18.5 -24t-30.5 -4t-25.5 18.5t-5.5 30.5q25 98 13.5 183t-52.5 138q-47 59 -114 60q-63 0 -125 -49t-115 -142q-57 -98 -93 -226t-46 -263 q-10 -145 11.5 -268t74.5 -215q111 -188 334 -189h4q68 0 124 19.5t104 50.5t87 71.5t70 83.5q-37 115 -58.5 252.5t-21.5 272.5q0 170 35 278q29 86 68.5 113t72.5 27q92 0 143 -103q39 -88 39 -217q0 -74 -11 -151.5t-31.5 -154.5t-51.5 -150.5t-67 -137.5l-25 -41 q39 -102 86 -157.5t94 -55.5q18 0 29.5 -12t11.5 -29q0 -16 -11 -28.5t-30 -12.5q-70 0 -130 55.5t-107 161.5q-57 -70 -125 -118q-139 -98 -295 -99h-4q-133 0 -236.5 58.5t-169.5 171.5q-57 100 -81.5 236t-14.5 294zM445.5 1665q-3.5 16 11.5 33l164 164q14 16 30.5 16 t27.5 -10t14 -26.5t-11 -33.5l-164 -163q-14 -16 -30.5 -16.5t-27.5 10t-14.5 26.5zM932 844q0 -109 14.5 -221.5t40.5 -210.5q66 119 102.5 259t36.5 269q0 41 -5 84t-17 78t-31.5 56.5t-46.5 21.5q-23 0 -39 -30t-24 -52q-31 -92 -31 -254z" />
<glyph unicode="&#xc2;" d="M39 772q10 145 50 281.5t99 242.5q61 104 136 166q84 66 176 66q106 0 178 -90q55 -70 69.5 -172.5t-14.5 -221.5q-4 -16 -18.5 -24t-30.5 -4t-25.5 18.5t-5.5 30.5q25 98 13.5 183t-52.5 138q-47 59 -114 60q-63 0 -125 -49t-115 -142q-57 -98 -93 -226t-46 -263 q-10 -145 11.5 -268t74.5 -215q111 -188 334 -189h4q68 0 124 19.5t104 50.5t87 71.5t70 83.5q-37 115 -58.5 252.5t-21.5 272.5q0 170 35 278q29 86 68.5 113t72.5 27q92 0 143 -103q39 -88 39 -217q0 -74 -11 -151.5t-31.5 -154.5t-51.5 -150.5t-67 -137.5l-25 -41 q39 -102 86 -157.5t94 -55.5q18 0 29.5 -12t11.5 -29q0 -16 -11 -28.5t-30 -12.5q-70 0 -130 55.5t-107 161.5q-57 -70 -125 -118q-139 -98 -295 -99h-4q-133 0 -236.5 58.5t-169.5 171.5q-57 100 -81.5 236t-14.5 294zM463 1656.5q-4 16.5 8 33.5l121 168q10 16 30.5 24 t45.5 -24l123 -168q12 -16 8 -33t-16.5 -26t-29 -8t-28.5 17l-94 132l-94 -132q-12 -16 -28.5 -17t-29 8t-16.5 25.5zM932 844q0 -109 14.5 -221.5t40.5 -210.5q66 119 102.5 259t36.5 269q0 41 -5 84t-17 78t-31.5 56.5t-46.5 21.5q-23 0 -39 -30t-24 -52q-31 -92 -31 -254 z" />
<glyph unicode="&#xc3;" d="M39 772q10 145 50 281.5t99 242.5q61 104 136 166q84 66 176 66q106 0 178 -90q55 -70 69.5 -172.5t-14.5 -221.5q-4 -16 -18.5 -24t-30.5 -4t-25.5 18.5t-5.5 30.5q25 98 13.5 183t-52.5 138q-47 59 -114 60q-63 0 -125 -49t-115 -142q-57 -98 -93 -226t-46 -263 q-10 -145 11.5 -268t74.5 -215q111 -188 334 -189h4q68 0 124 19.5t104 50.5t87 71.5t70 83.5q-37 115 -58.5 252.5t-21.5 272.5q0 170 35 278q29 86 68.5 113t72.5 27q92 0 143 -103q39 -88 39 -217q0 -74 -11 -151.5t-31.5 -154.5t-51.5 -150.5t-67 -137.5l-25 -41 q39 -102 86 -157.5t94 -55.5q18 0 29.5 -12t11.5 -29q0 -16 -11 -28.5t-30 -12.5q-70 0 -130 55.5t-107 161.5q-57 -70 -125 -118q-139 -98 -295 -99h-4q-133 0 -236.5 58.5t-169.5 171.5q-57 100 -81.5 236t-14.5 294zM350 1688q-2 43 7.5 94t50.5 76q47 27 105 -2t124 -70 q29 -16 56.5 -33.5t51.5 -28.5q29 -12 41.5 -13t16.5 3q4 2 14 20.5t12 77.5q4 39 43 39q16 0 28.5 -12t10.5 -29q-2 -133 -69 -170q-24 -12 -49 -12q-47 0 -97.5 27.5t-101.5 60.5q-29 18 -54.5 33.5t-47.5 26.5q-23 10 -35 10h-8q-2 0 -10.5 -16.5t-6.5 -77.5 q2 -16 -10 -29.5t-29 -13.5q-16 -2 -28.5 10t-14.5 29zM932 844q0 -109 14.5 -221.5t40.5 -210.5q66 119 102.5 259t36.5 269q0 41 -5 84t-17 78t-31.5 56.5t-46.5 21.5q-23 0 -39 -30t-24 -52q-31 -92 -31 -254z" />
<glyph unicode="&#xc4;" d="M39 772q10 145 50 281.5t99 242.5q61 104 136 166q84 66 176 66q106 0 178 -90q55 -70 69.5 -172.5t-14.5 -221.5q-4 -16 -18.5 -24t-30.5 -4t-25.5 18.5t-5.5 30.5q25 98 13.5 183t-52.5 138q-47 59 -114 60q-63 0 -125 -49t-115 -142q-57 -98 -93 -226t-46 -263 q-10 -145 11.5 -268t74.5 -215q111 -188 334 -189h4q68 0 124 19.5t104 50.5t87 71.5t70 83.5q-37 115 -58.5 252.5t-21.5 272.5q0 170 35 278q29 86 68.5 113t72.5 27q92 0 143 -103q39 -88 39 -217q0 -74 -11 -151.5t-31.5 -154.5t-51.5 -150.5t-67 -137.5l-25 -41 q39 -102 86 -157.5t94 -55.5q18 0 29.5 -12t11.5 -29q0 -16 -11 -28.5t-30 -12.5q-70 0 -130 55.5t-107 161.5q-57 -70 -125 -118q-139 -98 -295 -99h-4q-133 0 -236.5 58.5t-169.5 171.5q-57 100 -81.5 236t-14.5 294zM436 1683q0 16 12.5 28.5t28.5 12.5t28.5 -12.5 t12.5 -28.5t-12 -28.5t-29 -12.5q-16 0 -28.5 12.5t-12.5 28.5zM621 1683q0 16 12 28.5t29 12.5q16 0 28 -12.5t12 -28.5t-12 -28.5t-28 -12.5t-28.5 12.5t-12.5 28.5zM932 844q0 -109 14.5 -221.5t40.5 -210.5q66 119 102.5 259t36.5 269q0 41 -5 84t-17 78t-31.5 56.5 t-46.5 21.5q-23 0 -39 -30t-24 -52q-31 -92 -31 -254z" />
<glyph unicode="&#xc5;" d="M39 772q10 145 50 281.5t99 242.5q61 104 136 166q84 66 176 66q106 0 178 -90q55 -70 69.5 -172.5t-14.5 -221.5q-4 -16 -18.5 -24t-30.5 -4t-25.5 18.5t-5.5 30.5q25 98 13.5 183t-52.5 138q-47 59 -114 60q-63 0 -125 -49t-115 -142q-57 -98 -93 -226t-46 -263 q-10 -145 11.5 -268t74.5 -215q111 -188 334 -189h4q68 0 124 19.5t104 50.5t87 71.5t70 83.5q-37 115 -58.5 252.5t-21.5 272.5q0 170 35 278q29 86 68.5 113t72.5 27q92 0 143 -103q39 -88 39 -217q0 -74 -11 -151.5t-31.5 -154.5t-51.5 -150.5t-67 -137.5l-25 -41 q39 -102 86 -157.5t94 -55.5q18 0 29.5 -12t11.5 -29q0 -16 -11 -28.5t-30 -12.5q-70 0 -130 55.5t-107 161.5q-57 -70 -125 -118q-139 -98 -295 -99h-4q-133 0 -236.5 58.5t-169.5 171.5q-57 100 -81.5 236t-14.5 294zM537 1716q0 74 51 125t125 51q72 0 127 -51 q51 -51 51 -125q0 -72 -51 -127q-55 -51 -127 -51q-74 0 -125 51q-51 55 -51 127zM618 1716q0 -41 27 -68.5t68 -27.5t68.5 27.5t27.5 68.5t-27.5 67.5t-68.5 26.5t-68 -26.5t-27 -67.5zM932 844q0 -109 14.5 -221.5t40.5 -210.5q66 119 102.5 259t36.5 269q0 41 -5 84 t-17 78t-31.5 56.5t-46.5 21.5q-23 0 -39 -30t-24 -52q-31 -92 -31 -254z" />
<glyph unicode="&#xc6;" horiz-adv-x="2240" d="M39 772q10 145 50 281.5t99 242.5q61 104 136 166q84 66 176 66q106 0 178 -90q55 -70 69.5 -172.5t-14.5 -221.5q-4 -16 -18.5 -24t-30.5 -4t-25.5 18.5t-5.5 30.5q25 98 13.5 183t-52.5 138q-47 59 -114 60q-63 0 -125 -49t-115 -142q-57 -98 -93 -226t-46 -263 q-10 -145 11.5 -268t74.5 -215q111 -188 334 -189h4q68 0 124 19.5t104 50.5t87 71.5t70 83.5q-37 115 -58.5 252.5t-21.5 272.5q0 170 35 278q29 86 68.5 113t72.5 27q61 0 107 -50q25 76 79 146q55 63 142 108q78 39 167 53.5t175 2.5q129 -14 211 -88q92 -82 86 -205 q-4 -45 -16.5 -86t-34.5 -76q-45 -66 -111 -92q-55 -25 -111.5 -18.5t-97.5 40.5q-16 12 -33.5 35t-29 59.5t-14.5 88t14 120.5q10 37 49 31q16 -4 25 -18.5t5 -30.5q-16 -78 -8 -136.5t43 -86.5q25 -20 57.5 -22.5t67.5 12.5q49 23 79 70.5t34 113.5q2 61 -24.5 100 t-64.5 62.5t-77 33t-59 13.5q-74 10 -152 -2.5t-144.5 -46t-114.5 -89t-67 -130.5q-31 -131 37 -234q68 -102 228 -174q25 10 47 16t43 11q78 18 152.5 25t121.5 -3q47 -8 79 -29.5t42 -52.5q18 -47 -14 -86q-61 -72 -236 -37q-131 25 -238 68q-94 -33 -167 -94 q-92 -78 -93 -181q0 -68 40 -128t118 -103q66 -39 156 -60.5t193.5 -18.5t217 34t226.5 98q16 10 31.5 5t25.5 -19q8 -16 4 -31.5t-18 -25.5q-111 -66 -233 -102t-245 -40h-32q-104 0 -197.5 22.5t-169.5 65.5q-94 53 -145 129q-53 82 -54 174q0 139 121 244q53 45 123 78 q-102 53 -168 131q-10 -131 -51 -264t-106 -244l-25 -41q39 -102 86 -157.5t94 -55.5q18 0 29.5 -12t11.5 -29q0 -16 -11 -28.5t-30 -12.5q-70 0 -130 55.5t-107 161.5q-57 -70 -125 -118q-139 -98 -295 -99h-4q-133 0 -236.5 58.5t-169.5 171.5q-57 100 -81.5 236 t-14.5 294zM932 844q0 -109 14.5 -221.5t40.5 -210.5q66 119 102.5 259t36.5 269q0 41 -5 84t-17 78t-31.5 56.5t-46.5 21.5q-23 0 -39 -30t-24 -52q-31 -92 -31 -254zM1606 719q29 -10 57.5 -16.5t60.5 -12.5q76 -14 112 -7t44 17q2 2 2 5q-4 6 -17.5 16t-39.5 14 q-35 6 -93 2t-126 -18z" />
<glyph unicode="&#xc7;" horiz-adv-x="1273" d="M48 570.5q-13 150.5 34 324.5q68 250 217 416q131 145 301 188q115 29 217 4q104 -23 176 -96q68 -68 86 -168q20 -100 -14 -225q-41 -133 -123 -213q-76 -74 -170 -86q-10 -2 -18.5 -2h-16.5q-63 0 -116.5 28.5t-85.5 79.5q-47 78 -33 178.5t88 210.5q10 14 26.5 17.5 t30.5 -6.5t17.5 -25.5t-7.5 -30.5q-59 -88 -73.5 -166.5t20.5 -134.5q25 -39 67 -56t91 -11q76 10 134 72.5t89 166.5q29 98 15.5 179t-66.5 135q-53 57 -136 75.5t-177 -6.5q-160 -41 -281 -185t-178 -362q-43 -156 -33 -289.5t74 -238.5q113 -184 346 -238q12 -4 16 -4 q18 25 45 19t31 -31q291 -41 553 94q16 8 31.5 3t23.5 -21t3 -31.5t-21 -23.5q-109 -55 -224.5 -83t-236.5 -28q-37 0 -72.5 2t-70.5 6l-27 -112q51 4 88 -9q66 -18 103 -67q33 -41 33.5 -95.5t-27.5 -103.5q-41 -66 -121 -96q-29 -10 -59.5 -15.5t-65.5 -5.5q-39 0 -78 7 q-16 4 -26.5 17t-8.5 30q4 16 17.5 26t29.5 8q86 -14 149.5 5.5t92.5 66.5q16 27 15 55.5t-17 51.5q-23 31 -67 40t-103 -6q-20 -6 -37 11q-16 16 -12 37l39 170l-13 4q-133 31 -233 98q-100 70 -166 176q-72 119 -85 269.5z" />
<glyph unicode="&#xc8;" horiz-adv-x="1161" d="M49 403q0 139 121 244q53 45 123 78q-131 70 -197 170q-84 133 -47 297q20 90 84 166q55 63 141 108q78 39 167 53.5t175 2.5q129 -14 211 -88q92 -82 86 -205q-4 -45 -16 -86t-35 -76q-45 -66 -110 -92q-55 -25 -111.5 -18.5t-97.5 40.5q-16 12 -33.5 35t-29 59.5 t-14.5 88t13 120.5q10 37 49 31q16 -4 25.5 -18.5t5.5 -30.5q-16 -78 -8 -136.5t43 -86.5q25 -20 57.5 -22.5t67.5 12.5q49 23 78.5 70.5t33.5 113.5q2 61 -24.5 100t-64 62.5t-76.5 33t-60 13.5q-74 10 -151.5 -2.5t-144 -46t-115 -89t-66.5 -130.5q-31 -131 37 -234 q68 -102 227 -174q25 10 47.5 16t42.5 11q78 18 153 25t122 -3q47 -8 78.5 -29.5t42.5 -52.5q18 -47 -15 -86q-61 -72 -235 -37q-131 25 -238 68q-94 -33 -168 -94q-92 -78 -92 -181q0 -68 40 -128t118 -103q66 -39 156 -60.5t193 -18.5t217 34t226 98q16 10 31.5 5 t26.5 -19q8 -16 4 -31.5t-19 -25.5q-111 -66 -232.5 -102t-244.5 -40h-33q-104 0 -197 22.5t-169 65.5q-94 53 -146 129q-53 82 -53 174zM353.5 1841q2.5 17 14 27t28 10t30.5 -16l164 -164q14 -16 11 -32.5t-14.5 -27t-27.5 -10.5t-31 17l-163 163q-14 16 -11.5 33z M526 719q29 -10 57.5 -16.5t61.5 -12.5q76 -14 112 -7t44 17q2 2 2 5q-4 6 -17.5 16t-40.5 14q-35 6 -93 2t-126 -18z" />
<glyph unicode="&#xc9;" horiz-adv-x="1161" d="M49 403q0 139 121 244q53 45 123 78q-131 70 -197 170q-84 133 -47 297q20 90 84 166q55 63 141 108q78 39 167 53.5t175 2.5q129 -14 211 -88q92 -82 86 -205q-4 -45 -16 -86t-35 -76q-45 -66 -110 -92q-55 -25 -111.5 -18.5t-97.5 40.5q-16 12 -33.5 35t-29 59.5 t-14.5 88t13 120.5q10 37 49 31q16 -4 25.5 -18.5t5.5 -30.5q-16 -78 -8 -136.5t43 -86.5q25 -20 57.5 -22.5t67.5 12.5q49 23 78.5 70.5t33.5 113.5q2 61 -24.5 100t-64 62.5t-76.5 33t-60 13.5q-74 10 -151.5 -2.5t-144 -46t-115 -89t-66.5 -130.5q-31 -131 37 -234 q68 -102 227 -174q25 10 47.5 16t42.5 11q78 18 153 25t122 -3q47 -8 78.5 -29.5t42.5 -52.5q18 -47 -15 -86q-61 -72 -235 -37q-131 25 -238 68q-94 -33 -168 -94q-92 -78 -92 -181q0 -68 40 -128t118 -103q66 -39 156 -60.5t193 -18.5t217 34t226 98q16 10 31.5 5 t26.5 -19q8 -16 4 -31.5t-19 -25.5q-111 -66 -232.5 -102t-244.5 -40h-33q-104 0 -197 22.5t-169 65.5q-94 53 -146 129q-53 82 -53 174zM497 1665q-3 16 11 33l164 164q14 16 30.5 16t27.5 -10t14.5 -26.5t-11.5 -33.5l-164 -163q-14 -16 -30.5 -16.5t-27.5 10t-14 26.5z M526 719q29 -10 57.5 -16.5t61.5 -12.5q76 -14 112 -7t44 17q2 2 2 5q-4 6 -17.5 16t-40.5 14q-35 6 -93 2t-126 -18z" />
<glyph unicode="&#xca;" horiz-adv-x="1161" d="M49 403q0 139 121 244q53 45 123 78q-131 70 -197 170q-84 133 -47 297q20 90 84 166q55 63 141 108q78 39 167 53.5t175 2.5q129 -14 211 -88q92 -82 86 -205q-4 -45 -16 -86t-35 -76q-45 -66 -110 -92q-55 -25 -111.5 -18.5t-97.5 40.5q-16 12 -33.5 35t-29 59.5 t-14.5 88t13 120.5q10 37 49 31q16 -4 25.5 -18.5t5.5 -30.5q-16 -78 -8 -136.5t43 -86.5q25 -20 57.5 -22.5t67.5 12.5q49 23 78.5 70.5t33.5 113.5q2 61 -24.5 100t-64 62.5t-76.5 33t-60 13.5q-74 10 -151.5 -2.5t-144 -46t-115 -89t-66.5 -130.5q-31 -131 37 -234 q68 -102 227 -174q25 10 47.5 16t42.5 11q78 18 153 25t122 -3q47 -8 78.5 -29.5t42.5 -52.5q18 -47 -15 -86q-61 -72 -235 -37q-131 25 -238 68q-94 -33 -168 -94q-92 -78 -92 -181q0 -68 40 -128t118 -103q66 -39 156 -60.5t193 -18.5t217 34t226 98q16 10 31.5 5 t26.5 -19q8 -16 4 -31.5t-19 -25.5q-111 -66 -232.5 -102t-244.5 -40h-33q-104 0 -197 22.5t-169 65.5q-94 53 -146 129q-53 82 -53 174zM387 1656.5q-4 16.5 8 33.5l121 168q10 16 30.5 24t45.5 -24l123 -168q12 -16 8 -33t-16.5 -26t-28.5 -8t-29 17l-94 132l-94 -132 q-12 -16 -28.5 -17t-29 8t-16.5 25.5zM526 719q29 -10 57.5 -16.5t61.5 -12.5q76 -14 112 -7t44 17q2 2 2 5q-4 6 -17.5 16t-40.5 14q-35 6 -93 2t-126 -18z" />
<glyph unicode="&#xcb;" horiz-adv-x="1161" d="M49 403q0 139 121 244q53 45 123 78q-131 70 -197 170q-84 133 -47 297q20 90 84 166q55 63 141 108q78 39 167 53.5t175 2.5q129 -14 211 -88q92 -82 86 -205q-4 -45 -16 -86t-35 -76q-45 -66 -110 -92q-55 -25 -111.5 -18.5t-97.5 40.5q-16 12 -33.5 35t-29 59.5 t-14.5 88t13 120.5q10 37 49 31q16 -4 25.5 -18.5t5.5 -30.5q-16 -78 -8 -136.5t43 -86.5q25 -20 57.5 -22.5t67.5 12.5q49 23 78.5 70.5t33.5 113.5q2 61 -24.5 100t-64 62.5t-76.5 33t-60 13.5q-74 10 -151.5 -2.5t-144 -46t-115 -89t-66.5 -130.5q-31 -131 37 -234 q68 -102 227 -174q25 10 47.5 16t42.5 11q78 18 153 25t122 -3q47 -8 78.5 -29.5t42.5 -52.5q18 -47 -15 -86q-61 -72 -235 -37q-131 25 -238 68q-94 -33 -168 -94q-92 -78 -92 -181q0 -68 40 -128t118 -103q66 -39 156 -60.5t193 -18.5t217 34t226 98q16 10 31.5 5 t26.5 -19q8 -16 4 -31.5t-19 -25.5q-111 -66 -232.5 -102t-244.5 -40h-33q-104 0 -197 22.5t-169 65.5q-94 53 -146 129q-53 82 -53 174zM385 1683q0 16 12.5 28.5t28.5 12.5t28.5 -12.5t12.5 -28.5t-12.5 -28.5t-28.5 -12.5t-28.5 12.5t-12.5 28.5zM526 719 q29 -10 57.5 -16.5t61.5 -12.5q76 -14 112 -7t44 17q2 2 2 5q-4 6 -17.5 16t-40.5 14q-35 6 -93 2t-126 -18zM569 1683q0 16 12.5 28.5t28.5 12.5t28.5 -12.5t12.5 -28.5t-12 -28.5t-29 -12.5q-16 0 -28.5 12.5t-12.5 28.5z" />
<glyph unicode="&#xcc;" horiz-adv-x="755" d="M41.5 1143q15.5 131 67.5 221q92 164 272 164q174 0 272 -164q39 -68 59.5 -160t20.5 -203q0 -166 -45 -337.5t-123 -311.5q-59 -100 -123 -170q100 -92 213 -88q16 2 28.5 -10t12.5 -29q2 -16 -10 -28.5t-29 -14.5h-12q-117 0 -221 80q-10 8 -21.5 15.5t-21.5 17.5 l-19 -14q-129 -98 -276 -99q-16 0 -28.5 12.5t-12.5 28.5t12.5 28.5t28.5 12.5q125 0 238 90q-23 27 -43.5 55.5t-40.5 61.5q-72 117 -121 260.5t-70 292.5q-23 158 -7.5 289zM123 1127.5q-12 -119.5 6 -263.5q20 -141 67.5 -276t112.5 -244q18 -29 37 -54.5t39 -47.5 q57 61 109 149q74 131 115.5 293t41.5 317q0 201 -69 322q-72 123 -201 123q-135 0 -201 -121q-45 -78 -57 -197.5zM192 1841q3 17 14 27t27.5 10t30.5 -16l164 -164q14 -16 11 -32.5t-14 -27t-27.5 -10.5t-30.5 17l-164 163q-14 16 -11 33z" />
<glyph unicode="&#xcd;" horiz-adv-x="755" d="M41.5 1143q15.5 131 67.5 221q92 164 272 164q174 0 272 -164q39 -68 59.5 -160t20.5 -203q0 -166 -45 -337.5t-123 -311.5q-59 -100 -123 -170q100 -92 213 -88q16 2 28.5 -10t12.5 -29q2 -16 -10 -28.5t-29 -14.5h-12q-117 0 -221 80q-10 8 -21.5 15.5t-21.5 17.5 l-19 -14q-129 -98 -276 -99q-16 0 -28.5 12.5t-12.5 28.5t12.5 28.5t28.5 12.5q125 0 238 90q-23 27 -43.5 55.5t-40.5 61.5q-72 117 -121 260.5t-70 292.5q-23 158 -7.5 289zM123 1127.5q-12 -119.5 6 -263.5q20 -141 67.5 -276t112.5 -244q18 -29 37 -54.5t39 -47.5 q57 61 109 149q74 131 115.5 293t41.5 317q0 201 -69 322q-72 123 -201 123q-135 0 -201 -121q-45 -78 -57 -197.5zM314 1665q-3 16 12 33l163 164q14 16 31 16t28 -10t14 -26.5t-11 -33.5l-164 -163q-14 -16 -30.5 -16.5t-28 10t-14.5 26.5z" />
<glyph unicode="&#xce;" horiz-adv-x="755" d="M41.5 1143q15.5 131 67.5 221q92 164 272 164q174 0 272 -164q39 -68 59.5 -160t20.5 -203q0 -166 -45 -337.5t-123 -311.5q-59 -100 -123 -170q100 -92 213 -88q16 2 28.5 -10t12.5 -29q2 -16 -10 -28.5t-29 -14.5h-12q-117 0 -221 80q-10 8 -21.5 15.5t-21.5 17.5 l-19 -14q-129 -98 -276 -99q-16 0 -28.5 12.5t-12.5 28.5t12.5 28.5t28.5 12.5q125 0 238 90q-23 27 -43.5 55.5t-40.5 61.5q-72 117 -121 260.5t-70 292.5q-23 158 -7.5 289zM123 1127.5q-12 -119.5 6 -263.5q20 -141 67.5 -276t112.5 -244q18 -29 37 -54.5t39 -47.5 q57 61 109 149q74 131 115.5 293t41.5 317q0 201 -69 322q-72 123 -201 123q-135 0 -201 -121q-45 -78 -57 -197.5zM209 1656.5q-4 16.5 8 33.5l121 168q10 16 30.5 24t45.5 -24l123 -168q12 -16 8 -33t-16.5 -26t-29 -8t-28.5 17l-94 132l-94 -132q-12 -16 -28.5 -17t-29 8 t-16.5 25.5z" />
<glyph unicode="&#xcf;" horiz-adv-x="755" d="M41.5 1143q15.5 131 67.5 221q92 164 272 164q174 0 272 -164q39 -68 59.5 -160t20.5 -203q0 -166 -45 -337.5t-123 -311.5q-59 -100 -123 -170q100 -92 213 -88q16 2 28.5 -10t12.5 -29q2 -16 -10 -28.5t-29 -14.5h-12q-117 0 -221 80q-10 8 -21.5 15.5t-21.5 17.5 l-19 -14q-129 -98 -276 -99q-16 0 -28.5 12.5t-12.5 28.5t12.5 28.5t28.5 12.5q125 0 238 90q-23 27 -43.5 55.5t-40.5 61.5q-72 117 -121 260.5t-70 292.5q-23 158 -7.5 289zM123 1127.5q-12 -119.5 6 -263.5q20 -141 67.5 -276t112.5 -244q18 -29 37 -54.5t39 -47.5 q57 61 109 149q74 131 115.5 293t41.5 317q0 201 -69 322q-72 123 -201 123q-135 0 -201 -121q-45 -78 -57 -197.5zM244 1683q0 16 12 28.5t29 12.5q16 0 28.5 -12.5t12.5 -28.5t-12.5 -28.5t-28.5 -12.5t-28.5 12.5t-12.5 28.5zM428 1683q0 16 12.5 28.5t28.5 12.5 t28.5 -12.5t12.5 -28.5t-12.5 -28.5t-28.5 -12.5t-28.5 12.5t-12.5 28.5z" />
<glyph unicode="&#xd0;" horiz-adv-x="1533" d="M0 689.5q0 15.5 10 28.5t33 13h127q23 78 56.5 160t74.5 156.5t87 138t95 102.5v2q-53 106 -123 142q-16 8 -21 23t3 32q8 16 23.5 21t31.5 -3q90 -43 150 -162q221 180 438 185q100 2 186 -43t152 -133q127 -162 162 -428q16 -125 9 -252t-40 -244q-66 -242 -225 -346 q-63 -41 -125 -55.5t-115 -14.5q-18 0 -33.5 1t-31.5 3q-61 8 -120 32t-106 58q-102 76 -102 166q0 16 12.5 28.5t28.5 12.5t28.5 -12t12.5 -29q0 -49 70 -100q80 -61 186 -74q12 -2 24.5 -3t28.5 -1q43 0 98.5 12.5t108.5 51.5t101 107.5t79 183.5q31 113 38 232.5t-8 233 t-52 214t-92 174.5q-111 143 -273 143q-31 0 -73 -7t-94 -26.5t-112.5 -54.5t-125.5 -92q18 -47 30.5 -103.5t22.5 -120.5q10 -74 14 -152.5t0 -158.5h109q20 0 31.5 -13t11.5 -28.5t-11.5 -28t-31.5 -12.5h-113q-10 -135 -37 -254q-43 -186 -114.5 -284.5t-163.5 -98.5 q-109 0 -166 107q-41 78 -47 202.5t22 278.5l11 49h-107q-23 0 -33 12.5t-10 28zM197.5 335q5.5 -112 40.5 -177q33 -63 92 -64q59 0 111 86.5t87 233.5q12 55 21.5 114.5t13.5 120.5h-327q-4 -16 -7.5 -32.5t-7.5 -32.5q-29 -137 -23.5 -249zM256 731h313q4 78 0 152.5 t-14 146.5q-8 49 -17.5 93t-21.5 83q-94 -94 -157.5 -217t-102.5 -258z" />
<glyph unicode="&#xd1;" horiz-adv-x="1372" d="M29 352q0 168 53 365q29 100 66.5 194.5t84.5 180.5q10 20 21.5 39.5t24.5 37.5q-18 55 -39 101.5t-43 81.5q-55 84 -101 84q-16 2 -28.5 14t-10.5 29q4 39 41 39h2q39 -2 74 -25t63.5 -59.5t53 -83.5t45.5 -99q59 82 131 140q152 127 315 127q238 0 381 -175 q109 -135 152 -374q31 -193 22 -430q-4 -102 -14 -192.5t-20.5 -158t-18.5 -108.5t-8 -45q-4 -16 -17.5 -25.5t-29.5 -5.5t-26.5 18.5t-6.5 30.5l8 40t18.5 106.5t19.5 155.5t13 190q10 260 -29.5 448.5t-127.5 298.5q-113 143 -316 144q-68 0 -128 -25t-112.5 -64.5 t-96.5 -90t-76 -99.5q4 -16 8 -24q47 -158 70.5 -338.5t19.5 -339.5q-6 -190 -53 -308q-18 -45 -41 -72.5t-46.5 -43t-47 -21.5t-43.5 -6q-106 0 -164 111q-43 86 -43 237zM111 352q0 -31 4 -76t16 -87t37 -72.5t68 -30.5q66 0 105.5 98.5t43.5 272.5q4 141 -15.5 302 t-58.5 304l-6 -10q-45 -80 -81 -169t-61.5 -181.5t-38.5 -181.5t-13 -169zM508 1688q-2 43 7 94t50 76q47 27 105.5 -2t124.5 -70q29 -16 56.5 -33.5t51.5 -28.5q29 -12 41 -13t17 3q4 2 14 20.5t12 77.5q4 39 43 39q16 0 28.5 -12t10.5 -29q-2 -133 -70 -170 q-24 -12 -49 -12q-47 0 -97 27.5t-101 60.5q-29 18 -54.5 33.5t-48.5 26.5q-23 10 -35 10h-8q-2 0 -10 -16.5t-6 -77.5q2 -16 -10.5 -29.5t-28.5 -13.5q-16 -2 -28.5 10t-14.5 29z" />
<glyph unicode="&#xd2;" horiz-adv-x="1357" d="M23 625q-4 96 13 186t52 164q41 84 97.5 131t121.5 51q16 2 28.5 -9t14.5 -28q2 -16 -9 -29.5t-28 -15.5q-47 -4 -86 -42t-67.5 -99.5t-44 -140t-11.5 -166.5q4 -96 34 -191.5t89.5 -171.5t153.5 -123t227 -47q90 0 161 26.5t125 67.5t93 92.5t66 100.5q2 8 10 20 q-66 27 -126 59t-114 72q-98 72 -165.5 159t-96.5 177q-51 158 -47 303q6 156 68 248q63 96 172 107q111 12 211 -41q86 -45 151 -144q59 -92 92 -213.5t35 -263.5q2 -111 -16.5 -215t-52.5 -198q31 -10 62.5 -17.5t61.5 -13.5q16 -4 27.5 -17.5t7.5 -29.5t-17 -26.5 t-30 -6.5q-37 6 -73.5 14t-71.5 21l-17 -31q-80 -154 -204 -238q-68 -47 -147 -70.5t-165 -23.5q-143 0 -260 54q-102 47 -182 143q-66 80 -102.5 186.5t-40.5 229.5zM554 1841q3 17 14.5 27t27.5 10t31 -16l164 -164q14 -16 11 -32.5t-14.5 -27t-28 -10.5t-30.5 17 l-164 163q-14 16 -11 33zM597 1166.5q-1 -62.5 9 -132t33 -139.5q25 -78 84 -154.5t147 -142.5q102 -76 226 -121q39 100 55 213t10 221.5t-34.5 209t-77.5 175.5q-102 150 -256 150h-15.5t-17.5 -2q-66 -6 -111 -70q-25 -37 -38 -91t-14 -116.5z" />
<glyph unicode="&#xd3;" horiz-adv-x="1357" d="M23 625q-4 96 13 186t52 164q41 84 97.5 131t121.5 51q16 2 28.5 -9t14.5 -28q2 -16 -9 -29.5t-28 -15.5q-47 -4 -86 -42t-67.5 -99.5t-44 -140t-11.5 -166.5q4 -96 34 -191.5t89.5 -171.5t153.5 -123t227 -47q90 0 161 26.5t125 67.5t93 92.5t66 100.5q2 8 10 20 q-66 27 -126 59t-114 72q-98 72 -165.5 159t-96.5 177q-51 158 -47 303q6 156 68 248q63 96 172 107q111 12 211 -41q86 -45 151 -144q59 -92 92 -213.5t35 -263.5q2 -111 -16.5 -215t-52.5 -198q31 -10 62.5 -17.5t61.5 -13.5q16 -4 27.5 -17.5t7.5 -29.5t-17 -26.5 t-30 -6.5q-37 6 -73.5 14t-71.5 21l-17 -31q-80 -154 -204 -238q-68 -47 -147 -70.5t-165 -23.5q-143 0 -260 54q-102 47 -182 143q-66 80 -102.5 186.5t-40.5 229.5zM554 1665q-3 16 11 33l164 164q14 16 30.5 16t28 -10t14.5 -26.5t-11 -33.5l-164 -163 q-14 -16 -30.5 -16.5t-28 10t-14.5 26.5zM597 1166.5q-1 -62.5 9 -132t33 -139.5q25 -78 84 -154.5t147 -142.5q102 -76 226 -121q39 100 55 213t10 221.5t-34.5 209t-77.5 175.5q-102 150 -256 150h-15.5t-17.5 -2q-66 -6 -111 -70q-25 -37 -38 -91t-14 -116.5z" />
<glyph unicode="&#xd4;" horiz-adv-x="1357" d="M23 625q-4 96 13 186t52 164q41 84 97.5 131t121.5 51q16 2 28.5 -9t14.5 -28q2 -16 -9 -29.5t-28 -15.5q-47 -4 -86 -42t-67.5 -99.5t-44 -140t-11.5 -166.5q4 -96 34 -191.5t89.5 -171.5t153.5 -123t227 -47q90 0 161 26.5t125 67.5t93 92.5t66 100.5q2 8 10 20 q-66 27 -126 59t-114 72q-98 72 -165.5 159t-96.5 177q-51 158 -47 303q6 156 68 248q63 96 172 107q111 12 211 -41q86 -45 151 -144q59 -92 92 -213.5t35 -263.5q2 -111 -16.5 -215t-52.5 -198q31 -10 62.5 -17.5t61.5 -13.5q16 -4 27.5 -17.5t7.5 -29.5t-17 -26.5 t-30 -6.5q-37 6 -73.5 14t-71.5 21l-17 -31q-80 -154 -204 -238q-68 -47 -147 -70.5t-165 -23.5q-143 0 -260 54q-102 47 -182 143q-66 80 -102.5 186.5t-40.5 229.5zM510 1656.5q-4 16.5 8 33.5l121 168q10 16 30.5 24t45.5 -24l123 -168q12 -16 8 -33t-16.5 -26t-29 -8 t-28.5 17l-94 132l-94 -132q-12 -16 -28.5 -17t-29 8t-16.5 25.5zM597 1166.5q-1 -62.5 9 -132t33 -139.5q25 -78 84 -154.5t147 -142.5q102 -76 226 -121q39 100 55 213t10 221.5t-34.5 209t-77.5 175.5q-102 150 -256 150h-15.5t-17.5 -2q-66 -6 -111 -70q-25 -37 -38 -91 t-14 -116.5z" />
<glyph unicode="&#xd5;" horiz-adv-x="1357" d="M23 625q-4 96 13 186t52 164q41 84 97.5 131t121.5 51q16 2 28.5 -9t14.5 -28q2 -16 -9 -29.5t-28 -15.5q-47 -4 -86 -42t-67.5 -99.5t-44 -140t-11.5 -166.5q4 -96 34 -191.5t89.5 -171.5t153.5 -123t227 -47q90 0 161 26.5t125 67.5t93 92.5t66 100.5q2 8 10 20 q-66 27 -126 59t-114 72q-98 72 -165.5 159t-96.5 177q-51 158 -47 303q6 156 68 248q63 96 172 107q111 12 211 -41q86 -45 151 -144q59 -92 92 -213.5t35 -263.5q2 -111 -16.5 -215t-52.5 -198q31 -10 62.5 -17.5t61.5 -13.5q16 -4 27.5 -17.5t7.5 -29.5t-17 -26.5 t-30 -6.5q-37 6 -73.5 14t-71.5 21l-17 -31q-80 -154 -204 -238q-68 -47 -147 -70.5t-165 -23.5q-143 0 -260 54q-102 47 -182 143q-66 80 -102.5 186.5t-40.5 229.5zM397 1688q-2 43 7.5 94t50.5 76q47 27 105 -2t124 -70q29 -16 56.5 -33.5t52.5 -28.5q29 -12 41 -13t16 3 q4 2 14 20.5t13 77.5q4 39 43 39q16 0 28.5 -12t9.5 -29q-2 -133 -69 -170q-24 -12 -49 -12q-47 0 -97.5 27.5t-101.5 60.5q-29 18 -54.5 33.5t-47.5 26.5q-23 10 -35 10h-8q-2 0 -10.5 -16.5t-6.5 -77.5q2 -16 -10 -29.5t-29 -13.5q-16 -2 -28.5 10t-14.5 29zM597 1166.5 q-1 -62.5 9 -132t33 -139.5q25 -78 84 -154.5t147 -142.5q102 -76 226 -121q39 100 55 213t10 221.5t-34.5 209t-77.5 175.5q-102 150 -256 150h-15.5t-17.5 -2q-66 -6 -111 -70q-25 -37 -38 -91t-14 -116.5z" />
<glyph unicode="&#xd6;" horiz-adv-x="1357" d="M23 625q-4 96 13 186t52 164q41 84 97.5 131t121.5 51q16 2 28.5 -9t14.5 -28q2 -16 -9 -29.5t-28 -15.5q-47 -4 -86 -42t-67.5 -99.5t-44 -140t-11.5 -166.5q4 -96 34 -191.5t89.5 -171.5t153.5 -123t227 -47q90 0 161 26.5t125 67.5t93 92.5t66 100.5q2 8 10 20 q-66 27 -126 59t-114 72q-98 72 -165.5 159t-96.5 177q-51 158 -47 303q6 156 68 248q63 96 172 107q111 12 211 -41q86 -45 151 -144q59 -92 92 -213.5t35 -263.5q2 -111 -16.5 -215t-52.5 -198q31 -10 62.5 -17.5t61.5 -13.5q16 -4 27.5 -17.5t7.5 -29.5t-17 -26.5 t-30 -6.5q-37 6 -73.5 14t-71.5 21l-17 -31q-80 -154 -204 -238q-68 -47 -147 -70.5t-165 -23.5q-143 0 -260 54q-102 47 -182 143q-66 80 -102.5 186.5t-40.5 229.5zM545 1683q0 16 12 28.5t29 12.5q16 0 28.5 -12.5t12.5 -28.5t-12.5 -28.5t-28.5 -12.5t-28.5 12.5 t-12.5 28.5zM597 1166.5q-1 -62.5 9 -132t33 -139.5q25 -78 84 -154.5t147 -142.5q102 -76 226 -121q39 100 55 213t10 221.5t-34.5 209t-77.5 175.5q-102 150 -256 150h-15.5t-17.5 -2q-66 -6 -111 -70q-25 -37 -38 -91t-14 -116.5zM729 1683q0 16 12.5 28.5t28.5 12.5 t28.5 -12.5t12.5 -28.5t-12.5 -28.5t-28.5 -12.5t-28.5 12.5t-12.5 28.5z" />
<glyph unicode="&#xd8;" horiz-adv-x="1357" d="M-23.5 39q-3.5 16 11.5 33l147 176q-51 78 -79.5 173t-32.5 204q-4 96 13 186t52 164q41 84 97.5 131t121.5 51q16 2 28.5 -9t14.5 -28q2 -16 -9 -29.5t-28 -15.5q-47 -4 -86 -42t-67.5 -99.5t-44 -140t-11.5 -166.5q4 -82 25 -162t61 -150l402 478q-10 18 -17.5 37.5 t-13.5 37.5q-51 158 -47 303q6 156 68 248q63 96 172 107q111 12 211 -41q66 -37 120 -103l113 136q14 16 30.5 16t28 -10.5t14.5 -26.5t-11 -33l-127 -151q53 -90 80.5 -205t29.5 -244q2 -111 -16.5 -215t-52.5 -198q31 -10 62.5 -17.5t61.5 -13.5q16 -4 27.5 -17.5 t7.5 -29.5t-17 -26.5t-30 -6.5q-37 6 -73.5 14t-71.5 21l-17 -31q-80 -154 -204 -238q-68 -47 -147 -70.5t-165 -23.5q-143 0 -260 54q-90 43 -162 116l-137 -164q-14 -16 -30.5 -16t-27.5 10.5t-14.5 26.5zM240 248q61 -70 151 -112t217 -42q90 0 161 26.5t125 67.5 t93 92.5t66 100.5q2 8 10 20q-66 27 -126 59t-114 72q-57 41 -105 88.5t-83 98.5zM597 1166.5q-1 -62.5 9 -132t33 -139.5q2 -14 10 -33l383 457q-98 127 -239 127h-15.5t-17.5 -2q-66 -6 -111 -70q-25 -37 -38 -91t-14 -116.5zM690 784q65 -98 180 -186q102 -76 226 -121 q35 92 51 195.5t14 205t-23.5 196.5t-60.5 173z" />
<glyph unicode="&#xd9;" horiz-adv-x="1372" d="M35 979q4 102 14 192.5t20.5 158t18.5 108.5t8 45q4 16 17.5 25.5t29.5 4.5q16 -4 26.5 -18t6.5 -31l-8 -40t-18.5 -106.5t-19.5 -155.5t-13 -189q-10 -260 29.5 -448.5t127.5 -299.5q113 -143 316 -143q68 0 128 24.5t112.5 64.5t95.5 90t78 99q-4 16 -9 25 q-47 158 -70.5 338t-19.5 340q6 190 53 307q18 45 41 72.5t46.5 43t47 21.5t44.5 6q106 0 163 -110q43 -86 43 -238q0 -168 -53 -364q-29 -100 -66.5 -194.5t-84.5 -180.5q-10 -20 -21.5 -39.5t-23.5 -38.5q18 -55 38.5 -101t43.5 -81q55 -84 100 -84q16 -2 28.5 -14.5 t10.5 -28.5q-4 -39 -41 -39h-2q-39 2 -74 24.5t-63.5 59.5t-53 84t-45.5 98q-59 -82 -131 -139q-152 -127 -315 -127q-238 0 -381 174q-109 135 -152 375q-31 193 -22 430zM480.5 1738.5q2.5 16.5 14 27t28 10.5t30.5 -17l164 -164q14 -16 11 -32.5t-14.5 -26.5t-27.5 -10 t-31 16l-163 164q-14 16 -11.5 32.5zM987 1061q-4 -141 15.5 -302t58.5 -304l6 10q45 80 81 169t61.5 181t39 181t13.5 169q0 31 -4.5 76t-16.5 87t-36.5 73t-67.5 31q-66 0 -106 -98.5t-44 -272.5z" />
<glyph unicode="&#xda;" horiz-adv-x="1372" d="M35 979q4 102 14 192.5t20.5 158t18.5 108.5t8 45q4 16 17.5 25.5t29.5 4.5q16 -4 26.5 -18t6.5 -31l-8 -40t-18.5 -106.5t-19.5 -155.5t-13 -189q-10 -260 29.5 -448.5t127.5 -299.5q113 -143 316 -143q68 0 128 24.5t112.5 64.5t95.5 90t78 99q-4 16 -9 25 q-47 158 -70.5 338t-19.5 340q6 190 53 307q18 45 41 72.5t46.5 43t47 21.5t44.5 6q106 0 163 -110q43 -86 43 -238q0 -168 -53 -364q-29 -100 -66.5 -194.5t-84.5 -180.5q-10 -20 -21.5 -39.5t-23.5 -38.5q18 -55 38.5 -101t43.5 -81q55 -84 100 -84q16 -2 28.5 -14.5 t10.5 -28.5q-4 -39 -41 -39h-2q-39 2 -74 24.5t-63.5 59.5t-53 84t-45.5 98q-59 -82 -131 -139q-152 -127 -315 -127q-238 0 -381 174q-109 135 -152 375q-31 193 -22 430zM501 1562.5q-3 16.5 11 32.5l164 164q14 16 30.5 16.5t27.5 -10t14.5 -27t-11.5 -32.5l-164 -164 q-14 -16 -30.5 -16t-27.5 10t-14 26.5zM987 1061q-4 -141 15.5 -302t58.5 -304l6 10q45 80 81 169t61.5 181t39 181t13.5 169q0 31 -4.5 76t-16.5 87t-36.5 73t-67.5 31q-66 0 -106 -98.5t-44 -272.5z" />
<glyph unicode="&#xdb;" horiz-adv-x="1372" d="M35 979q4 102 14 192.5t20.5 158t18.5 108.5t8 45q4 16 17.5 25.5t29.5 4.5q16 -4 26.5 -18t6.5 -31l-8 -40t-18.5 -106.5t-19.5 -155.5t-13 -189q-10 -260 29.5 -448.5t127.5 -299.5q113 -143 316 -143q68 0 128 24.5t112.5 64.5t95.5 90t78 99q-4 16 -9 25 q-47 158 -70.5 338t-19.5 340q6 190 53 307q18 45 41 72.5t46.5 43t47 21.5t44.5 6q106 0 163 -110q43 -86 43 -238q0 -168 -53 -364q-29 -100 -66.5 -194.5t-84.5 -180.5q-10 -20 -21.5 -39.5t-23.5 -38.5q18 -55 38.5 -101t43.5 -81q55 -84 100 -84q16 -2 28.5 -14.5 t10.5 -28.5q-4 -39 -41 -39h-2q-39 2 -74 24.5t-63.5 59.5t-53 84t-45.5 98q-59 -82 -131 -139q-152 -127 -315 -127q-238 0 -381 174q-109 135 -152 375q-31 193 -22 430zM498 1656.5q-4 16.5 8 33.5l121 168q10 16 30.5 24t44.5 -24l123 -168q12 -16 8 -33t-16 -26 t-28.5 -8t-28.5 17l-94 132l-95 -132q-12 -16 -28.5 -17t-28.5 8t-16 25.5zM987 1061q-4 -141 15.5 -302t58.5 -304l6 10q45 80 81 169t61.5 181t39 181t13.5 169q0 31 -4.5 76t-16.5 87t-36.5 73t-67.5 31q-66 0 -106 -98.5t-44 -272.5z" />
<glyph unicode="&#xdc;" horiz-adv-x="1372" d="M35 979q4 102 14 192.5t20.5 158t18.5 108.5t8 45q4 16 17.5 25.5t29.5 4.5q16 -4 26.5 -18t6.5 -31l-8 -40t-18.5 -106.5t-19.5 -155.5t-13 -189q-10 -260 29.5 -448.5t127.5 -299.5q113 -143 316 -143q68 0 128 24.5t112.5 64.5t95.5 90t78 99q-4 16 -9 25 q-47 158 -70.5 338t-19.5 340q6 190 53 307q18 45 41 72.5t46.5 43t47 21.5t44.5 6q106 0 163 -110q43 -86 43 -238q0 -168 -53 -364q-29 -100 -66.5 -194.5t-84.5 -180.5q-10 -20 -21.5 -39.5t-23.5 -38.5q18 -55 38.5 -101t43.5 -81q55 -84 100 -84q16 -2 28.5 -14.5 t10.5 -28.5q-4 -39 -41 -39h-2q-39 2 -74 24.5t-63.5 59.5t-53 84t-45.5 98q-59 -82 -131 -139q-152 -127 -315 -127q-238 0 -381 174q-109 135 -152 375q-31 193 -22 430zM528 1683q0 16 12.5 28.5t28.5 12.5t28.5 -12.5t12.5 -28.5t-12 -28.5t-29 -12.5q-16 0 -28.5 12.5 t-12.5 28.5zM713 1683q0 16 12 28.5t29 12.5q16 0 28.5 -12.5t12.5 -28.5t-12.5 -28.5t-28.5 -12.5t-28.5 12.5t-12.5 28.5zM987 1061q-4 -141 15.5 -302t58.5 -304l6 10q45 80 81 169t61.5 181t39 181t13.5 169q0 31 -4.5 76t-16.5 87t-36.5 73t-67.5 31q-66 0 -106 -98.5 t-44 -272.5z" />
<glyph unicode="&#xdd;" horiz-adv-x="1382" d="M23 915q4 94 12 178.5t17 147t17.5 100t8.5 41.5q4 16 18.5 25.5t30.5 5.5t25.5 -18.5t5.5 -30.5l-8 -37q-7 -37 -16 -98.5t-18.5 -143t-11.5 -174.5q-10 -242 27 -415.5t119 -274.5q106 -133 291 -133q66 0 124 25.5t108 65.5t91 89t72 97q-18 98 -36.5 220t-29.5 244 q-8 92 -8 168t4 138q14 156 70 225q45 55 111 55q100 0 155 -102q41 -86 41 -223q0 -76 -13 -161t-38 -177t-59.5 -181.5t-77.5 -167.5l-33 -55l12 -55l4 -17l31 -143q111 49 240 80q16 4 31.5 -4t19.5 -25q4 -16 -5 -31.5t-26 -19.5q-66 -16 -127 -35.5t-117 -46.5 q12 -68 23.5 -142.5t19.5 -150.5q8 -84 9.5 -156.5t-7.5 -131.5q-16 -150 -77 -228q-68 -82 -179 -82q-115 0 -192.5 80t-93.5 211q-12 109 24.5 221.5t116.5 210.5q90 113 229 193l35 20q-10 47 -18 86t-17 74q-29 -39 -59.5 -71.5t-62.5 -59.5q-141 -119 -295 -119 q-223 0 -357 164q-100 125 -141 348q-31 168 -20 397zM484 1562.5q-3 16.5 12 32.5l163 164q14 16 31 16.5t28 -10t14 -27t-11 -32.5l-164 -164q-14 -16 -30.5 -16t-28 10t-14.5 26.5zM670 -539q12 -100 67.5 -159.5t136.5 -59.5q72 0 115 51q14 20 29.5 54.5t25 88.5 t11.5 131t-8 183q-6 68 -16.5 133.5t-20.5 128.5q-66 -39 -121 -83t-96 -97q-70 -86 -102 -182t-21 -189zM944 1042q-2 -84 8 -206q8 -92 19.5 -185.5t27.5 -177.5q74 145 118 310t44 307q0 27 -3 68.5t-15.5 79.5t-34.5 66.5t-61 28.5q-27 0 -48 -24q-10 -14 -22 -44 t-21.5 -84.5t-11.5 -138.5z" />
<glyph unicode="&#xde;" horiz-adv-x="1165" d="M35 61v1434q0 16 12 28.5t29 12.5q16 0 28.5 -12.5t12.5 -28.5v-203q350 61 606 0q119 -29 209 -82t143 -129q61 -86 66.5 -183t-47.5 -191q-96 -172 -338 -267q-63 -25 -135 -42t-150 -27q-53 -8 -107.5 -11.5t-111.5 -3.5q-35 0 -67.5 1t-67.5 3v-299 q0 -16 -12.5 -28.5t-28.5 -12.5t-28.5 12.5t-12.5 28.5zM117 442h2q197 -12 348 9.5t263 66.5t184.5 104.5t107.5 122.5q41 72 37 148t-51 141q-90 129 -306 178q-246 59 -585 -2v-768z" />
<glyph unicode="&#xdf;" horiz-adv-x="1161" d="M31 61v1022q0 16 8 25q59 82 133 144.5t156 103.5q78 39 156.5 54t150.5 5q180 -25 244 -192q53 -141 -7 -269q-25 -55 -64.5 -99t-84.5 -77q70 2 143.5 -10t132.5 -49q106 -66 131 -195q20 -113 -32 -227q-51 -100 -152 -174q-63 -47 -140 -76t-159 -37q-16 -4 -31.5 -4 h-31.5q-150 0 -273 68q-16 10 -21 25.5t5 29.5q8 16 23.5 21.5t31.5 -5.5q74 -39 149.5 -51t147.5 -3t137.5 35t114.5 62q88 66 127 149t23 173q-18 94 -93 139q-57 37 -132.5 43t-143.5 0t-116 -17l-48 -11q-16 -4 -30.5 3t-20.5 23q-4 16 3 30.5t24 20.5l38 17 q37 16 87.5 47t101.5 77t80 107q45 94 4 205q-29 76 -82 104.5t-98 34.5q-121 18 -258 -51q-145 -74 -252 -213v-1008q0 -16 -12.5 -28.5t-28.5 -12.5t-28.5 12.5t-12.5 28.5z" />
<glyph unicode="&#xe0;" horiz-adv-x="747" d="M33 391q4 72 24.5 139.5t51.5 120.5q80 139 192 140q72 0 117 -58q31 -39 39 -94t-8 -115q-4 -16 -19.5 -25.5t-32.5 -4.5q-16 4 -24 19t-4 32q10 41 7 77.5t-22 59.5q-20 27 -53 27q-23 0 -41 -10.5t-33.5 -26t-27 -31.5t-19.5 -31q-25 -43 -42 -101t-23 -118.5t3 -119 t36 -103.5q53 -94 172 -94q66 0 111.5 29.5t78.5 66.5q-20 59 -30.5 125.5t-10.5 132.5q0 94 21 147q18 53 46.5 67.5t47.5 14.5q61 0 94 -61q23 -49 23 -119q0 -76 -25 -158.5t-66 -148.5q-4 -4 -8 -12q39 -84 78 -84q16 0 28.5 -12.5t12.5 -28.5t-12.5 -28.5t-28.5 -12.5 q-29 0 -64.5 18.5t-70.5 77.5q-23 -23 -53 -43q-78 -53 -170 -53h-2q-166 0 -244 135q-29 51 -42 118.5t-7 145.5zM167 1124.5q3 16.5 14.5 26.5t27.5 10t31 -16l163 -164q14 -16 11.5 -32.5t-14 -27t-28 -10.5t-30.5 17l-164 164q-14 16 -11 32.5zM557 428q0 -84 18 -164 q23 51 36.5 106.5t13.5 106.5q0 43 -9.5 70.5t-25.5 27.5q-8 0 -19 -26q-8 -23 -11 -53.5t-3 -67.5z" />
<glyph unicode="&#xe1;" horiz-adv-x="747" d="M33 391q4 72 24.5 139.5t51.5 120.5q80 139 192 140q72 0 117 -58q31 -39 39 -94t-8 -115q-4 -16 -19.5 -25.5t-32.5 -4.5q-16 4 -24 19t-4 32q10 41 7 77.5t-22 59.5q-20 27 -53 27q-23 0 -41 -10.5t-33.5 -26t-27 -31.5t-19.5 -31q-25 -43 -42 -101t-23 -118.5t3 -119 t36 -103.5q53 -94 172 -94q66 0 111.5 29.5t78.5 66.5q-20 59 -30.5 125.5t-10.5 132.5q0 94 21 147q18 53 46.5 67.5t47.5 14.5q61 0 94 -61q23 -49 23 -119q0 -76 -25 -158.5t-66 -148.5q-4 -4 -8 -12q39 -84 78 -84q16 0 28.5 -12.5t12.5 -28.5t-12.5 -28.5t-28.5 -12.5 q-29 0 -64.5 18.5t-70.5 77.5q-23 -23 -53 -43q-78 -53 -170 -53h-2q-166 0 -244 135q-29 51 -42 118.5t-7 145.5zM269 948.5q-3 16.5 12 32.5l163 164q14 16 31 16t28 -10t14 -26.5t-11 -32.5l-164 -164q-14 -16 -30.5 -16.5t-28 10t-14.5 27zM557 428q0 -84 18 -164 q23 51 36.5 106.5t13.5 106.5q0 43 -9.5 70.5t-25.5 27.5q-8 0 -19 -26q-8 -23 -11 -53.5t-3 -67.5z" />
<glyph unicode="&#xe2;" horiz-adv-x="747" d="M33 391q4 72 24.5 139.5t51.5 120.5q80 139 192 140q72 0 117 -58q31 -39 39 -94t-8 -115q-4 -16 -19.5 -25.5t-32.5 -4.5q-16 4 -24 19t-4 32q10 41 7 77.5t-22 59.5q-20 27 -53 27q-23 0 -41 -10.5t-33.5 -26t-27 -31.5t-19.5 -31q-25 -43 -42 -101t-23 -118.5t3 -119 t36 -103.5q53 -94 172 -94q66 0 111.5 29.5t78.5 66.5q-20 59 -30.5 125.5t-10.5 132.5q0 94 21 147q18 53 46.5 67.5t47.5 14.5q61 0 94 -61q23 -49 23 -119q0 -76 -25 -158.5t-66 -148.5q-4 -4 -8 -12q39 -84 78 -84q16 0 28.5 -12.5t12.5 -28.5t-12.5 -28.5t-28.5 -12.5 q-29 0 -64.5 18.5t-70.5 77.5q-23 -23 -53 -43q-78 -53 -170 -53h-2q-166 0 -244 135q-29 51 -42 118.5t-7 145.5zM184 940q-4 16 9 33l120 168q10 16 31 24.5t45 -24.5l123 -168q12 -16 8 -32.5t-16 -26t-28.5 -8.5t-29.5 18l-94 131l-94 -131q-12 -16 -28.5 -17.5t-29 8 t-16.5 25.5zM557 428q0 -84 18 -164q23 51 36.5 106.5t13.5 106.5q0 43 -9.5 70.5t-25.5 27.5q-8 0 -19 -26q-8 -23 -11 -53.5t-3 -67.5z" />
<glyph unicode="&#xe3;" horiz-adv-x="747" d="M33 391q4 72 24.5 139.5t51.5 120.5q80 139 192 140q72 0 117 -58q31 -39 39 -94t-8 -115q-4 -16 -19.5 -25.5t-32.5 -4.5q-16 4 -24 19t-4 32q10 41 7 77.5t-22 59.5q-20 27 -53 27q-23 0 -41 -10.5t-33.5 -26t-27 -31.5t-19.5 -31q-25 -43 -42 -101t-23 -118.5t3 -119 t36 -103.5q53 -94 172 -94q66 0 111.5 29.5t78.5 66.5q-20 59 -30.5 125.5t-10.5 132.5q0 94 21 147q18 53 46.5 67.5t47.5 14.5q61 0 94 -61q23 -49 23 -119q0 -76 -25 -158.5t-66 -148.5q-4 -4 -8 -12q39 -84 78 -84q16 0 28.5 -12.5t12.5 -28.5t-12.5 -28.5t-28.5 -12.5 q-29 0 -64.5 18.5t-70.5 77.5q-23 -23 -53 -43q-78 -53 -170 -53h-2q-166 0 -244 135q-29 51 -42 118.5t-7 145.5zM92 971q-2 43 7.5 94t50.5 76q47 27 105 -2t124 -70q29 -16 56.5 -33.5t51.5 -27.5q29 -12 41.5 -13.5t16.5 2.5q4 2 14 20.5t12 78.5q4 39 43 39 q16 0 28.5 -12.5t10.5 -28.5q-2 -133 -69 -170q-24 -13 -49 -13q-47 0 -97.5 28t-101.5 60q-29 18 -54.5 34t-48.5 26t-34 10h-9q-2 0 -10 -16.5t-6 -77.5q2 -16 -10 -29.5t-29 -13.5q-16 -2 -28.5 10t-14.5 29zM557 428q0 -84 18 -164q23 51 36.5 106.5t13.5 106.5 q0 43 -9.5 70.5t-25.5 27.5q-8 0 -19 -26q-8 -23 -11 -53.5t-3 -67.5z" />
<glyph unicode="&#xe4;" horiz-adv-x="747" d="M33 391q4 72 24.5 139.5t51.5 120.5q80 139 192 140q72 0 117 -58q31 -39 39 -94t-8 -115q-4 -16 -19.5 -25.5t-32.5 -4.5q-16 4 -24 19t-4 32q10 41 7 77.5t-22 59.5q-20 27 -53 27q-23 0 -41 -10.5t-33.5 -26t-27 -31.5t-19.5 -31q-25 -43 -42 -101t-23 -118.5t3 -119 t36 -103.5q53 -94 172 -94q66 0 111.5 29.5t78.5 66.5q-20 59 -30.5 125.5t-10.5 132.5q0 94 21 147q18 53 46.5 67.5t47.5 14.5q61 0 94 -61q23 -49 23 -119q0 -76 -25 -158.5t-66 -148.5q-4 -4 -8 -12q39 -84 78 -84q16 0 28.5 -12.5t12.5 -28.5t-12.5 -28.5t-28.5 -12.5 q-29 0 -64.5 18.5t-70.5 77.5q-23 -23 -53 -43q-78 -53 -170 -53h-2q-166 0 -244 135q-29 51 -42 118.5t-7 145.5zM240 967q0 16 12 28.5t29 12.5q16 0 28.5 -12.5t12.5 -28.5t-12.5 -28.5t-28.5 -12.5t-28.5 12t-12.5 29zM424 967q0 16 12.5 28.5t28.5 12.5t28.5 -12.5 t12.5 -28.5t-12.5 -28.5t-28.5 -12.5t-28.5 12t-12.5 29zM557 428q0 -84 18 -164q23 51 36.5 106.5t13.5 106.5q0 43 -9.5 70.5t-25.5 27.5q-8 0 -19 -26q-8 -23 -11 -53.5t-3 -67.5z" />
<glyph unicode="&#xe5;" horiz-adv-x="747" d="M33 391q4 72 24.5 139.5t51.5 120.5q80 139 192 140q72 0 117 -58q31 -39 39 -94t-8 -115q-4 -16 -19.5 -25.5t-32.5 -4.5q-16 4 -24 19t-4 32q10 41 7 77.5t-22 59.5q-20 27 -53 27q-23 0 -41 -10.5t-33.5 -26t-27 -31.5t-19.5 -31q-25 -43 -42 -101t-23 -118.5t3 -119 t36 -103.5q53 -94 172 -94q66 0 111.5 29.5t78.5 66.5q-20 59 -30.5 125.5t-10.5 132.5q0 94 21 147q18 53 46.5 67.5t47.5 14.5q61 0 94 -61q23 -49 23 -119q0 -76 -25 -158.5t-66 -148.5q-4 -4 -8 -12q39 -84 78 -84q16 0 28.5 -12.5t12.5 -28.5t-12.5 -28.5t-28.5 -12.5 q-29 0 -64.5 18.5t-70.5 77.5q-23 -23 -53 -43q-78 -53 -170 -53h-2q-166 0 -244 135q-29 51 -42 118.5t-7 145.5zM221 999q0 74 51 125t125 52q72 0 127 -52q51 -51 51 -125q0 -72 -51 -127q-55 -51 -127 -51q-74 0 -125 51q-51 55 -51 127zM303 999q0 -41 26.5 -68.5 t67.5 -27.5t69 27.5t28 68.5t-28 68t-69 27t-67.5 -27t-26.5 -68zM557 428q0 -84 18 -164q23 51 36.5 106.5t13.5 106.5q0 43 -9.5 70.5t-25.5 27.5q-8 0 -19 -26q-8 -23 -11 -53.5t-3 -67.5z" />
<glyph unicode="&#xe6;" horiz-adv-x="1335" d="M33 391q4 72 24.5 139.5t51.5 120.5q80 139 192 140q72 0 117 -58q31 -39 39 -94t-8 -115q-4 -16 -19.5 -25.5t-32.5 -4.5q-16 4 -24 19t-4 32q10 41 7 77.5t-22 59.5q-20 27 -53 27q-23 0 -41 -10.5t-33.5 -26t-27 -31.5t-19.5 -31q-25 -43 -42 -101t-23 -118.5t3 -119 t36 -103.5q53 -94 172 -94q66 0 111.5 29.5t78.5 66.5q-20 59 -30.5 125.5t-10.5 132.5q0 94 21 147q18 53 46.5 67.5t47.5 14.5q61 0 94 -61q0 -4 4 -8q25 51 68 96q68 74 155 92q53 10 99.5 -4t76.5 -49q59 -74 59.5 -167t-59.5 -187q-37 -57 -91 -104.5t-119 -78.5 q-29 -14 -56.5 -23t-56.5 -16q53 -61 143 -71q39 -4 84 1t90 23.5t87 49t73 79.5q10 14 26.5 18.5t30.5 -5.5t18.5 -26.5t-5.5 -31.5q-74 -113 -203 -161q-47 -18 -90 -24.5t-76 -6.5q-12 0 -23.5 1t-19.5 1q-143 16 -219 129l-12 18q-16 2 -31.5 4t-32.5 7 q-59 -90 -128.5 -125t-147.5 -35h-2q-166 0 -244 135q-29 51 -42 118.5t-7 145.5zM557 428q0 -84 18 -164q23 51 36.5 106.5t13.5 106.5q0 43 -9.5 70.5t-25.5 27.5q-8 0 -19 -26q-8 -23 -11 -53.5t-3 -67.5zM719 225q92 10 173 63.5t126 125.5q10 16 23.5 44.5t19.5 63.5 t0 73t-37 75q-25 28 -70 28h-13t-13 -2q-23 -4 -51.5 -19t-61.5 -50q-63 -70 -96 -183q-35 -123 0 -219z" />
<glyph unicode="&#xe7;" horiz-adv-x="741" d="M29 279q-8 90 18 188q37 133 113 219q68 76 153 98q53 14 102.5 1t84.5 -48q74 -80 35 -207q-4 -16 -19.5 -23t-32.5 -3q-16 4 -23 19.5t-3 31.5q25 84 -17 125q-39 41 -108 25q-66 -16 -121 -85t-86 -176q-23 -78 -15.5 -149.5t42.5 -124.5q49 -74 139 -92l4 12 q4 16 18.5 25.5t30.5 5.5t25.5 -17.5t5.5 -29.5q72 6 146.5 42t125.5 113q10 14 25.5 18.5t32.5 -5.5q14 -10 18 -26.5t-6 -31.5q-74 -113 -203 -161q-45 -16 -86 -22.5t-72 -8.5l-22 -96q51 4 88 -9q66 -18 102 -67q33 -41 34 -95.5t-28 -103.5q-41 -66 -120 -96 q-29 -10 -59.5 -15.5t-65.5 -5.5q-39 0 -78 7q-16 4 -26.5 17t-8.5 30q4 16 17.5 26t29.5 8q86 -14 149.5 5.5t92.5 66.5q16 27 15 55.5t-17 51.5q-23 31 -67 40t-103 -6q-20 -6 -37 11q-16 16 -12 37l32 147q-119 23 -188 123q-23 35 -37 74t-18 82z" />
<glyph unicode="&#xe8;" horiz-adv-x="792" d="M25 203q4 16 18 24.5t31 3.5q4 0 8 -1t8 -1q-4 12 -6 24.5t-4 25.5q-8 90 18 188q37 133 115 217q68 74 156 92q53 10 99 -4t77 -49q59 -74 59 -167t-59 -187q-37 -57 -91.5 -104.5t-119.5 -78.5q-29 -14 -56.5 -23t-56.5 -16q53 -61 144 -71q39 -4 84 1t90 23.5t87 49 t72 79.5q10 14 26.5 18.5t31.5 -5.5q14 -10 18 -26.5t-6 -31.5q-74 -113 -203 -161q-47 -18 -90 -24.5t-76 -6.5q-12 0 -23 1t-20 1q-143 16 -219 129l-12 18q-39 4 -72 13q-16 4 -24.5 18t-3.5 31zM176 225q92 10 173 63.5t126 125.5q10 16 23.5 44.5t19.5 63.5t0 73 t-37 75q-24 28 -69 28h-13.5t-13.5 -2q-23 -4 -51.5 -19t-61.5 -50q-63 -70 -96 -183q-35 -123 0 -219zM251 1124.5q3 16.5 14 26.5t27.5 10t31.5 -16l163 -164q14 -16 11.5 -32.5t-14 -27t-28 -10.5t-30.5 17l-164 164q-14 16 -11 32.5z" />
<glyph unicode="&#xe9;" horiz-adv-x="792" d="M25 203q4 16 18 24.5t31 3.5q4 0 8 -1t8 -1q-4 12 -6 24.5t-4 25.5q-8 90 18 188q37 133 115 217q68 74 156 92q53 10 99 -4t77 -49q59 -74 59 -167t-59 -187q-37 -57 -91.5 -104.5t-119.5 -78.5q-29 -14 -56.5 -23t-56.5 -16q53 -61 144 -71q39 -4 84 1t90 23.5t87 49 t72 79.5q10 14 26.5 18.5t31.5 -5.5q14 -10 18 -26.5t-6 -31.5q-74 -113 -203 -161q-47 -18 -90 -24.5t-76 -6.5q-12 0 -23 1t-20 1q-143 16 -219 129l-12 18q-39 4 -72 13q-16 4 -24.5 18t-3.5 31zM176 225q92 10 173 63.5t126 125.5q10 16 23.5 44.5t19.5 63.5t0 73 t-37 75q-24 28 -69 28h-13.5t-13.5 -2q-23 -4 -51.5 -19t-61.5 -50q-63 -70 -96 -183q-35 -123 0 -219zM333 948.5q-3 16.5 11 32.5l164 164q14 16 30.5 16t28 -10t14.5 -26.5t-12 -32.5l-163 -164q-14 -16 -31 -16.5t-28 10t-14 27z" />
<glyph unicode="&#xea;" horiz-adv-x="792" d="M25 203q4 16 18 24.5t31 3.5q4 0 8 -1t8 -1q-4 12 -6 24.5t-4 25.5q-8 90 18 188q37 133 115 217q68 74 156 92q53 10 99 -4t77 -49q59 -74 59 -167t-59 -187q-37 -57 -91.5 -104.5t-119.5 -78.5q-29 -14 -56.5 -23t-56.5 -16q53 -61 144 -71q39 -4 84 1t90 23.5t87 49 t72 79.5q10 14 26.5 18.5t31.5 -5.5q14 -10 18 -26.5t-6 -31.5q-74 -113 -203 -161q-47 -18 -90 -24.5t-76 -6.5q-12 0 -23 1t-20 1q-143 16 -219 129l-12 18q-39 4 -72 13q-16 4 -24.5 18t-3.5 31zM176 225q92 10 173 63.5t126 125.5q10 16 23.5 44.5t19.5 63.5t0 73 t-37 75q-24 28 -69 28h-13.5t-13.5 -2q-23 -4 -51.5 -19t-61.5 -50q-63 -70 -96 -183q-35 -123 0 -219zM227 940q-4 16 9 33l120 168q10 16 31 24.5t45 -24.5l123 -168q12 -16 8 -32.5t-16 -26t-28.5 -8.5t-29.5 18l-94 131l-94 -131q-12 -16 -28.5 -17.5t-29 8t-16.5 25.5z " />
<glyph unicode="&#xeb;" horiz-adv-x="792" d="M25 203q4 16 18 24.5t31 3.5q4 0 8 -1t8 -1q-4 12 -6 24.5t-4 25.5q-8 90 18 188q37 133 115 217q68 74 156 92q53 10 99 -4t77 -49q59 -74 59 -167t-59 -187q-37 -57 -91.5 -104.5t-119.5 -78.5q-29 -14 -56.5 -23t-56.5 -16q53 -61 144 -71q39 -4 84 1t90 23.5t87 49 t72 79.5q10 14 26.5 18.5t31.5 -5.5q14 -10 18 -26.5t-6 -31.5q-74 -113 -203 -161q-47 -18 -90 -24.5t-76 -6.5q-12 0 -23 1t-20 1q-143 16 -219 129l-12 18q-39 4 -72 13q-16 4 -24.5 18t-3.5 31zM176 225q92 10 173 63.5t126 125.5q10 16 23.5 44.5t19.5 63.5t0 73 t-37 75q-24 28 -69 28h-13.5t-13.5 -2q-23 -4 -51.5 -19t-61.5 -50q-63 -70 -96 -183q-35 -123 0 -219zM262 967q0 16 12.5 28.5t28.5 12.5t28.5 -12.5t12.5 -28.5t-12.5 -28.5t-28.5 -12.5t-28.5 12t-12.5 29zM446 967q0 16 12.5 28.5t28.5 12.5t28.5 -12.5t12.5 -28.5 t-12 -28.5t-29 -12.5q-16 0 -28.5 12t-12.5 29z" />
<glyph unicode="&#xec;" horiz-adv-x="274" d="M1 1124.5q3 16.5 14.5 26.5t27.5 10t31 -16l164 -164q14 -16 11 -32.5t-14.5 -27t-28 -10.5t-30.5 17l-164 164q-14 16 -11 32.5zM59 33q0 16 12.5 28.5t28.5 12.5q2 0 4 2q4 4 12.5 26.5t12.5 85.5q4 47 2 102.5t-4 112.5q-4 143 0 233.5t41 129.5q25 25 57 25 q16 0 28.5 -12.5t12.5 -28.5t-11 -27.5t-28 -13.5q-4 -4 -10 -22.5t-10 -72.5q-2 -45 -1 -99t3 -109q6 -154 1 -249.5t-46 -138.5q-31 -26 -64 -26q-16 0 -28.5 12t-12.5 29z" />
<glyph unicode="&#xed;" horiz-adv-x="358" d="M4 33q0 16 12.5 28.5t28.5 12.5q2 0 4 2q4 4 12.5 26.5t12.5 85.5q4 47 2 102.5t-4 112.5q-4 143 0 233.5t41 129.5q25 25 57 25q16 0 28.5 -12.5t12.5 -28.5t-11.5 -27.5t-27.5 -13.5q-4 -4 -10 -22.5t-10 -72.5q-2 -45 -1 -99t3 -109q6 -154 1 -249.5t-46 -138.5 q-31 -26 -64 -26q-16 0 -28.5 12t-12.5 29zM109.5 948.5q-3.5 16.5 11.5 32.5l164 164q14 16 30.5 16t27.5 -10t14 -26.5t-11 -32.5l-164 -164q-14 -16 -30.5 -16.5t-27.5 10t-14.5 27z" />
<glyph unicode="&#xee;" horiz-adv-x="335" d="M-2 940q-4 16 8 33l121 168q10 16 30.5 24.5t45.5 -24.5l123 -168q12 -16 8 -32.5t-16.5 -26t-29 -8.5t-28.5 18l-94 131l-94 -131q-12 -16 -28.5 -17.5t-29 8t-16.5 25.5zM59 33q0 16 12.5 28.5t28.5 12.5q2 0 4 2q4 4 12.5 26.5t12.5 85.5q4 47 2 102.5t-4 112.5 q-4 143 0 233.5t41 129.5q25 25 57 25q16 0 28.5 -12.5t12.5 -28.5t-11 -27.5t-28 -13.5q-4 -4 -10 -22.5t-10 -72.5q-2 -45 -1 -99t3 -109q6 -154 1 -249.5t-46 -138.5q-31 -26 -64 -26q-16 0 -28.5 12t-12.5 29z" />
<glyph unicode="&#xef;" horiz-adv-x="219" d="M-6 967q0 16 12 28.5t29 12.5q16 0 28.5 -12.5t12.5 -28.5t-12.5 -28.5t-28.5 -12.5t-28.5 12t-12.5 29zM4 33q0 16 12.5 28.5t28.5 12.5q2 0 4 2q4 4 12.5 26.5t12.5 85.5q4 47 2 102.5t-4 112.5q-4 143 0 233.5t41 129.5q25 25 57 25q16 0 28.5 -12.5t12.5 -28.5 t-11.5 -27.5t-27.5 -13.5q-4 -4 -10 -22.5t-10 -72.5q-2 -45 -1 -99t3 -109q6 -154 1 -249.5t-46 -138.5q-31 -26 -64 -26q-16 0 -28.5 12t-12.5 29zM178 967q0 16 12.5 28.5t28.5 12.5t28.5 -12.5t12.5 -28.5t-12 -28.5t-29 -12.5q-16 0 -28.5 12t-12.5 29z" />
<glyph unicode="&#xf0;" horiz-adv-x="847" d="M18 410q0 78 26 149.5t75 124.5q115 127 305 127q111 0 201 -53q25 -16 48 -36t44 -44q-31 166 -97.5 291t-152.5 209l-133 -136q-12 -12 -29 -12q-18 0 -31 12q-10 10 -10 27.5t10 30.5l132 133q-53 43 -106.5 68.5t-104.5 35.5q-16 4 -25.5 18.5t-5.5 30.5t17.5 26.5 t29.5 6.5q66 -14 129 -47t123 -80l115 115q29 29 57 0q12 -10 12 -27.5t-10 -29.5l-113 -113q54 -56 101 -119q35 -51 69.5 -120.5t62 -158.5t44 -199t14.5 -239q0 -119 -53 -213q-51 -88 -138 -135t-204 -47q-186 0 -301 127q-49 55 -75 127t-26 150zM100 410 q0 -59 19.5 -116.5t58.5 -103t99.5 -74t142.5 -28.5q59 0 103 13.5t77 34t54.5 44.5t35.5 49q45 78 43 174.5t-49 178.5q-41 72 -107.5 109.5t-150.5 37.5h-2q-156 0 -244 -98q-80 -90 -80 -221z" />
<glyph unicode="&#xf1;" horiz-adv-x="761" d="M31 190q0 88 27.5 189.5t74.5 189.5l19 33q-23 61 -41.5 86t-28.5 25q-16 0 -27.5 13t-11.5 30q2 16 13.5 27.5t27.5 11.5h2q70 -2 123 -115q102 115 217 115q129 0 207 -95q104 -129 92 -415q-2 -53 -7 -98.5t-10.5 -80t-9.5 -55t-4 -22.5q-4 -16 -17 -26.5t-30 -6.5 q-39 10 -33 49l6 34q7 34 13 87t10 118.5t-1 133t-22.5 128t-50.5 103.5q-51 63 -143 64q-59 0 -105.5 -39t-78.5 -84q0 -2 1 -2t1 -2q23 -78 36 -171t9 -173q-2 -80 -16.5 -129.5t-35 -75t-43 -33.5t-40.5 -8q-66 0 -101 65q-23 51 -22 129zM100 971q-2 43 7.5 94t50.5 76 q47 27 105.5 -2t123.5 -70q29 -16 56.5 -33.5t52.5 -27.5q29 -12 41 -13.5t16 2.5q4 2 14.5 20.5t12.5 78.5q4 39 43 39q16 0 28.5 -12.5t10.5 -28.5q-2 -133 -70 -170q-24 -13 -49 -13q-47 0 -97.5 28t-101.5 60q-29 18 -54.5 34t-47.5 26q-23 10 -35 10h-8 q-2 0 -10.5 -16.5t-6.5 -77.5q2 -16 -10 -29.5t-29 -13.5q-16 -2 -28.5 10t-14.5 29zM113 190q0 -41 9 -76.5t32 -35.5q4 0 13 4t19 29q20 51 21 133q2 55 -4 118.5t-19 124.5q-35 -72 -53 -151.5t-18 -145.5z" />
<glyph unicode="&#xf2;" horiz-adv-x="739" d="M20 322q-4 106 35 186q45 96 125 102q16 2 29.5 -9t15.5 -28q2 -16 -9 -29.5t-28 -15.5q-33 -2 -59 -55q-31 -66 -27 -147q0 -23 8.5 -64t32 -82t68.5 -71.5t123 -30.5t125 40t73 83q-55 25 -104 61q-106 76 -137 178q-29 80 -25 158q4 84 37 133q39 57 100 64 q61 6 112.5 -20.5t88.5 -80.5q33 -47 49.5 -112.5t18.5 -139.5q0 -100 -29 -192q10 -4 19.5 -5t19.5 -3q16 -4 26.5 -17.5t8.5 -29.5q-4 -16 -18.5 -26.5t-30.5 -8.5q-14 4 -28.5 7t-29.5 7q-47 -86 -117.5 -132t-158.5 -46q-154 0 -238 106q-70 88 -76 220zM245 1124.5 q3 16.5 14 26.5t27.5 10t30.5 -16l164 -164q14 -16 11 -32.5t-14 -27t-27.5 -10.5t-30.5 17l-164 164q-14 16 -11 32.5zM347 590.5q-1 -60.5 22 -125.5q10 -37 38.5 -72t69.5 -65q39 -29 88 -52q14 47 20.5 98.5t3.5 100.5t-16.5 94t-35.5 78q-41 66 -111 66h-14 q-23 -2 -41 -27q-23 -35 -24 -95.5z" />
<glyph unicode="&#xf3;" horiz-adv-x="739" d="M20 322q-4 106 35 186q45 96 125 102q16 2 29.5 -9t15.5 -28q2 -16 -9 -29.5t-28 -15.5q-33 -2 -59 -55q-31 -66 -27 -147q0 -23 8.5 -64t32 -82t68.5 -71.5t123 -30.5t125 40t73 83q-55 25 -104 61q-106 76 -137 178q-29 80 -25 158q4 84 37 133q39 57 100 64 q61 6 112.5 -20.5t88.5 -80.5q33 -47 49.5 -112.5t18.5 -139.5q0 -100 -29 -192q10 -4 19.5 -5t19.5 -3q16 -4 26.5 -17.5t8.5 -29.5q-4 -16 -18.5 -26.5t-30.5 -8.5q-14 4 -28.5 7t-29.5 7q-47 -86 -117.5 -132t-158.5 -46q-154 0 -238 106q-70 88 -76 220zM245 948.5 q-3 16.5 11 32.5l164 164q14 16 30.5 16t27.5 -10t14.5 -26.5t-11.5 -32.5l-164 -164q-14 -16 -30.5 -16.5t-27.5 10t-14 27zM347 590.5q-1 -60.5 22 -125.5q10 -37 38.5 -72t69.5 -65q39 -29 88 -52q14 47 20.5 98.5t3.5 100.5t-16.5 94t-35.5 78q-41 66 -111 66h-14 q-23 -2 -41 -27q-23 -35 -24 -95.5z" />
<glyph unicode="&#xf4;" horiz-adv-x="739" d="M20 322q-4 106 35 186q45 96 125 102q16 2 29.5 -9t15.5 -28q2 -16 -9 -29.5t-28 -15.5q-33 -2 -59 -55q-31 -66 -27 -147q0 -23 8.5 -64t32 -82t68.5 -71.5t123 -30.5t125 40t73 83q-55 25 -104 61q-106 76 -137 178q-29 80 -25 158q4 84 37 133q39 57 100 64 q61 6 112.5 -20.5t88.5 -80.5q33 -47 49.5 -112.5t18.5 -139.5q0 -100 -29 -192q10 -4 19.5 -5t19.5 -3q16 -4 26.5 -17.5t8.5 -29.5q-4 -16 -18.5 -26.5t-30.5 -8.5q-14 4 -28.5 7t-29.5 7q-47 -86 -117.5 -132t-158.5 -46q-154 0 -238 106q-70 88 -76 220zM201 940 q-4 16 8 33l121 168q10 16 30.5 24.5t45.5 -24.5l122 -168q12 -16 8 -32.5t-16 -26t-28.5 -8.5t-28.5 18l-94 131l-95 -131q-12 -16 -28.5 -17.5t-28.5 8t-16 25.5zM347 590.5q-1 -60.5 22 -125.5q10 -37 38.5 -72t69.5 -65q39 -29 88 -52q14 47 20.5 98.5t3.5 100.5 t-16.5 94t-35.5 78q-41 66 -111 66h-14q-23 -2 -41 -27q-23 -35 -24 -95.5z" />
<glyph unicode="&#xf5;" horiz-adv-x="739" d="M20 322q-4 106 35 186q45 96 125 102q16 2 29.5 -9t15.5 -28q2 -16 -9 -29.5t-28 -15.5q-33 -2 -59 -55q-31 -66 -27 -147q0 -23 8.5 -64t32 -82t68.5 -71.5t123 -30.5t125 40t73 83q-55 25 -104 61q-106 76 -137 178q-29 80 -25 158q4 84 37 133q39 57 100 64 q61 6 112.5 -20.5t88.5 -80.5q33 -47 49.5 -112.5t18.5 -139.5q0 -100 -29 -192q10 -4 19.5 -5t19.5 -3q16 -4 26.5 -17.5t8.5 -29.5q-4 -16 -18.5 -26.5t-30.5 -8.5q-14 4 -28.5 7t-29.5 7q-47 -86 -117.5 -132t-158.5 -46q-154 0 -238 106q-70 88 -76 220zM88 971 q-2 43 7 94t50 76q47 27 105.5 -2t124.5 -70q29 -16 56.5 -33.5t51.5 -27.5q29 -12 41.5 -13.5t16.5 2.5q4 2 14 20.5t12 78.5q4 39 43 39q16 0 28.5 -12.5t10.5 -28.5q-2 -133 -69 -170q-25 -13 -50 -13q-47 0 -97 28t-101 60q-29 18 -54.5 34t-48.5 26t-34 10h-9 q-2 0 -10 -16.5t-6 -77.5q2 -16 -10.5 -29.5t-28.5 -13.5q-16 -2 -28.5 10t-14.5 29zM347 590.5q-1 -60.5 22 -125.5q10 -37 38.5 -72t69.5 -65q39 -29 88 -52q14 47 20.5 98.5t3.5 100.5t-16.5 94t-35.5 78q-41 66 -111 66h-14q-23 -2 -41 -27q-23 -35 -24 -95.5z" />
<glyph unicode="&#xf6;" horiz-adv-x="739" d="M20 322q-4 106 35 186q45 96 125 102q16 2 29.5 -9t15.5 -28q2 -16 -9 -29.5t-28 -15.5q-33 -2 -59 -55q-31 -66 -27 -147q0 -23 8.5 -64t32 -82t68.5 -71.5t123 -30.5t125 40t73 83q-55 25 -104 61q-106 76 -137 178q-29 80 -25 158q4 84 37 133q39 57 100 64 q61 6 112.5 -20.5t88.5 -80.5q33 -47 49.5 -112.5t18.5 -139.5q0 -100 -29 -192q10 -4 19.5 -5t19.5 -3q16 -4 26.5 -17.5t8.5 -29.5q-4 -16 -18.5 -26.5t-30.5 -8.5q-14 4 -28.5 7t-29.5 7q-47 -86 -117.5 -132t-158.5 -46q-154 0 -238 106q-70 88 -76 220zM236 967 q0 16 12 28.5t28 12.5t28.5 -12.5t12.5 -28.5t-12 -28.5t-29 -12.5q-16 0 -28 12t-12 29zM347 590.5q-1 -60.5 22 -125.5q10 -37 38.5 -72t69.5 -65q39 -29 88 -52q14 47 20.5 98.5t3.5 100.5t-16.5 94t-35.5 78q-41 66 -111 66h-14q-23 -2 -41 -27q-23 -35 -24 -95.5z M420 967q0 16 12 28.5t29 12.5q16 0 28.5 -12.5t12.5 -28.5t-12.5 -28.5t-28.5 -12.5t-28.5 12t-12.5 29z" />
<glyph unicode="&#xf8;" horiz-adv-x="739" d="M-5 16.5q-3 16.5 9 32.5l70 86q-49 82 -54 187q-4 106 35 186q45 96 125 102q16 2 29.5 -9t15.5 -28q2 -16 -9 -29.5t-28 -15.5q-33 -2 -59 -55q-31 -66 -27 -147q0 -18 5.5 -52t21.5 -71l172 211q-8 16 -10 26q-29 80 -25 158q4 84 37 133q39 57 100 64q92 8 162 -58 l27 33q12 16 29.5 16t30 -10t15.5 -26.5t-10 -32.5l-39 -47q49 -94 54 -228q0 -100 -29 -192q10 -4 19.5 -5t19.5 -3q16 -4 26.5 -17.5t8.5 -29.5q-4 -16 -18.5 -26.5t-30.5 -8.5q-14 4 -28.5 7t-29.5 7q-47 -86 -117.5 -132t-158.5 -46q-125 0 -207 72l-57 -72 q-12 -16 -29.5 -16t-30 10t-15.5 26.5zM180 131q25 -23 63 -38t91 -15q78 0 125 40t73 83q-55 25 -104 61q-47 35 -80 76zM347.5 601q-3.5 -54 12.5 -114l154 187q-37 39 -88 39h-14q-23 -2 -41 -27q-20 -31 -23.5 -85zM399 401q33 -42 78 -73q39 -29 88 -52q27 78 26 166 t-30 156z" />
<glyph unicode="&#xf9;" horiz-adv-x="761" d="M37 502q2 51 7 97t10 81t9.5 55.5t4.5 22.5q4 16 17 26.5t30 6.5q39 -10 32 -50q0 -2 -6 -34.5t-12 -86t-10 -119t1 -133t22.5 -128t50.5 -103.5q51 -63 143 -63q59 0 105 39t79 84q0 2 -1 2t-1 2q-23 78 -36 171t-9 173q2 80 16.5 129t35 74.5t43 34t40.5 8.5 q66 0 101 -66q23 -51 22 -129q0 -88 -27.5 -189.5t-74.5 -189.5l-19 -33q23 -61 41.5 -85.5t28.5 -24.5q16 0 27.5 -13.5t11.5 -29.5q-2 -16 -13.5 -27.5t-27.5 -11.5h-2q-70 2 -123 114q-49 -55 -103.5 -84.5t-113.5 -29.5q-129 0 -207 94q-104 129 -92 416zM196 1124.5 q3 16.5 14 26.5t27.5 10t30.5 -16l164 -164q14 -16 11 -32.5t-14 -27t-27.5 -10.5t-30.5 17l-164 164q-14 16 -11 32.5zM555 543q-2 -55 4 -119t19 -125q35 72 53 151.5t18 145.5q0 41 -9 77t-32 36q-4 0 -13 -4.5t-20 -28.5q-20 -51 -20 -133z" />
<glyph unicode="&#xfa;" horiz-adv-x="761" d="M37 502q2 51 7 97t10 81t9.5 55.5t4.5 22.5q4 16 17 26.5t30 6.5q39 -10 32 -50q0 -2 -6 -34.5t-12 -86t-10 -119t1 -133t22.5 -128t50.5 -103.5q51 -63 143 -63q59 0 105 39t79 84q0 2 -1 2t-1 2q-23 78 -36 171t-9 173q2 80 16.5 129t35 74.5t43 34t40.5 8.5 q66 0 101 -66q23 -51 22 -129q0 -88 -27.5 -189.5t-74.5 -189.5l-19 -33q23 -61 41.5 -85.5t28.5 -24.5q16 0 27.5 -13.5t11.5 -29.5q-2 -16 -13.5 -27.5t-27.5 -11.5h-2q-70 2 -123 114q-49 -55 -103.5 -84.5t-113.5 -29.5q-129 0 -207 94q-104 129 -92 416zM277.5 948.5 q-3.5 16.5 11.5 32.5l164 164q14 16 30.5 16t27.5 -10t14 -26.5t-11 -32.5l-164 -164q-14 -16 -30.5 -16.5t-27.5 10t-14.5 27zM555 543q-2 -55 4 -119t19 -125q35 72 53 151.5t18 145.5q0 41 -9 77t-32 36q-4 0 -13 -4.5t-20 -28.5q-20 -51 -20 -133z" />
<glyph unicode="&#xfb;" horiz-adv-x="761" d="M37 502q2 51 7 97t10 81t9.5 55.5t4.5 22.5q4 16 17 26.5t30 6.5q39 -10 32 -50q0 -2 -6 -34.5t-12 -86t-10 -119t1 -133t22.5 -128t50.5 -103.5q51 -63 143 -63q59 0 105 39t79 84q0 2 -1 2t-1 2q-23 78 -36 171t-9 173q2 80 16.5 129t35 74.5t43 34t40.5 8.5 q66 0 101 -66q23 -51 22 -129q0 -88 -27.5 -189.5t-74.5 -189.5l-19 -33q23 -61 41.5 -85.5t28.5 -24.5q16 0 27.5 -13.5t11.5 -29.5q-2 -16 -13.5 -27.5t-27.5 -11.5h-2q-70 2 -123 114q-49 -55 -103.5 -84.5t-113.5 -29.5q-129 0 -207 94q-104 129 -92 416zM213 940 q-4 16 8 33l121 168q10 16 30.5 24.5t45.5 -24.5l123 -168q12 -16 8 -32.5t-16.5 -26t-29 -8.5t-28.5 18l-94 131l-94 -131q-12 -16 -28.5 -17.5t-29 8t-16.5 25.5zM555 543q-2 -55 4 -119t19 -125q35 72 53 151.5t18 145.5q0 41 -9 77t-32 36q-4 0 -13 -4.5t-20 -28.5 q-20 -51 -20 -133z" />
<glyph unicode="&#xfc;" horiz-adv-x="761" d="M37 502q2 51 7 97t10 81t9.5 55.5t4.5 22.5q4 16 17 26.5t30 6.5q39 -10 32 -50q0 -2 -6 -34.5t-12 -86t-10 -119t1 -133t22.5 -128t50.5 -103.5q51 -63 143 -63q59 0 105 39t79 84q0 2 -1 2t-1 2q-23 78 -36 171t-9 173q2 80 16.5 129t35 74.5t43 34t40.5 8.5 q66 0 101 -66q23 -51 22 -129q0 -88 -27.5 -189.5t-74.5 -189.5l-19 -33q23 -61 41.5 -85.5t28.5 -24.5q16 0 27.5 -13.5t11.5 -29.5q-2 -16 -13.5 -27.5t-27.5 -11.5h-2q-70 2 -123 114q-49 -55 -103.5 -84.5t-113.5 -29.5q-129 0 -207 94q-104 129 -92 416zM227 967 q0 16 12.5 28.5t28.5 12.5t28.5 -12.5t12.5 -28.5t-12 -28.5t-29 -12.5q-16 0 -28.5 12t-12.5 29zM412 967q0 16 12 28.5t29 12.5q16 0 28.5 -12.5t12.5 -28.5t-12.5 -28.5t-28.5 -12.5t-28.5 12t-12.5 29zM555 543q-2 -55 4 -119t19 -125q35 72 53 151.5t18 145.5 q0 41 -9 77t-32 36q-4 0 -13 -4.5t-20 -28.5q-20 -51 -20 -133z" />
<glyph unicode="&#xfd;" horiz-adv-x="849" d="M25 502q2 51 7 97t10 81t9 55.5t4 22.5q4 16 17.5 26.5t29.5 6.5q39 -10 33 -50q0 -2 -6 -34.5t-12 -86t-10.5 -119t1 -133t21.5 -128t51 -103.5q51 -63 144 -63q61 0 109 43t81 90q-14 59 -24.5 122.5t-16.5 123.5q-8 109 2 182.5t39 112.5q31 43 82 43q66 0 100 -66 q23 -51 23 -129q0 -88 -27.5 -189.5t-75.5 -189.5q-6 -8 -14 -24q4 -14 7 -26.5t7 -25.5l17 -47q66 39 143 58q16 4 30.5 -5.5t18.5 -25.5t-5 -30.5t-25 -18.5q-72 -18 -140 -60q66 -244 78 -438q4 -61 2 -115.5t-12 -99.5q-18 -100 -66 -150q-48 -55 -120 -55q-23 0 -43 6 q-94 20 -147.5 103.5t-53.5 212.5q-2 102 29.5 207.5t91.5 197.5q31 47 67.5 89t79.5 75q-4 16 -9 31.5t-11 32.5q-98 -117 -217 -117q-129 0 -207 94q-104 129 -92 416zM279.5 948.5q-3.5 16.5 11.5 32.5l164 164q14 16 30.5 16t27.5 -10t14 -26.5t-11 -32.5l-164 -164 q-14 -16 -30.5 -16.5t-27.5 10t-14.5 27zM375 -522q0 -25 4 -60.5t18.5 -71.5t41 -66t71.5 -40q55 -12 86 23q35 37 48 115.5t7 191.5q-10 174 -65 389q-51 -47 -91 -105.5t-67 -121t-40 -128t-13 -126.5zM555 461q6 -72 18 -142q31 68 47.5 142t16.5 135q0 41 -9 77t-32 36 q-4 0 -8 -1t-8 -10q-18 -25 -24.5 -88t-0.5 -149z" />
<glyph unicode="&#xfe;" horiz-adv-x="837" d="M35 -799v2294q0 16 12 28.5t29 12.5q16 0 28.5 -12.5t12.5 -28.5v-508q102 25 193 27t171 -17q160 -41 258 -159q85 -111 95 -254q4 -72 -12.5 -140.5t-51.5 -132.5q-41 -76 -103.5 -134t-142.5 -97q-141 -70 -325 -70q-20 0 -40 1t-42 3v-813q0 -18 -12.5 -29.5 t-28.5 -11.5t-28.5 11.5t-12.5 29.5zM117 96q203 -18 354 47.5t227 206.5q29 53 42.5 111.5t10.5 116t-22.5 111.5t-54.5 97q-82 104 -226.5 134t-330.5 -17v-807z" />
<glyph unicode="&#xff;" horiz-adv-x="849" d="M25 502q2 51 7 97t10 81t9 55.5t4 22.5q4 16 17.5 26.5t29.5 6.5q39 -10 33 -50q0 -2 -6 -34.5t-12 -86t-10.5 -119t1 -133t21.5 -128t51 -103.5q51 -63 144 -63q61 0 109 43t81 90q-14 59 -24.5 122.5t-16.5 123.5q-8 109 2 182.5t39 112.5q31 43 82 43q66 0 100 -66 q23 -51 23 -129q0 -88 -27.5 -189.5t-75.5 -189.5q-6 -8 -14 -24q4 -14 7 -26.5t7 -25.5l17 -47q66 39 143 58q16 4 30.5 -5.5t18.5 -25.5t-5 -30.5t-25 -18.5q-72 -18 -140 -60q66 -244 78 -438q4 -61 2 -115.5t-12 -99.5q-18 -100 -66 -150q-48 -55 -120 -55q-23 0 -43 6 q-94 20 -147.5 103.5t-53.5 212.5q-2 102 29.5 207.5t91.5 197.5q31 47 67.5 89t79.5 75q-4 16 -9 31.5t-11 32.5q-98 -117 -217 -117q-129 0 -207 94q-104 129 -92 416zM209 967q0 16 12 28.5t29 12.5q16 0 28.5 -12.5t12.5 -28.5t-12.5 -28.5t-28.5 -12.5t-28.5 12 t-12.5 29zM375 -522q0 -25 4 -60.5t18.5 -71.5t41 -66t71.5 -40q55 -12 86 23q35 37 48 115.5t7 191.5q-10 174 -65 389q-51 -47 -91 -105.5t-67 -121t-40 -128t-13 -126.5zM393 967q0 16 12.5 28.5t28.5 12.5t28.5 -12.5t12.5 -28.5t-12 -28.5t-29 -12.5q-16 0 -28.5 12 t-12.5 29zM555 461q6 -72 18 -142q31 68 47.5 142t16.5 135q0 41 -9 77t-32 36q-4 0 -8 -1t-8 -10q-18 -25 -24.5 -88t-0.5 -149z" />
<glyph unicode="&#x152;" horiz-adv-x="2273" d="M23 625q-4 96 13 186t52 164q41 84 97.5 131t121.5 51q16 2 28.5 -9t14.5 -28q2 -16 -9 -29.5t-28 -15.5q-47 -4 -86 -42t-67.5 -99.5t-44 -140t-11.5 -166.5q4 -96 34 -191.5t89.5 -171.5t153.5 -123t227 -47q90 0 161 26.5t125 67.5t93 92.5t66 100.5q2 8 10 20 q-66 27 -126 59t-114 72q-98 72 -165.5 159t-96.5 177q-51 158 -47 303q6 156 68 248q63 96 172 107q111 12 211 -41q86 -45 151 -144q16 -25 30.5 -52t27.5 -56q25 70 71 125q55 63 141 108q78 39 167 53.5t176 2.5q129 -14 210 -88q92 -82 86 -205q-4 -45 -16 -86t-35 -76 q-45 -66 -110 -92q-55 -25 -111.5 -18.5t-97.5 40.5q-16 12 -33.5 35t-29 59.5t-14.5 88t13 120.5q10 37 49 31q16 -4 25.5 -18.5t5.5 -30.5q-16 -78 -8 -136.5t43 -86.5q25 -20 57.5 -22.5t67.5 12.5q49 23 78.5 70.5t34.5 113.5q2 61 -25 100t-64.5 62.5t-76.5 33 t-60 13.5q-74 10 -151.5 -2.5t-144 -46t-114.5 -89t-67 -130.5q-31 -131 37 -234q68 -102 227 -174q25 10 47.5 16t42.5 11q78 18 153 25t122 -3q47 -8 78.5 -29.5t42.5 -52.5q18 -47 -15 -86q-61 -72 -235 -37q-131 25 -238 68q-94 -33 -168 -94q-80 -68 -92 -154 q14 -4 27.5 -6t27.5 -4q16 -4 27.5 -17.5t7.5 -29.5t-17 -26.5t-30 -6.5l-37 6q29 -104 152 -174q66 -39 156 -60.5t193 -18.5t217 34t226 98q16 10 32 5t26 -19q8 -16 4 -31.5t-19 -25.5q-111 -66 -232.5 -102t-244.5 -40h-33q-104 0 -197 22.5t-169 65.5q-94 53 -146 129 q-41 63 -51 138q-16 4 -22 8l-17 -31q-80 -154 -204 -238q-68 -47 -147 -70.5t-165 -23.5q-143 0 -260 54q-102 47 -182 143q-66 80 -102.5 186.5t-40.5 229.5zM597 1166.5q-1 -62.5 9 -132t33 -139.5q25 -78 84 -154.5t147 -142.5q102 -76 226 -121q39 100 55 213t10 221.5 t-34.5 209t-77.5 175.5q-102 150 -256 150h-15.5t-17.5 -2q-66 -6 -111 -70q-25 -37 -38 -91t-14 -116.5zM1208 565q27 41 74 82q53 45 123 78q-51 27 -91 58.5t-71 66.5q0 -146 -35 -285zM1638 719q29 -10 57.5 -16.5t61.5 -12.5q76 -14 112 -7t44 17q2 2 2 5 q-4 6 -17.5 16t-39.5 14q-35 6 -93.5 2t-126.5 -18z" />
<glyph unicode="&#x153;" horiz-adv-x="1306" d="M20 322q-4 106 35 186q45 96 125 102q16 2 29.5 -9t15.5 -28q2 -16 -9 -29.5t-28 -15.5q-33 -2 -59 -55q-31 -66 -27 -147q0 -23 8.5 -64t32 -82t68.5 -71.5t123 -30.5t125 40t73 83q-55 25 -104 61q-106 76 -137 178q-29 80 -25 158q4 84 37 133q39 57 100 64 q61 6 112.5 -20.5t88.5 -80.5q16 -25 28.5 -53.5t20.5 -62.5q29 59 74 106q68 74 156 92q53 10 99 -4t77 -49q59 -74 59 -167t-59 -187q-37 -57 -91.5 -104.5t-119.5 -78.5q-29 -14 -56.5 -23t-56.5 -16q53 -61 144 -71q39 -4 84 1t90 23.5t87 49t72 79.5q10 14 26.5 18.5 t31.5 -5.5q14 -10 18 -26.5t-6 -31.5q-74 -113 -203 -161q-47 -18 -90 -24.5t-76 -6.5q-12 0 -23 1t-20 1q-143 16 -219 129l-12 18q-25 0 -45 6q-47 -74 -113.5 -112.5t-146.5 -38.5q-154 0 -238 106q-70 88 -76 220zM347 590.5q-1 -60.5 22 -125.5q10 -37 38.5 -72 t69.5 -65q39 -29 88 -52q14 47 20.5 98.5t3.5 100.5t-16.5 94t-35.5 78q-41 66 -111 66h-14q-23 -2 -41 -27q-23 -35 -24 -95.5zM672 337q-2 -52 12 -95q10 -2 23 -15q86 12 162.5 65.5t119.5 121.5q10 16 23.5 44.5t19.5 63.5t0 73t-37 75q-24 28 -69 28h-13.5t-13.5 -2 q-23 -4 -51.5 -19t-61.5 -50q-63 -70 -96 -183q-16 -55 -18 -107z" />
<glyph unicode="&#x178;" horiz-adv-x="1382" d="M23 915q4 94 12 178.5t17 147t17.5 100t8.5 41.5q4 16 18.5 25.5t30.5 5.5t25.5 -18.5t5.5 -30.5l-8 -37q-7 -37 -16 -98.5t-18.5 -143t-11.5 -174.5q-10 -242 27 -415.5t119 -274.5q106 -133 291 -133q66 0 124 25.5t108 65.5t91 89t72 97q-18 98 -36.5 220t-29.5 244 q-8 92 -8 168t4 138q14 156 70 225q45 55 111 55q100 0 155 -102q41 -86 41 -223q0 -76 -13 -161t-38 -177t-59.5 -181.5t-77.5 -167.5l-33 -55l12 -55l4 -17l31 -143q111 49 240 80q16 4 31.5 -4t19.5 -25q4 -16 -5 -31.5t-26 -19.5q-66 -16 -127 -35.5t-117 -46.5 q12 -68 23.5 -142.5t19.5 -150.5q8 -84 9.5 -156.5t-7.5 -131.5q-16 -150 -77 -228q-68 -82 -179 -82q-115 0 -192.5 80t-93.5 211q-12 109 24.5 221.5t116.5 210.5q90 113 229 193l35 20q-10 47 -18 86t-17 74q-29 -39 -59.5 -71.5t-62.5 -59.5q-141 -119 -295 -119 q-223 0 -357 164q-100 125 -141 348q-31 168 -20 397zM475 1683q0 16 12.5 28.5t28.5 12.5t28.5 -12.5t12.5 -28.5t-12.5 -28.5t-28.5 -12.5t-28.5 12.5t-12.5 28.5zM659 1683q0 16 12.5 28.5t28.5 12.5t28.5 -12.5t12.5 -28.5t-12 -28.5t-29 -12.5q-16 0 -28.5 12.5 t-12.5 28.5zM670 -539q12 -100 67.5 -159.5t136.5 -59.5q72 0 115 51q14 20 29.5 54.5t25 88.5t11.5 131t-8 183q-6 68 -16.5 133.5t-20.5 128.5q-66 -39 -121 -83t-96 -97q-70 -86 -102 -182t-21 -189zM944 1042q-2 -84 8 -206q8 -92 19.5 -185.5t27.5 -177.5 q74 145 118 310t44 307q0 27 -3 68.5t-15.5 79.5t-34.5 66.5t-61 28.5q-27 0 -48 -24q-10 -14 -22 -44t-21.5 -84.5t-11.5 -138.5z" />
<glyph unicode="&#x2c6;" horiz-adv-x="432" d="M49 1144.5q-4 16.5 8 33.5l121 168q10 16 30.5 24t45.5 -24l123 -168q12 -16 8 -33t-16.5 -26t-28.5 -8t-29 17l-94 132l-94 -132q-12 -16 -28.5 -17t-29 8t-16.5 25.5z" />
<glyph unicode="&#x2dc;" horiz-adv-x="686" d="M68 1176q-2 43 7 94t50 76q47 27 105.5 -2t123.5 -70q29 -16 56.5 -33.5t52.5 -28.5q29 -12 41 -13t16 3q4 2 14.5 20.5t12.5 77.5q4 39 43 39q16 0 28.5 -12t10.5 -29q-2 -133 -70 -170q-24 -12 -49 -12q-47 0 -97.5 27.5t-101.5 60.5q-29 18 -54.5 33.5t-47.5 26.5 q-23 10 -35 10h-8q-2 0 -10.5 -16.5t-5.5 -77.5q2 -16 -10.5 -29.5t-28.5 -13.5q-16 -2 -28.5 10t-14.5 29z" />
<glyph unicode="&#x2000;" horiz-adv-x="946" />
<glyph unicode="&#x2001;" horiz-adv-x="1892" />
<glyph unicode="&#x2002;" horiz-adv-x="946" />
<glyph unicode="&#x2003;" horiz-adv-x="1892" />
<glyph unicode="&#x2004;" horiz-adv-x="630" />
<glyph unicode="&#x2005;" horiz-adv-x="473" />
<glyph unicode="&#x2006;" horiz-adv-x="315" />
<glyph unicode="&#x2007;" horiz-adv-x="315" />
<glyph unicode="&#x2008;" horiz-adv-x="236" />
<glyph unicode="&#x2009;" horiz-adv-x="378" />
<glyph unicode="&#x200a;" horiz-adv-x="105" />
<glyph unicode="&#x2010;" horiz-adv-x="653" d="M96 547.5q0 15.5 10.5 29t32.5 13.5h375q20 0 31.5 -13.5t11.5 -29t-11 -27.5t-32 -12h-375q-23 0 -33 12t-10 27.5z" />
<glyph unicode="&#x2011;" horiz-adv-x="653" d="M96 547.5q0 15.5 10.5 29t32.5 13.5h375q20 0 31.5 -13.5t11.5 -29t-11 -27.5t-32 -12h-375q-23 0 -33 12t-10 27.5z" />
<glyph unicode="&#x2012;" horiz-adv-x="653" d="M96 547.5q0 15.5 10.5 29t32.5 13.5h375q20 0 31.5 -13.5t11.5 -29t-11 -27.5t-32 -12h-375q-23 0 -33 12t-10 27.5z" />
<glyph unicode="&#x2013;" horiz-adv-x="1216" d="M96 547.5q0 15.5 23.5 29t72.5 13.5h832q45 0 70.5 -13.5t25.5 -29t-24.5 -27.5t-71.5 -12h-832q-52 0 -74 12t-22 27.5z" />
<glyph unicode="&#x2014;" horiz-adv-x="2240" d="M96 547.5q0 15.5 46.5 29t144.5 13.5h1666q89 0 140 -13.5t51 -29t-49 -27.5t-142 -12h-1666q-102 0 -146.5 12t-44.5 27.5z" />
<glyph unicode="&#x2018;" horiz-adv-x="284" d="M55 1073q-25 84 4 146q29 67 107 67q4 0 5 -1t5 -1q16 0 28.5 -13.5t10.5 -29.5t-15.5 -27.5t-29.5 -11.5q-18 2 -25.5 -4t-11.5 -14q-16 -33 2.5 -93.5t67.5 -113.5q12 -12 12 -28.5t-12 -28.5t-29.5 -11.5t-30.5 13.5q-31 33 -53 71.5t-35 79.5z" />
<glyph unicode="&#x2019;" horiz-adv-x="301" d="M84 950q2 16 15.5 27.5t29.5 11.5q18 -2 25.5 4t11.5 15q16 33 -2.5 93t-67.5 113q-12 12 -12 29t12 29t29.5 11t30.5 -13q31 -33 53 -72t35 -80q25 -84 -4 -145q-29 -68 -107 -68q-4 0 -5 1t-5 1q-16 0 -28.5 13.5t-10.5 29.5z" />
<glyph unicode="&#x201a;" horiz-adv-x="299" d="M82 -92q2 16 15.5 27.5t29.5 11.5q18 -2 25.5 4t11.5 14q16 33 -2.5 93.5t-67.5 113.5q-12 12 -12 28.5t12 28.5t29.5 11.5t30.5 -13.5q31 -33 53 -71.5t35 -79.5q25 -84 -4 -146q-29 -67 -107 -67q-4 0 -5 1t-5 1q-16 0 -28.5 13t-10.5 30z" />
<glyph unicode="&#x201c;" horiz-adv-x="569" d="M84 1073q-25 84 4 146q29 67 107 67q4 0 5 -1t5 -1q16 0 28.5 -13.5t10.5 -29.5t-15.5 -27.5t-29.5 -11.5q-18 2 -25.5 -4t-11.5 -14q-16 -33 2 -93.5t67 -113.5q12 -12 12.5 -28.5t-12.5 -28.5q-12 -12 -29.5 -11.5t-29.5 13.5q-31 33 -53.5 71.5t-34.5 79.5zM330 1073 q-25 84 4 146q28 67 106 67q4 0 5 -1t6 -1q16 0 28.5 -13.5t9.5 -29.5q-2 -16 -15 -27.5t-30 -11.5q-18 2 -25 -4t-11 -14q-16 -33 2 -93.5t67 -113.5q12 -12 12 -28.5t-12 -28.5t-29.5 -11.5t-29.5 13.5q-31 33 -53.5 71.5t-34.5 79.5z" />
<glyph unicode="&#x201d;" horiz-adv-x="583" d="M92 950q2 16 15.5 27.5t29.5 11.5q18 -2 25.5 4t11.5 15q16 33 -2 93t-68 113q-12 12 -12 29t12 29t30 11t30 -13q31 -33 53.5 -72t34.5 -80q25 -84 -4 -145q-29 -68 -107 -68q-4 0 -5 1t-5 1q-16 0 -28.5 13.5t-10.5 29.5zM338 950q2 16 15.5 27.5t29.5 11.5 q18 -2 25.5 4t11.5 15q16 33 -2.5 93t-67.5 113q-12 12 -12 29t12 29t29.5 11t30.5 -13q31 -33 53 -72t35 -80q25 -84 -4 -145q-29 -68 -107 -68q-4 0 -5 1t-5 1q-16 0 -28.5 13.5t-10.5 29.5z" />
<glyph unicode="&#x201e;" horiz-adv-x="583" d="M92 -92q2 16 15.5 27.5t29.5 11.5q18 -2 25.5 4t11.5 14q16 33 -2 93.5t-68 113.5q-12 12 -12 28.5t12 28.5t30 11.5t30 -13.5q31 -33 53.5 -71.5t34.5 -79.5q25 -84 -4 -146q-29 -67 -107 -67q-4 0 -5 1t-5 1q-16 0 -28.5 13t-10.5 30zM338 -92q2 16 15.5 27.5 t29.5 11.5q18 -2 25.5 4t11.5 14q16 33 -2.5 93.5t-67.5 113.5q-12 12 -12 28.5t12 28.5t29.5 11.5t30.5 -13.5q31 -33 53 -71.5t35 -79.5q25 -84 -4 -146q-29 -67 -107 -67q-4 0 -5 1t-5 1q-16 0 -28.5 13t-10.5 30z" />
<glyph unicode="&#x202f;" horiz-adv-x="378" />
<glyph unicode="&#x205f;" horiz-adv-x="473" />
<glyph unicode="&#x20ac;" horiz-adv-x="1415" d="M59 547.5q0 15.5 10.5 29t32.5 13.5h56q-4 43 -1 90t9 94h-64q-23 0 -33 12.5t-10 27.5t10.5 28.5t32.5 13.5h80l11 39q72 256 217 416q135 145 303 188q115 29 217 4q53 -10 97 -35.5t79 -60.5q68 -72 86 -168q18 -109 -16 -225q-4 -16 -19.5 -24.5t-32.5 -4.5 q-16 4 -23 19.5t-3 31.5q29 98 15.5 179t-66.5 135q-53 57 -137.5 75.5t-176.5 -6.5q-160 -41 -280.5 -185t-180.5 -362q-4 -12 -4 -16h414q20 0 31.5 -13.5t11.5 -28.5t-11.5 -27.5t-31.5 -12.5h-432q-16 -102 -10 -184h442q20 0 31.5 -13.5t11.5 -29t-11.5 -27.5 t-31.5 -12h-430q18 -92 63 -164q53 -92 141.5 -151.5t205.5 -86.5q168 -39 331.5 -19.5t313.5 97.5q16 8 31.5 3t23.5 -21t3 -31.5t-22 -23.5q-219 -111 -462 -111q-59 0 -119 6t-119 21q-131 31 -231 98q-51 35 -93.5 79t-72.5 97q-59 94 -78 207h-66q-23 0 -33 12 t-10 27.5z" />
<glyph unicode="&#x25fc;" horiz-adv-x="798" d="M0 0v799h799v-799h-799z" />
</font>
</defs>
</svg>
